<?xml version="1.0" encoding="UTF-8"?>
<svg xmlns="http://www.w3.org/2000/svg" version="1.1" viewBox="0 0 200 200">
  <defs>
    <style>
      .cls-1 {
        fill: #ff3314;
      }

      .cls-2 {
        fill: #019472;
      }

      .cls-3 {
        fill: #e8c96f;
      }

      .cls-4 {
        fill: #fff;
      }

      .cls-5 {
        fill: #ad1714;
      }

      .cls-6 {
        fill: #005642;
      }

      .cls-7 {
        fill: #c29d4e;
      }

      .cls-8 {
        fill: #1a1a1a;
      }
    </style>
  </defs>
  <!-- Generator: Adobe Illustrator 28.7.1, SVG Export Plug-In . SVG Version: 1.2.0 Build 142)  -->
  <g>
    <g id="_x5F_title-cta">
      <g>
        <rect class="cls-6" x="92.4" y="77.1" width="15.3" height="15.3" transform="translate(15.2 184.7) rotate(-89.9)"/>
        <g>
          <g>
            <rect class="cls-7" x="38.8" y="176.4" width="7.6" height="7.6" transform="translate(-137.7 222.6) rotate(-89.9)"/>
            <g>
              <g>
                <rect class="cls-8" x="92.4" y="92.4" width="7.6" height="7.6" transform="translate(0 192.3) rotate(-89.9)"/>
                <rect class="cls-8" x="73.3" y="73.2" width="7.6" height="30.6" transform="translate(-11.5 165.5) rotate(-89.9)"/>
                <rect class="cls-8" x="54.2" y="92.3" width="7.6" height="7.6" transform="translate(-38.2 154) rotate(-89.9)"/>
                <rect class="cls-8" x="46.5" y="100" width="7.6" height="7.6" transform="translate(-53.5 154) rotate(-89.9)"/>
                <rect class="cls-8" x="38.9" y="107.6" width="7.6" height="7.6" transform="translate(-68.8 154) rotate(-89.9)"/>
                <rect class="cls-8" x=".6" y="130.5" width="7.6" height="7.6" transform="translate(-129.9 138.6) rotate(-89.9)"/>
                <rect class="cls-8" x="8.3" y="138.1" width="7.6" height="7.6" transform="translate(-129.9 153.8) rotate(-89.9)"/>
                <rect class="cls-8" x="15.9" y="145.8" width="7.6" height="7.6" transform="translate(-129.9 169.1) rotate(-89.9)"/>
                <rect class="cls-8" x="23.5" y="153.4" width="7.6" height="7.6" transform="translate(-129.9 184.4) rotate(-89.9)"/>
                <rect class="cls-8" x="31.2" y="161.1" width="7.6" height="7.6" transform="translate(-130 199.7) rotate(-89.9)"/>
                <rect class="cls-8" x="38.8" y="168.7" width="7.6" height="7.6" transform="translate(-130 215) rotate(-89.9)"/>
                <rect class="cls-8" x="46.4" y="176.4" width="7.6" height="7.6" transform="translate(-130 230.2) rotate(-89.9)"/>
                <rect class="cls-8" x="54.1" y="184.1" width="7.6" height="7.6" transform="translate(-130.1 245.5) rotate(-89.9)"/>
                <rect class="cls-8" x="54.1" y="161.1" width="7.6" height="7.6" transform="translate(-107.1 222.6) rotate(-89.9)"/>
                <rect class="cls-8" x="46.5" y="153.5" width="7.6" height="7.6" transform="translate(-107.1 207.4) rotate(-89.9)"/>
                <rect class="cls-8" x="38.8" y="145.8" width="7.6" height="7.6" transform="translate(-107 192.1) rotate(-89.9)"/>
                <rect class="cls-8" x="31.2" y="138.2" width="7.6" height="7.6" transform="translate(-107 176.8) rotate(-89.9)"/>
                <rect class="cls-8" x="23.6" y="130.5" width="7.6" height="7.6" transform="translate(-107 161.5) rotate(-89.9)"/>
                <rect class="cls-8" x="12.1" y="119" width="7.6" height="15.3" transform="translate(-110.8 142.4) rotate(-89.9)"/>
                <rect class="cls-8" x="27.4" y="111.4" width="7.6" height="15.3" transform="translate(-87.9 150.1) rotate(-89.9)"/>
                <rect class="cls-8" x="84.7" y="138.2" width="7.6" height="7.6" transform="translate(-53.6 230.4) rotate(-89.9)"/>
                <rect class="cls-8" x="77" y="145.9" width="7.6" height="7.6" transform="translate(-68.9 230.4) rotate(-89.9)"/>
                <rect class="cls-8" x="65.6" y="157.3" width="15.3" height="7.6" transform="translate(-88 234.1) rotate(-89.9)"/>
                <polygon class="cls-3" points="61.7 168.8 61.7 184.1 54.1 184.1 54.1 176.4 46.4 176.4 46.4 168.8 38.8 168.7 38.8 161.1 31.2 161.1 31.2 153.4 23.5 153.4 23.5 145.8 15.9 145.8 15.9 138.1 8.3 138.1 8.3 130.5 23.6 130.5 23.5 138.1 31.2 138.2 31.2 145.8 38.8 145.8 38.8 153.5 46.5 153.5 46.5 161.1 54.1 161.1 54.1 168.8 61.7 168.8"/>
                <rect class="cls-8" x="57.9" y="172.6" width="15.3" height="7.6" transform="translate(-111 241.7) rotate(-89.9)"/>
                <rect class="cls-8" x="88.6" y="111.5" width="30.6" height="7.6" transform="translate(-11.6 219) rotate(-89.9)"/>
                <polygon class="cls-3" points="100 100 100 130.6 92.4 130.6 92.4 138.2 84.7 138.2 84.7 145.9 77.1 145.9 77 153.5 69.4 153.5 69.4 168.8 61.7 168.8 61.7 161.1 54.1 161.1 54.1 153.5 46.5 153.5 46.5 145.8 38.8 145.8 38.8 138.2 31.2 138.2 31.2 130.5 23.6 130.5 23.6 122.9 38.9 122.9 38.9 115.2 46.5 115.2 46.5 107.6 54.2 107.6 54.2 100 61.8 100 61.8 92.3 92.4 92.4 92.4 100 100 100"/>
                <rect class="cls-8" x="92.4" y="130.6" width="7.6" height="7.6" transform="translate(-38.4 230.4) rotate(-89.9)"/>
              </g>
              <rect class="cls-7" x="46.4" y="168.8" width="7.6" height="7.6" transform="translate(-122.4 222.6) rotate(-89.9)"/>
              <rect class="cls-7" x="54.1" y="153.5" width="7.6" height="7.6" transform="translate(-99.5 215) rotate(-89.9)"/>
              <rect class="cls-7" x="61.8" y="145.8" width="7.6" height="7.6" transform="translate(-84.2 215) rotate(-89.9)"/>
              <rect class="cls-4" x="46.5" y="115.2" width="7.6" height="7.6" transform="translate(-68.8 169.2) rotate(-89.9)"/>
              <rect class="cls-4" x="15.9" y="138.1" width="7.6" height="7.6" transform="translate(-122.3 161.5) rotate(-89.9)"/>
              <rect class="cls-4" x="54.2" y="107.6" width="7.6" height="7.6" transform="translate(-53.5 169.3) rotate(-89.9)"/>
              <rect class="cls-4" x="61.8" y="100" width="7.6" height="7.6" transform="translate(-38.2 169.3) rotate(-89.9)"/>
              <rect class="cls-7" x="69.4" y="138.2" width="7.6" height="7.6" transform="translate(-68.9 215.1) rotate(-89.9)"/>
              <rect class="cls-7" x="77.1" y="130.6" width="7.6" height="7.6" transform="translate(-53.6 215.1) rotate(-89.9)"/>
              <rect class="cls-7" x="84.7" y="122.9" width="7.6" height="7.6" transform="translate(-38.3 215.1) rotate(-89.9)"/>
              <rect class="cls-7" x="92.4" y="115.3" width="7.6" height="7.6" transform="translate(-23.1 215.2) rotate(-89.9)"/>
            </g>
            <rect class="cls-8" x="31.1" y="176.4" width="7.6" height="7.6" transform="translate(-145.3 214.9) rotate(-89.9)"/>
            <rect class="cls-8" x="38.8" y="184" width="7.6" height="7.6" transform="translate(-145.3 230.2) rotate(-89.9)"/>
          </g>
          <g>
            <rect class="cls-7" x="153.5" y="176.5" width="7.6" height="7.6" transform="translate(-23.3 337.4) rotate(-89.9)"/>
            <g>
              <g>
                <rect class="cls-8" x="100.1" y="92.4" width="7.6" height="7.6" transform="translate(7.5 199.9) rotate(-89.9)"/>
                <rect class="cls-8" x="119.2" y="73.3" width="7.6" height="30.6" transform="translate(34.2 211.5) rotate(-89.9)"/>
                <rect class="cls-8" x="138.3" y="92.4" width="7.6" height="7.6" transform="translate(45.7 238.2) rotate(-89.9)"/>
                <rect class="cls-8" x="145.9" y="100.1" width="7.6" height="7.6" transform="translate(45.6 253.5) rotate(-89.9)"/>
                <rect class="cls-8" x="153.5" y="107.7" width="7.6" height="7.6" transform="translate(45.6 268.8) rotate(-89.9)"/>
                <rect class="cls-8" x="191.7" y="130.7" width="7.6" height="7.6" transform="translate(60.8 329.9) rotate(-89.9)"/>
                <rect class="cls-8" x="184.1" y="138.4" width="7.6" height="7.6" transform="translate(45.5 329.9) rotate(-89.9)"/>
                <rect class="cls-8" x="176.4" y="146" width="7.6" height="7.6" transform="translate(30.2 329.9) rotate(-89.9)"/>
                <rect class="cls-8" x="168.8" y="153.6" width="7.6" height="7.6" transform="translate(14.9 329.8) rotate(-89.9)"/>
                <rect class="cls-8" x="161.1" y="161.3" width="7.6" height="7.6" transform="translate(-.4 329.8) rotate(-89.9)"/>
                <rect class="cls-8" x="153.5" y="168.9" width="7.6" height="7.6" transform="translate(-15.6 329.8) rotate(-89.9)"/>
                <rect class="cls-8" x="145.8" y="176.5" width="7.6" height="7.6" transform="translate(-30.9 329.7) rotate(-89.9)"/>
                <rect class="cls-8" x="138.2" y="184.2" width="7.6" height="7.6" transform="translate(-46.2 329.7) rotate(-89.9)"/>
                <rect class="cls-8" x="138.2" y="161.2" width="7.6" height="7.6" transform="translate(-23.2 306.8) rotate(-89.9)"/>
                <rect class="cls-8" x="145.8" y="153.6" width="7.6" height="7.6" transform="translate(-8 306.9) rotate(-89.9)"/>
                <rect class="cls-8" x="153.5" y="146" width="7.6" height="7.6" transform="translate(7.3 306.9) rotate(-89.9)"/>
                <rect class="cls-8" x="161.1" y="138.3" width="7.6" height="7.6" transform="translate(22.6 306.9) rotate(-89.9)"/>
                <rect class="cls-8" x="168.8" y="130.7" width="7.6" height="7.6" transform="translate(37.9 307) rotate(-89.9)"/>
                <rect class="cls-8" x="180.3" y="119.2" width="7.6" height="15.3" transform="translate(57 310.8) rotate(-89.9)"/>
                <rect class="cls-8" x="165" y="111.6" width="7.6" height="15.3" transform="translate(49.4 287.9) rotate(-89.9)"/>
                <rect class="cls-8" x="107.6" y="138.3" width="7.6" height="7.6" transform="translate(-30.8 253.3) rotate(-89.9)"/>
                <rect class="cls-8" x="115.3" y="145.9" width="7.6" height="7.6" transform="translate(-30.8 268.6) rotate(-89.9)"/>
                <rect class="cls-8" x="119.1" y="157.4" width="15.3" height="7.6" transform="translate(-34.7 287.7) rotate(-89.9)"/>
                <polygon class="cls-3" points="138.2 168.9 138.2 184.2 145.8 184.2 145.8 176.5 153.5 176.5 153.5 168.9 161.1 168.9 161.1 161.3 168.8 161.3 168.8 153.6 176.4 153.6 176.4 146 184.1 146 184.1 138.4 191.7 138.4 191.7 130.7 176.5 130.7 176.4 138.3 168.8 138.3 168.8 146 161.1 146 161.1 153.6 153.5 153.6 153.5 161.2 145.8 161.2 145.8 168.9 138.2 168.9"/>
                <rect class="cls-8" x="126.7" y="172.7" width="15.3" height="7.6" transform="translate(-42.3 310.6) rotate(-89.9)"/>
                <rect class="cls-8" x="80.9" y="111.5" width="30.6" height="7.6" transform="translate(-19.2 211.4) rotate(-89.9)"/>
                <polygon class="cls-3" points="100 100 100 130.6 107.6 130.6 107.6 138.3 115.3 138.3 115.3 145.9 122.9 145.9 122.9 153.6 130.6 153.6 130.5 168.9 138.2 168.9 138.2 161.2 145.8 161.2 145.8 153.6 153.5 153.6 153.5 146 161.1 146 161.2 138.3 168.8 138.3 168.8 130.7 176.5 130.7 176.5 123.1 161.2 123 161.2 115.4 153.5 115.4 153.5 107.7 145.9 107.7 145.9 100.1 138.3 100.1 138.3 92.4 107.7 92.4 107.7 100 100 100"/>
                <rect class="cls-8" x="100" y="130.6" width="7.6" height="7.6" transform="translate(-30.7 238.1) rotate(-89.9)"/>
              </g>
              <rect class="cls-7" x="145.8" y="168.9" width="7.6" height="7.6" transform="translate(-23.3 322.1) rotate(-89.9)"/>
              <rect class="cls-7" x="138.2" y="153.6" width="7.6" height="7.6" transform="translate(-15.6 299.2) rotate(-89.9)"/>
              <rect class="cls-7" x="130.6" y="145.9" width="7.6" height="7.6" transform="translate(-15.6 283.9) rotate(-89.9)"/>
              <rect class="cls-4" x="138.2" y="115.4" width="7.6" height="7.6" transform="translate(22.7 261.1) rotate(-89.9)"/>
              <rect class="cls-4" x="176.4" y="138.4" width="7.6" height="7.6" transform="translate(37.8 322.2) rotate(-89.9)"/>
              <rect class="cls-4" x="130.6" y="107.7" width="7.6" height="7.6" transform="translate(22.7 245.8) rotate(-89.9)"/>
              <rect class="cls-4" x="123" y="100.1" width="7.6" height="7.6" transform="translate(22.8 230.5) rotate(-89.9)"/>
              <rect class="cls-7" x="122.9" y="138.3" width="7.6" height="7.6" transform="translate(-15.5 268.7) rotate(-89.9)"/>
              <rect class="cls-7" x="115.3" y="130.6" width="7.6" height="7.6" transform="translate(-15.5 253.4) rotate(-89.9)"/>
              <rect class="cls-7" x="107.7" y="123" width="7.6" height="7.6" transform="translate(-15.5 238.1) rotate(-89.9)"/>
              <rect class="cls-7" x="100" y="115.3" width="7.6" height="7.6" transform="translate(-15.4 222.8) rotate(-89.9)"/>
            </g>
            <rect class="cls-8" x="161.1" y="176.6" width="7.6" height="7.6" transform="translate(-15.7 345.1) rotate(-89.9)"/>
            <rect class="cls-8" x="153.4" y="184.2" width="7.6" height="7.6" transform="translate(-31 345) rotate(-89.9)"/>
          </g>
          <rect class="cls-4" x="115.3" y="100" width="7.6" height="7.6" transform="translate(15.1 222.9) rotate(-89.9)"/>
        </g>
        <g>
          <g>
            <rect class="cls-1" x="84.8" y="69.4" width="7.6" height="7.6" transform="translate(15.2 161.8) rotate(-89.9)"/>
            <polygon class="cls-1" points="77.1 84.7 69.5 84.7 69.5 100 77.1 100 77.1 92.3 84.8 92.4 84.8 77.1 77.1 77.1 77.1 84.7"/>
            <path class="cls-1" d="M69.5,69.4v-7.6s15.3,0,15.3,0v-7.6s-7.6,0-7.6,0v-7.6s-15.3,0-15.3,0c0,9.6,0,21,0,30.6h15.3s0-7.6,0-7.6h-7.6Z"/>
          </g>
          <g>
            <rect class="cls-1" x="107.7" y="69.5" width="7.6" height="7.6" transform="translate(38.1 184.7) rotate(-89.9)"/>
            <polygon class="cls-1" points="123 84.8 130.6 84.8 130.6 100.1 123 100.1 123 92.4 115.3 92.4 115.4 77.1 123 77.1 123 84.8"/>
            <path class="cls-1" d="M130.7,69.5v-7.6s-15.3,0-15.3,0v-7.6s7.7,0,7.7,0v-7.6s15.3,0,15.3,0c0,9.6,0,21,0,30.6h-15.3s0-7.7,0-7.7h7.6Z"/>
          </g>
          <rect class="cls-1" x="92.5" y="54.2" width="15.3" height="15.3" transform="translate(38.2 161.8) rotate(-89.9)"/>
          <rect class="cls-4" x="61.9" y="54.1" width="7.6" height="7.6" transform="translate(7.7 123.6) rotate(-89.9)"/>
          <rect class="cls-4" x="69.5" y="46.5" width="7.6" height="7.6" transform="translate(23 123.6) rotate(-89.9)"/>
          <rect class="cls-4" x="130.7" y="46.6" width="7.6" height="7.6" transform="translate(84 184.8) rotate(-89.9)"/>
          <rect class="cls-4" x="123" y="54.2" width="7.6" height="7.6" transform="translate(68.7 184.8) rotate(-89.9)"/>
          <rect class="cls-5" x="84.8" y="69.4" width="7.6" height="7.6" transform="translate(15.2 161.8) rotate(-89.9)"/>
          <rect class="cls-5" x="107.7" y="69.5" width="7.6" height="7.6" transform="translate(38.1 184.7) rotate(-89.9)"/>
          <rect class="cls-5" x="69.5" y="69.4" width="7.6" height="7.6" transform="translate(0 146.5) rotate(-89.9)"/>
          <rect class="cls-5" x="123" y="69.5" width="7.6" height="7.6" transform="translate(53.4 200) rotate(-89.9)"/>
          <g>
            <path class="cls-8" d="M84.8,84.7v7.6s7.6,0,7.6,0c0-3.8,0-11.5,0-15.3h-7.6s0,7.6,0,7.6Z"/>
            <path class="cls-8" d="M69.5,84.7h7.6s0-7.6,0-7.6c-3.8,0-11.5,0-15.3,0,0,6.8,0,16.1,0,22.9h7.6c0-3.8,0-11.5,0-15.3Z"/>
            <rect class="cls-8" x="77.1" y="92.4" width="7.6" height="7.6" transform="translate(-15.3 177) rotate(-89.9)"/>
            <rect class="cls-8" x="69.5" y="100" width="7.6" height="7.6" transform="translate(-30.6 177) rotate(-89.9)"/>
            <rect class="cls-8" x="115.3" y="92.4" width="7.6" height="7.6" transform="translate(22.8 215.3) rotate(-89.9)"/>
            <rect class="cls-8" x="123" y="100.1" width="7.6" height="7.6" transform="translate(22.8 230.5) rotate(-89.9)"/>
            <path class="cls-8" d="M115.4,77.1h-7.6c0,3.8,0,11.5,0,15.3h7.6c0-3.8,0-11.5,0-15.3Z"/>
            <rect class="cls-8" x="77.2" y="46.5" width="7.6" height="7.6" transform="translate(30.6 131.2) rotate(-89.9)"/>
            <path class="cls-8" d="M61.9,46.5h-7.6c0,8.5,0,22,0,30.6h7.6c0-4.8,0-30.6,0-30.6Z"/>
            <path class="cls-8" d="M77.2,46.5v-7.6c-3.8,0-11.5,0-15.3,0v7.6c3.8,0,11.5,0,15.3,0Z"/>
            <rect class="cls-8" x="115.4" y="46.5" width="7.6" height="7.6" transform="translate(68.7 169.5) rotate(-89.9)"/>
            <path class="cls-8" d="M123,77.1v7.6s7.6,0,7.6,0v15.3s7.6,0,7.6,0c0-5.1,0-18,0-22.9-3.8,0-11.5,0-15.3,0Z"/>
            <path class="cls-8" d="M69.5,61.8v7.6s7.6,0,7.6,0v7.6s7.6,0,7.6,0v-7.6s7.7,0,7.7,0c0-3.8,0-11.5,0-15.3h-7.6s0,7.6,0,7.6h-15.3Z"/>
            <path class="cls-8" d="M138.3,46.6c0,8.5,0,22,0,30.6h7.6c0-8.5,0-22,0-30.6h-7.6Z"/>
            <path class="cls-8" d="M138.3,46.6v-7.6c-3.8,0-11.5,0-15.3,0v7.6c3.8,0,11.5,0,15.3,0Z"/>
            <path class="cls-8" d="M107.7,69.5h7.6s0,7.7,0,7.7h7.6s0-7.6,0-7.6h7.6s0-7.6,0-7.6c-3.8,0-11.5,0-15.3,0v-7.6s-7.6,0-7.6,0c0,3.8,0,11.5,0,15.3Z"/>
            <path class="cls-8" d="M107.8,54.2v-7.6c-3.8,0-11.5,0-15.3,0v7.6c3.8,0,11.5,0,15.3,0Z"/>
            <path class="cls-8" d="M92.4,69.4v7.6c3.8,0,11.5,0,15.3,0v-7.6s-15.3,0-15.3,0Z"/>
          </g>
        </g>
        <polygon class="cls-2" points="84.9 23.6 84.8 46.5 77.2 46.5 77.2 38.8 61.9 38.8 61.9 46.5 54.2 46.4 54.2 77 61.9 77 61.8 84.7 61.8 92.3 54.2 92.3 54.2 100 46.5 99.9 46.6 84.7 23.6 84.6 23.6 69.3 31.3 69.4 31.3 61.7 23.7 61.7 23.7 54.1 16 54 16 38.8 23.7 38.8 23.7 31.1 16 31.1 16.1 15.8 31.4 15.8 31.3 23.5 39 23.5 39 15.8 54.3 15.9 54.3 31.2 69.6 31.2 69.6 23.5 84.9 23.6"/>
        <polygon class="cls-2" points="115.4 23.6 115.4 46.5 123.1 46.5 123.1 38.9 138.4 38.9 138.3 46.6 146 46.6 145.9 77.1 138.3 77.1 138.3 84.8 145.9 84.8 145.9 92.4 153.6 92.4 153.6 84.8 176.5 84.8 176.5 69.5 168.9 69.5 168.9 61.9 176.5 61.9 176.6 54.3 184.2 54.3 184.2 39 176.6 39 176.6 31.3 184.2 31.3 184.2 16 169 16 168.9 23.7 161.3 23.7 161.3 16 146 16 146 31.3 130.7 31.3 130.7 23.6 115.4 23.6"/>
        <rect class="cls-6" x="134.5" y="81" width="15.3" height="7.6" transform="translate(57.1 226.8) rotate(-89.9)"/>
        <rect class="cls-6" x="142.1" y="88.6" width="15.3" height="7.6" transform="translate(57.1 242.1) rotate(-89.9)"/>
        <rect class="cls-6" x="46.5" y="92.3" width="7.6" height="7.6" transform="translate(-45.8 146.4) rotate(-89.9)"/>
        <rect class="cls-6" x="46.6" y="54.1" width="7.6" height="7.6" transform="translate(-7.6 108.2) rotate(-89.9)"/>
        <rect class="cls-6" x="39" y="46.4" width="7.6" height="7.6" transform="translate(-7.5 93) rotate(-89.9)"/>
        <rect class="cls-6" x="31.3" y="38.8" width="7.6" height="7.6" transform="translate(-7.5 77.7) rotate(-89.9)"/>
        <rect class="cls-6" x="146" y="54.2" width="7.6" height="7.6" transform="translate(91.6 207.8) rotate(-89.9)"/>
        <rect class="cls-6" x="153.6" y="46.6" width="7.6" height="7.6" transform="translate(106.8 207.8) rotate(-89.9)"/>
        <rect class="cls-6" x="161.3" y="38.9" width="7.6" height="7.6" transform="translate(122.1 207.8) rotate(-89.9)"/>
        <rect class="cls-7" x="165" y="119.2" width="7.6" height="15.3" transform="translate(41.7 295.5) rotate(-89.9)"/>
        <rect class="cls-7" x="153.5" y="115.4" width="7.6" height="7.6" transform="translate(37.9 276.4) rotate(-89.9)"/>
        <rect class="cls-7" x="145.9" y="107.7" width="7.6" height="7.6" transform="translate(38 261.1) rotate(-89.9)"/>
        <rect class="cls-7" x="138.3" y="100.1" width="7.6" height="7.6" transform="translate(38 245.8) rotate(-89.9)"/>
        <rect class="cls-4" x="38.9" y="115.2" width="7.6" height="7.6" transform="translate(-76.4 161.6) rotate(-89.9)"/>
        <rect class="cls-4" x="23.7" y="38.8" width="7.6" height="7.6" transform="translate(-15.1 70) rotate(-89.9)"/>
        <rect class="cls-4" x="31.3" y="46.4" width="7.6" height="7.6" transform="translate(-15.2 85.3) rotate(-89.9)"/>
        <rect class="cls-4" x="153.6" y="38.9" width="7.6" height="7.6" transform="translate(114.5 200.2) rotate(-89.9)"/>
        <rect class="cls-4" x="161.3" y="31.3" width="7.6" height="7.6" transform="translate(129.8 200.2) rotate(-89.9)"/>
        <g>
          <path class="cls-8" d="M39,8.2v7.6c3.8,0,11.5,0,15.3,0v-7.6s-15.3,0-15.3,0Z"/>
          <path class="cls-8" d="M8.4,8.2c0,4.8,0,17.9,0,22.9h7.6s0-15.3,0-15.3c3.8,0,11.5,0,15.3,0v-7.6s-19.1,0-22.9,0Z"/>
          <rect class="cls-8" x="31.4" y="15.8" width="7.6" height="7.6" transform="translate(15.5 54.8) rotate(-89.9)"/>
          <path class="cls-8" d="M8.4,54h7.6c0-3.8,0-11.5,0-15.3h-7.6s0,15.3,0,15.3Z"/>
          <path class="cls-8" d="M16,84.6h7.6c0-3.8,0-11.5,0-15.3h-7.6s0,15.3,0,15.3Z"/>
          <path class="cls-8" d="M38.9,92.3v7.6s7.6,0,7.6,0v-15.3c-6.8,0-16.1,0-22.9,0v7.6s8.5,0,15.3,0Z"/>
          <rect class="cls-8" x="23.6" y="61.7" width="7.6" height="7.6" transform="translate(-38.1 92.9) rotate(-89.9)"/>
          <path class="cls-8" d="M69.6,15.9v7.6c3.8,0,11.5,0,15.3,0v-7.6s-15.3,0-15.3,0Z"/>
          <path class="cls-8" d="M84.9,23.6c0,6.8,0,16.1,0,22.9h7.6c0-6.8,0-16.1,0-22.9h-7.6Z"/>
          <rect class="cls-8" x="16" y="31.1" width="7.6" height="7.6" transform="translate(-15.1 54.8) rotate(-89.9)"/>
          <rect class="cls-8" x="16" y="54" width="7.6" height="7.6" transform="translate(-38.1 77.6) rotate(-89.9)"/>
          <path class="cls-8" d="M61.9,15.9h-7.6c0,3.8,0,11.5,0,15.3,3.8,0,11.5,0,15.3,0v-7.6s-7.6,0-7.6,0v-7.6Z"/>
        </g>
        <g>
          <path class="cls-8" d="M146,8.3v7.6c3.8,0,11.5,0,15.3,0v-7.6s-15.3,0-15.3,0Z"/>
          <path class="cls-8" d="M191.9,8.4c-3.8,0-22.9,0-22.9,0v7.6c3.8,0,11.5,0,15.3,0v15.3s7.6,0,7.6,0c0-5,0-18.1,0-22.9Z"/>
          <rect class="cls-8" x="161.3" y="16" width="7.6" height="7.6" transform="translate(145.1 184.9) rotate(-89.9)"/>
          <path class="cls-8" d="M191.8,54.3v-15.3s-7.6,0-7.6,0c0,3.8,0,11.5,0,15.3h7.6Z"/>
          <path class="cls-8" d="M184.2,84.8v-15.3s-7.6,0-7.6,0c0,3.8,0,11.5,0,15.3h7.6Z"/>
          <path class="cls-8" d="M153.6,100.1h7.6s0-7.6,0-7.6c6.8,0,15.3,0,15.3,0v-7.6c-6.8,0-16.1,0-22.9,0v15.3Z"/>
          <rect class="cls-8" x="168.9" y="61.9" width="7.6" height="7.6" transform="translate(106.8 238.3) rotate(-89.9)"/>
          <path class="cls-8" d="M115.4,15.9v7.6c3.8,0,11.5,0,15.3,0v-7.6s-15.3,0-15.3,0Z"/>
          <path class="cls-8" d="M107.8,46.5h7.6c0-6.8,0-16.1,0-22.9h-7.6c0,6.8,0,16.1,0,22.9Z"/>
          <rect class="cls-8" x="176.6" y="31.3" width="7.6" height="7.6" transform="translate(145 215.5) rotate(-89.9)"/>
          <rect class="cls-8" x="176.5" y="54.3" width="7.6" height="7.6" transform="translate(122 238.4) rotate(-89.9)"/>
          <path class="cls-8" d="M138.4,23.6h-7.6s0,7.6,0,7.6c3.8,0,11.5,0,15.3,0,0-3.8,0-11.5,0-15.3h-7.6s0,7.6,0,7.6Z"/>
        </g>
      </g>
    </g>
  </g>
</svg>