<svg width="18" height="18" viewBox="0 0 18 18" fill="none" xmlns="http://www.w3.org/2000/svg">
  <g clip-path="url(#clip0_9_137855)">
    <g clip-path="url(#clip1_9_137855)">
      <path
        d="M9 18C4.05 18 0 13.95 0 9C0 4.05 4.05 0 9 0C13.95 0 18 4.05 18 9C18 13.95 13.95 18 9 18ZM9 1.5C4.875 1.5 1.5 4.875 1.5 9C1.5 13.125 4.875 16.5 9 16.5C13.125 16.5 16.5 13.125 16.5 9C16.5 4.875 13.125 1.5 9 1.5Z"
        fill="#00112B" />
      <path
        d="M7.875 5.25C7.875 4.575 8.325 4.125 9 4.125C9.675 4.125 10.125 4.65 10.125 5.25C10.125 5.85 9.675 6.375 9 6.375C8.325 6.375 7.875 5.85 7.875 5.25ZM7.95 7.275H10.05V13.875H7.95V7.275Z"
        fill="#00112B" />
    </g>
  </g>
  <defs>
    <clipPath id="clip0_9_137855">
      <rect width="18" height="18" fill="white" />
    </clipPath>
    <clipPath id="clip1_9_137855">
      <rect width="18" height="18" fill="white" />
    </clipPath>
  </defs>
</svg>