<svg width="32" height="32" viewBox="0 0 32 32" fill="none" xmlns="http://www.w3.org/2000/svg">
<g clip-path="url(#clip0_20_11583)">
<path d="M23.3055 8.25372C23.8301 8.67602 24.3411 9.13339 24.8333 9.63432C28.9514 13.8226 27.4356 17.9603 25.8945 19.6506C24.3535 21.341 19.8059 22.7541 14.0459 17.809C13.4833 17.3262 12.9684 16.905 12.475 16.5137V27.7531H32.0002V8.25372H23.3055Z" fill="white"/>
<path d="M12.4751 8.25373H19.7591V10.0867H21.8212V8.25373H23.3053C17.7217 3.7598 10.4501 3.57342 4.44544 4.79009C-1.75571 6.04666 -0.329444 10.5491 1.91934 11.3753C6.04847 12.8926 7.91917 12.8967 12.4751 16.5137V8.25373Z" fill="white"/>
<path d="M16.9779 16.9642L19.0591 10.7481H16.9967L15.8615 14.7725L14.6508 10.7481H12.475L14.5372 16.9642H16.9779Z" fill="white"/>
<path d="M21.8212 10.7481H19.759V16.9645H21.8212V10.7481Z" fill="white"/>
</g>
<defs>
<clipPath id="clip0_20_11583">
<rect width="32" height="32" fill="white"/>
</clipPath>
</defs>
</svg>
