<svg width="18" height="18" viewBox="0 0 18 18" fill="none" xmlns="http://www.w3.org/2000/svg">
<g clip-path="url(#clip0_9_137853)">
<g clip-path="url(#clip1_9_137853)">
<path d="M10.425 0.525012L5.25 5.02501H1.2C0.525 5.02501 0 5.55001 0 6.22501V11.775C0 12.45 0.525 12.975 1.2 12.975H5.25L10.425 17.475C11.025 18 11.55 17.775 11.55 17.025V1.05001C11.55 0.225012 11.025 0.0750123 10.425 0.600012V0.525012Z" fill="#00112B"/>
<path d="M15.3 14.475C15.15 14.475 14.925 14.475 14.775 14.25C14.475 13.95 14.475 13.5 14.775 13.2C15.075 12.9 15.3 12.6 15.525 12.3C15.75 12 15.9 11.625 16.05 11.25C16.2 10.875 16.35 10.5 16.425 10.125C16.5 9.75 16.575 9.3 16.575 8.925C16.575 8.55 16.575 8.1 16.425 7.725C16.35 7.35 16.2 6.975 16.05 6.6C15.9 6.225 15.675 5.925 15.525 5.55C15.3 5.25 15.075 4.95 14.775 4.65C14.475 4.35 14.475 3.9 14.775 3.6C15.075 3.3 15.525 3.3 15.825 3.6C16.125 3.975 16.5 4.275 16.725 4.725C17.025 5.1 17.25 5.55 17.4 6C17.625 6.45 17.775 6.9 17.85 7.425C17.925 7.95 18 8.4 18 8.925C18 9.45 18 9.9 17.85 10.425C17.775 10.875 17.625 11.4 17.4 11.85C17.25 12.3 16.95 12.75 16.725 13.125C16.425 13.5 16.125 13.875 15.825 14.25C15.675 14.4 15.525 14.475 15.3 14.475Z" fill="#00112B"/>
<path d="M13.275 12.45C13.125 12.45 12.9 12.45 12.75 12.225C12.45 11.925 12.45 11.475 12.75 11.175C12.9 11.025 13.05 10.875 13.125 10.725C13.275 10.575 13.35 10.35 13.425 10.2C13.5 9.97499 13.575 9.82499 13.575 9.59999C13.575 9.37499 13.575 9.14999 13.575 8.99999C13.575 8.84999 13.575 8.54999 13.575 8.39999C13.575 8.17499 13.5 8.02499 13.425 7.79999C13.35 7.64999 13.275 7.42499 13.125 7.27499C13.05 7.12499 12.9 6.97499 12.75 6.82499C12.45 6.52499 12.45 6.07499 12.75 5.77499C13.05 5.47499 13.5 5.47499 13.8 5.77499C14.025 5.99999 14.175 6.22499 14.325 6.44999C14.475 6.67499 14.625 6.97499 14.775 7.19999C14.925 7.49999 15 7.79999 15.075 8.09999C15.075 8.39999 15.15 8.69999 15.15 8.99999C15.15 9.29999 15.15 9.59999 15.075 9.89999C15.075 10.2 14.925 10.5 14.775 10.8C14.625 11.1 14.55 11.325 14.325 11.55C14.175 11.775 13.95 12 13.8 12.225C13.65 12.375 13.5 12.45 13.275 12.45Z" fill="#00112B"/>
</g>
</g>
<defs>
<clipPath id="clip0_9_137853">
<rect width="18" height="18" fill="white"/>
</clipPath>
<clipPath id="clip1_9_137853">
<rect width="18" height="18" fill="white"/>
</clipPath>
</defs>
</svg>
