<svg width="733" height="131" viewBox="0 0 733 131" fill="none" xmlns="http://www.w3.org/2000/svg">
<g clip-path="url(#clip0_3_4116)">
<path d="M69.6859 22.3857H61.9487V14.6349H54.2115H46.4742H38.737H30.9998H23.2117H15.4744H7.73722H0V22.3857V30.1876V37.9385V45.6894V53.4403V61.1911V68.942V76.6929V84.4947H7.73722H15.4744H23.2117V76.6929V68.942V61.1911V53.4403V45.6894V37.9385H30.9998H38.737H46.4742V45.6894H54.2115V53.4403V61.1911V68.942V76.6929V84.4947H61.9487H69.6859H77.4231V76.6929V68.942V61.1911V53.4403V45.6894V37.9385V30.1876H69.6859V22.3857Z" fill="#FB4F6A"/>
<path d="M147.16 14.6349H139.372H131.635H123.897H116.16H108.423H100.686H92.9485V22.3857V30.1876V37.9385V45.6894V53.4403V61.1911V68.942V76.6929V84.4947H100.686H108.423H116.16H123.897H131.635H139.372H147.16H154.897V76.6929V68.942V61.1911H147.16H139.372H131.635H123.897H116.16V53.4403V45.6894V37.9385H123.897H131.635H139.372H147.16H154.897H162.634V30.1876V22.3857V14.6349H154.897H147.16Z" fill="#FB4F6A"/>
<path d="M247.795 22.3857H240.058V14.6349H232.32H224.583H216.846H209.109H201.32H193.583V22.3857H185.846V30.1876H178.109V37.9385V45.6894V53.4403V61.1911V68.942V76.6929V84.4947H185.846H193.583H201.32V76.6929V68.942V61.1911V53.4403V45.6894H209.109V37.9385H216.846H224.583V45.6894H232.32V53.4403H240.058H247.795H255.532V45.6894V37.9385V30.1876H247.795V22.3857Z" fill="#FB4F6A"/>
<path d="M340.743 30.1876V22.3857H333.006V14.6349H325.269H317.481H309.743H302.006H294.269H286.532V22.3857H278.795V30.1876H271.057V37.9385V45.6894V53.4403V61.1911V68.942V76.6929V84.4947H278.795H286.532H294.269V76.6929V68.942V61.1911V53.4403V45.6894H302.006V37.9385H309.743H317.481V45.6894H325.269V53.4403V61.1911V68.942V76.6929V84.4947H333.006H340.743H348.48V76.6929V68.942V61.1911V53.4403V45.6894V37.9385V30.1876H340.743Z" fill="#FB4F6A"/>
<path d="M438.731 22.3857H430.994V14.6349H423.257H415.468H407.731H399.994H392.257H384.52H376.782H369.045V22.3857V30.1876V37.9385V45.6894V53.4403V61.1911V68.942V76.6929V84.4947H376.782H384.52H392.257V76.6929V68.942V61.1911V53.4403V45.6894V37.9385H399.994H407.731H415.468V45.6894H423.257V53.4403V61.1911V68.942V76.6929V84.4947H430.994H438.731H446.468V76.6929V68.942V61.1911V53.4403V45.6894V37.9385V30.1876H438.731V22.3857Z" fill="#4DABDF"/>
<path d="M531.629 37.9385H523.891V30.1876H516.154V22.4367H508.417V14.6859H492.943V22.4367H485.205V30.1876H477.468V37.9385H469.731V45.6894H461.994V84.4947H539.417V45.6894H531.68V37.9385H531.629ZM508.417 76.6929H485.205V53.4403H492.943V45.6894H508.417V53.4403H516.154V76.6929H508.417Z" fill="#4DABDF"/>
<path d="M632.314 22.3857H624.577V14.6349H616.84H609.103H601.365H593.577H585.84H578.103H570.366V22.3857H562.628V30.1876H554.891V37.9385V45.6894V53.4403V61.1911V68.942H562.628V76.6929H570.366V84.4947H578.103H585.84H593.577H601.365H609.103H616.84H624.577H632.314H640.052V76.6929H632.314V68.942H624.577V61.1911H616.84H609.103H601.365H593.577H585.84V53.4403H578.103V45.6894H585.84V37.9385H593.577H601.365H609.103V45.6894H616.84V53.4403H624.577H632.314H640.052V45.6894V37.9385V30.1876H632.314V22.3857Z" fill="#4DABDF"/>
<path d="M725.263 14.6349H717.526H709.737V22.3857V30.1876V37.9385V45.6894V53.4403V61.1911H702H694.263H686.526H678.789V53.4403V45.6894V37.9385V30.1876V22.3857V14.6349H671.051H663.314H655.577V22.3857V30.1876V37.9385V45.6894V53.4403V61.1911V68.942V76.6929V84.4947H663.314H671.051H678.789H686.526H694.263H702H709.737H717.526H725.263H733V76.6929V68.942V61.1911V53.4403V45.6894V37.9385V30.1876V22.3857V14.6349H725.263Z" fill="#4DABDF"/>
<path d="M426.871 14.6349V11.1674H423.409V14.6349H419.337V11.1674H415.468V7.69989H411.549V4.23239H404.677V7.69989H394.344V11.1674H387.879V7.69989H381.007V11.1674H376.681V14.6349H368.994V18.5103H376.681V22.3858H380.549V26.2612H372.863V22.3858H368.994V26.2612H372.812V30.1366H376.681V34.0121H380.549V30.1366H392.155V26.2612H396.024V22.3858H392.155V18.5103H396.024V22.3858H399.892V18.5103H403.761V22.3858H399.892V26.2612H407.629V30.1366H411.498V26.2612H415.367V30.1366H423.104V26.2612H426.972V22.3858H430.841V14.6349H426.769H426.871ZM415.468 18.5103H419.337V22.3858H415.468V18.5103Z" fill="white"/>
<path d="M430.943 26.3122H427.074V30.1876H430.943V26.3122Z" fill="white"/>
<path d="M438.731 30.1876V22.4368H430.994V34.0631H434.862V41.8139H438.731V37.9385H442.6V34.0631H446.468V30.1876H438.731ZM434.862 30.1876H438.731V34.0631H434.862V30.1876Z" fill="white"/>
<path d="M427.074 30.1876H423.206V34.0631H427.074V30.1876Z" fill="white"/>
<path d="M419.337 37.9385H415.468V41.8139H419.337V37.9385Z" fill="white"/>
<path d="M399.994 30.1876V34.0631H403.863H407.731V30.1876H403.863H399.994Z" fill="white"/>
<path d="M399.943 26.3122H396.075V30.1876H399.943V26.3122Z" fill="white"/>
<path d="M392.206 34.0631H388.337V37.9385H392.206V34.0631Z" fill="white"/>
<path d="M388.337 37.9385H384.469V41.8139H388.337V37.9385Z" fill="white"/>
<path d="M554.891 30.1366V34.0121H558.76H562.628V30.1366H558.76H554.891Z" fill="white"/>
<path d="M616.84 34.0631H612.971V37.9385H616.84V41.8139H620.708H624.577V37.9385V34.0631H620.708H616.84Z" fill="white"/>
<path d="M632.314 30.1876V34.0631V37.9385H636.183V41.8139H640.052V37.9385V34.0631V30.1876H636.183H632.314Z" fill="white"/>
<path d="M636.183 41.8139H632.314V45.6894H636.183V41.8139Z" fill="white"/>
<path d="M570.366 26.3122V22.4368H566.497H562.628V26.3122V30.1876H566.497V34.0631V37.9385H570.366V34.0631H574.234V30.1876H570.366V26.3122Z" fill="white"/>
<path d="M628.446 30.1876H624.577V34.0631H628.446V30.1876Z" fill="white"/>
<path d="M632.314 22.3858H624.577V14.6349H620.658V7.75088H616.331V4.28339H612.869V7.75088H603.911V4.28339H593.577V7.75088H583.244V11.2184H577.95V14.6859H570.264V18.5613H577.95V22.4368H585.687V26.3122H589.556V30.1876H593.425V26.3122H597.293V22.4368H593.425V18.5613H597.293V22.4368H601.162V18.5613H612.768V22.4368H601.162V26.3122H608.899V30.1876H612.768V26.3122H616.636V30.1876H624.373V26.3122H628.242V30.1876H632.111V22.3858H632.314ZM616.84 18.5103H620.708V22.3858H616.84V18.5103Z" fill="white"/>
<path d="M632.314 37.9385H628.446V41.8139H632.314V37.9385Z" fill="white"/>
<path d="M601.315 30.1876V34.0631H605.183H609.052V30.1876H605.183H601.315Z" fill="white"/>
<path d="M601.315 26.3122H597.446V30.1876H601.315V26.3122Z" fill="white"/>
<path d="M578.052 22.4368H574.183V26.3122H578.052V22.4368Z" fill="white"/>
<path d="M520.023 30.1876H516.154V25.8532H519.565V22.4367V15.5527H512.693V19.0202H508.417V14.6859H503.683V11.2184H500.222V7.75087H496.76V14.6349H492.892V22.3857H485.154V30.1366H477.417V37.8875H473.549V41.7629V45.6384H477.417V41.7629H481.286V45.6384H485.154V41.7629H489.023V37.8875H492.892V34.0121H500.629V30.1366V26.2612H496.76V30.1366V22.3857H500.629V14.6349V26.2612H504.497V41.7629H508.366V37.8875H512.235V34.0121H516.103V37.8875H519.972V41.7629H523.84V30.1366H519.972L520.023 30.1876ZM492.943 26.3122V30.1876H489.074V26.3122H492.943ZM485.205 37.9385V34.0631H489.074V37.9385H485.205ZM508.417 34.0631V30.1876H512.286V34.0631H508.417Z" fill="white"/>
<path d="M531.629 37.9385H527.76V41.8139H531.629V37.9385Z" fill="white"/>
<path d="M500.68 37.9385H496.811V41.8139H500.68V37.9385Z" fill="white"/>
<path d="M473.549 37.9385H469.68V41.8139H473.549V37.9385Z" fill="white"/>
<path d="M671.051 22.4367V14.6859H655.577V22.4367H659.445V26.3122H655.577V30.1876H659.445V26.3122H663.314V34.0631H667.183V26.3122H671.051V22.4367ZM659.445 22.4367V18.5613H663.314V22.4367H659.445Z" fill="white"/>
<path d="M674.92 14.6349H671.051V18.5103V22.4367V26.3122H674.92V30.1876H671.051V34.0631H674.92V30.1876H678.789V26.3122V22.4367V18.5103V14.6349H674.92Z" fill="white"/>
<path d="M729.131 14.6349H725.263V18.5103H729.131H733V14.6349H729.131Z" fill="white"/>
<path d="M671.051 26.3122H667.183V30.1876H671.051V26.3122Z" fill="white"/>
<path d="M659.445 30.1876H655.577V34.0631H659.445V30.1876Z" fill="white"/>
<path d="M663.314 34.0631H659.445V37.9385H663.314V34.0631Z" fill="white"/>
<path d="M717.526 18.5103H721.343H725.263V14.6349H721.343H717.475H713.657H713.606H709.737V18.5103H713.606V18.5613H709.737V22.4367V26.3122V30.1876H713.606V26.3122V22.4367H717.526V18.5103Z" fill="white"/>
<path d="M729.131 18.5613H725.263H721.394H717.526V22.4367H721.394V26.3122H717.526V30.1876H721.394V26.3122H725.263V30.1876H729.131V26.3122H725.263V22.4367H729.131V26.3122H733V22.4367H729.131V18.5613Z" fill="white"/>
<path d="M729.131 30.1876H725.263V34.0631H729.131V30.1876Z" fill="white"/>
<path d="M717.475 22.4368H713.606V26.3122H717.475V22.4368Z" fill="white"/>
<path d="M725.212 30.1876H721.343V34.0631H725.212V30.1876Z" fill="white"/>
<path d="M674.92 14.6349V10.7594V6.884H671.051H670.186V3.4675H666.725V0H663.314V3.4675V6.884H659.445V10.7594H655.577V14.6349H659.445H663.314H667.183V10.7594V6.884V10.7594V14.6349H671.051H674.92Z" fill="white"/>
<path d="M717.526 14.6349H721.394H725.263V10.7594V6.884H721.394H717.475V10.7594H713.657V14.6349H717.475H717.526Z" fill="white"/>
<path d="M729.131 6.884V10.7594H725.263V14.6349H729.131H733V10.7594V6.884H729.131Z" fill="white"/>
<path d="M10.4351 24.9864H6.97369V28.4539H10.4351V24.9864Z" fill="white"/>
<path d="M13.8455 28.4539H10.3842V31.9214H13.8455V28.4539Z" fill="white"/>
<path d="M27.5893 28.4539V31.8704H31.0507H34.4612V28.4539H31.0507H27.5893Z" fill="white"/>
<path d="M37.9226 24.9864H34.4612V28.4539H37.9226V24.9864Z" fill="white"/>
<path d="M69.6859 26.7201H66.2754V30.1876V33.6041V37.0716H69.6859V33.6041H73.1473V30.1876H69.6859V26.7201Z" fill="white"/>
<path d="M58.4873 14.6349H58.0801V7.75088H41.3331V4.28339H30.9998V7.75088H20.6665V11.2184H13.7947V7.75088H10.3333V11.2184H3.10507V14.6859H0.101807V18.1534H3.5632V21.6209H10.4351V25.0884H13.8965V28.5559H20.7683V25.0884H24.2297V28.5559H27.6911V25.0884H34.563V21.6209H31.1016V18.1534H34.563V21.6209H38.0244V18.1534H41.4858V21.6209H38.0244V25.0884H41.4858V28.5559H48.3576V25.0884H51.819V21.6209H55.2804V18.1534H62.1014V14.6859H58.64L58.4873 14.6349ZM17.256 21.5189V18.0514H20.7174V21.5189H17.256Z" fill="white"/>
<path d="M289.84 24.6294H286.532V27.944H289.84V24.6294Z" fill="white"/>
<path d="M278.795 22.3858V25.7513V29.0658H282.103V25.7513H285.412V22.3858H282.103H278.795Z" fill="white"/>
<path d="M293.149 27.944H289.84V31.2585H293.149V27.944Z" fill="white"/>
<path d="M271.057 30.1876V33.5021H274.366H277.675V30.1876H274.366H271.057Z" fill="white"/>
<path d="M306.435 27.944V31.2585H309.743H313.103V27.944H309.743H306.435Z" fill="white"/>
<path d="M316.412 24.6294H313.103V27.944H316.412V24.6294Z" fill="white"/>
<path d="M333.006 21.3149V14.6859H328.374V11.2184H323.742V7.75089H320.28V11.2184H315.954V7.75089H302.21V11.2184H297.374V14.6859H293.302V11.2184H289.84V14.6859H286.532V21.3149H289.84V24.6294H293.149V27.944H299.766V24.6294H303.075V27.944H306.384V24.6294H313.001V21.3149H309.693V18.0004H313.001V21.3149H316.31V18.0004H319.619V21.3149H316.31V24.6294H319.619V27.944H326.236V24.6294H332.853V21.3149H333.006ZM296.509 21.3149V18.0004H299.817V21.3149H296.509Z" fill="white"/>
<path d="M337.435 25.7513H340.743V22.3858H337.435H334.075V25.7513V29.0658H337.435V25.7513Z" fill="white"/>
<path d="M348.48 36.8167H345.172V40.1312H348.48V36.8167Z" fill="white"/>
<path d="M345.172 30.1876H341.863H338.503V33.5021H335.195H331.886V36.8167H335.195V40.1312H338.503V36.8167H341.863V33.5021H345.172H348.48V30.1876H345.172Z" fill="white"/>
<path d="M158.766 14.6349H154.948V11.1674H151.029V7.69989H143.088V4.23239H139.626V7.69989H127.715V4.23239H120.843V7.69989H110.51V11.1674H104.045V7.69989H97.1734V11.1674H92.8467V18.5103H96.7153V22.3858H92.8467V26.2612H96.7153V30.1366H100.584V34.0121H112.19V30.1366H116.058V26.2612H119.927V30.1366H123.796V34.0121H131.533V30.1366H127.664V26.2612H123.796V22.3858H119.927V18.5103H123.796V22.3858H127.664V18.5103H131.533V22.3858H127.664V26.2612H131.533V30.1366H135.401V26.2612H139.27V30.1366H147.007V26.2612H150.876V22.3858H154.744V18.5103H162.431V14.6349H158.562H158.766ZM104.554 30.1876V26.3122H100.686V22.4368H104.554V26.3122H108.423V30.1876H104.554ZM116.16 22.4368H112.292V18.5613H116.16V22.4368ZM135.554 22.4368V18.5613H139.423V22.4368H135.554Z" fill="white"/>
<path d="M251.663 30.1876H247.795V34.0631H251.663V30.1876Z" fill="white"/>
<path d="M247.795 22.4368H243.468V18.9693H240.007V14.6349H193.583V18.5103H197.401V22.3858H185.795V30.1366H178.058V34.0121H185.795V37.8875H189.664V34.0121H193.532V30.1366H197.401H201.27V26.2612H197.401V22.3858H201.27V26.2612H205.138V22.3858H209.007V26.2612H212.875V30.1366H216.744V26.2612H220.613V22.3858H216.744V18.5103H220.613V22.3858H224.481V18.5103H236.087V22.3858H224.481V26.2612H232.218V30.1366H236.087V26.2612H239.956V30.1366H247.693V22.3858L247.795 22.4368ZM185.846 34.0631V30.1876H189.715V34.0631H185.846ZM197.452 26.3122H193.583V30.1876H189.715V26.3122H197.452Z" fill="white"/>
<path d="M224.583 30.1876V34.0631H228.452H232.32V30.1876H228.452H224.583Z" fill="white"/>
<path d="M205.189 30.1876H201.32V34.0631H205.189V30.1876Z" fill="white"/>
<path d="M224.532 26.3122H220.664V30.1876H224.532V26.3122Z" fill="white"/>
<path d="M236.189 11.2184H224.125V7.75089H220.664V11.2184H216.337V7.75089H212.926H209.516V11.2184H205.189V14.6349H236.189V11.2184Z" fill="white"/>
<path d="M193.634 18.5613H185.846V22.4367H193.634V18.5613Z" fill="white"/>
<path d="M201.117 11.2184H197.655V14.6859H201.117V11.2184Z" fill="white"/>
<path d="M430.994 84.4947H423.257V92.2456V99.9965H415.468V107.747H407.731H399.994H392.257V99.9965V92.2456V84.4947H384.52H376.782H369.045V99.9965V107.747V115.498V123.249V131H376.782H384.52H392.257H399.994H407.731H415.468H423.257H430.994V123.249H438.731V115.498H446.468V107.747V99.9965V92.2456V84.4947H438.731H430.994Z" fill="#2697E2"/>
<path d="M523.891 84.4947H516.154H508.417H500.68H492.943H485.205H477.417H469.68H461.943V92.2456V99.9965V107.747V115.498V123.249V131H469.68H477.417H485.205V123.249V115.498V107.747V99.9965H492.943H500.68H508.417H516.154V107.747V115.498V123.249V131H523.891H531.629H539.417V123.249V115.498V107.747V99.9965V92.2456V84.4947H531.629H523.891Z" fill="#2697E2"/>
<path d="M624.577 84.4947H616.84H609.103V92.2456H616.84V99.9965H609.103V107.747H601.365H593.577H585.84V99.9965H578.103V92.2456H570.366H562.628H554.891V99.9965V107.747V115.498H562.628V123.249H570.366V131H578.103H585.84H593.577H601.365H609.103H616.84H624.577V123.249H632.314V115.498H640.052V107.747V99.9965V92.2456V84.4947H632.314H624.577Z" fill="#2697E2"/>
<path d="M663.314 84.4947H655.577V92.2456V99.9965V107.747V115.498V123.249V131H663.314H671.051H678.789V123.249V115.498V107.747V99.9965V92.2456V84.4947H671.051H663.314Z" fill="#2697E2"/>
<path d="M725.263 84.4947H717.526H709.737V92.2456V99.9965V107.747V115.498V123.249V131H717.526H725.263H733V123.249V115.498V107.747V99.9965V92.2456V84.4947H725.263Z" fill="#2697E2"/>
<path d="M61.9487 84.4947H54.2115V92.2456V99.9965H46.4742V107.747H38.737H30.9998H23.2117V99.9965V92.2456V84.4947H15.4744H7.73722H0V92.2456V99.9965V107.747V115.498V123.249V131H7.73722H15.4744H23.2117H30.9998H38.737H46.4742H54.2115H61.9487V123.249H69.6859V115.498H77.4231V107.747V99.9965V92.2456V84.4947H69.6859H61.9487Z" fill="#F82B53"/>
<path d="M147.16 107.747H139.372H131.635H123.897H116.16V99.9965V92.2456V84.4947H108.423H100.686H92.9485V92.2456V99.9965V107.747V115.498V123.249V131H100.686H108.423H116.16H123.897H131.635H139.372H147.16H154.897H162.634V123.249V115.498V107.747H154.897H147.16Z" fill="#F82B53"/>
<path d="M240.058 92.2456H232.32V99.9965H224.583V107.747H216.846H209.109V99.9965H201.32V92.2456V84.4947H193.583H185.846H178.109V92.2456V99.9965V107.747V115.498H185.846V123.249H193.583V131H201.32H209.109H216.846H224.583H232.32H240.058V123.249H247.795V115.498H255.532V107.747V99.9965V92.2456H247.795H240.058Z" fill="#F82B53"/>
<path d="M340.743 84.4947H333.006H325.269V92.2456V99.9965H317.481V107.747H309.743H302.006V99.9965H294.269V92.2456V84.4947H286.532H278.795H271.057V92.2456V99.9965V107.747V115.498H278.795V123.249H286.532V131H294.269H302.006H309.743H317.481H325.269H333.006V123.249H340.743V115.498H348.48V107.747V99.9965V92.2456V84.4947H340.743Z" fill="#F82B53"/>
</g>
<defs>
<clipPath id="clip0_3_4116">
<rect width="733" height="131" fill="white"/>
</clipPath>
</defs>
</svg>
