<?xml version="1.0" encoding="UTF-8"?>
<svg xmlns="http://www.w3.org/2000/svg" version="1.1" viewBox="0 0 200 200">
  <defs>
    <style>
      .cls-1 {
        fill: #cad2d5;
      }

      .cls-2 {
        fill: #fff;
      }

      .cls-3 {
        fill: #1a1a1a;
      }
    </style>
  </defs>
  <!-- Generator: Adobe Illustrator 28.7.1, SVG Export Plug-In . SVG Version: 1.2.0 Build 142)  -->
  <g>
    <g id="_x5F_title-cta">
      <g>
        <g>
          <path class="cls-1" d="M124.1,96.6v-6.9s-6.9,0-6.9,0v-6.9s-6.9,0-6.9,0v-6.9s-6.9,0-6.9,0v-34.4c0,0-6.8,0-6.8,0v34.4c0,0-6.9,0-6.9,0v6.9s-6.9,0-6.9,0v6.9s-6.9,0-6.9,0v6.9s-34.5,0-34.5,0v6.9s34.4,0,34.4,0v6.9s6.9,0,6.9,0v6.9s6.9,0,6.9,0v6.9s6.9,0,6.9,0v34.4c0,0,6.8,0,6.8,0v-34.4c0,0,6.9,0,6.9,0v-6.9s6.9,0,6.9,0v-6.9s6.9,0,6.9,0v-6.9s34.5,0,34.5,0v-6.9s-34.4,0-34.4,0ZM110.3,103.5v6.9s-6.9,0-6.9,0v6.9s-6.9,0-6.9,0v-6.9s-6.9,0-6.9,0v-6.9s-6.9,0-6.9,0v-6.9s6.9,0,6.9,0v-6.9s6.9,0,6.9,0v-6.9s6.9,0,6.9,0v6.9s6.9,0,6.9,0v6.9s6.9,0,6.9,0v6.9s-6.9,0-6.9,0Z"/>
          <polygon class="cls-1" points="103.5 34.6 103.5 41.4 110.4 41.5 110.4 34.6 117.3 34.6 117.3 27.7 103.6 27.7 103.6 7 96.7 7 96.7 27.7 82.9 27.6 82.9 34.5 89.8 34.5 89.8 41.4 96.6 41.4 96.7 34.5 103.5 34.6"/>
          <rect class="cls-1" x="76" y="20.7" width="6.9" height="6.9" transform="translate(55.1 103.6) rotate(-89.9)"/>
          <rect class="cls-1" x="117.3" y="20.8" width="6.9" height="6.9" transform="translate(96.3 145) rotate(-89.9)"/>
          <polygon class="cls-1" points="96.5 165.4 96.5 158.6 89.6 158.5 89.6 165.4 82.7 165.4 82.7 172.3 96.4 172.3 96.4 193 103.3 193 103.3 172.3 117.1 172.4 117.1 165.5 110.2 165.5 110.2 158.6 103.4 158.6 103.3 165.5 96.5 165.4"/>
          <rect class="cls-1" x="75.8" y="172.3" width="6.9" height="6.9" transform="translate(-96.7 254.7) rotate(-89.9)"/>
          <rect class="cls-1" x="117.1" y="172.4" width="6.9" height="6.9" transform="translate(-55.5 296.1) rotate(-89.9)"/>
          <polygon class="cls-1" points="34.6 96.5 41.4 96.5 41.5 89.6 34.6 89.6 34.6 82.7 27.7 82.7 27.7 96.4 7 96.4 7 103.3 27.7 103.3 27.6 117.1 34.5 117.1 34.5 110.2 41.4 110.2 41.4 103.4 34.5 103.3 34.6 96.5"/>
          <rect class="cls-1" x="20.7" y="117.1" width="6.9" height="6.9" transform="translate(-96.4 144.5) rotate(-89.9)"/>
          <rect class="cls-1" x="20.8" y="75.8" width="6.9" height="6.9" transform="translate(-55 103.3) rotate(-89.9)"/>
          <polygon class="cls-1" points="193 103.6 193 96.7 172.3 96.7 172.4 82.9 165.5 82.9 165.5 89.8 158.6 89.8 158.6 96.6 165.5 96.7 165.4 103.5 158.6 103.5 158.5 110.4 165.4 110.4 165.4 117.3 172.3 117.3 172.3 103.6 193 103.6"/>
          <rect class="cls-1" x="172.3" y="117.3" width="6.9" height="6.9" transform="translate(54.7 296.3) rotate(-89.9)"/>
          <rect class="cls-1" x="172.4" y="76" width="6.9" height="6.9" transform="translate(96.1 255.1) rotate(-89.9)"/>
          <path class="cls-1" d="M41.5,34.5v6.9s-6.9,0-6.9,0v6.9s13.8,0,13.8,0c0-3.4,0-10.3,0-13.8h-6.9Z"/>
          <rect class="cls-1" x="48.4" y="48.3" width="6.9" height="6.9" transform="translate(0 103.5) rotate(-89.9)"/>
          <rect class="cls-1" x="55.3" y="55.2" width="6.9" height="6.9" transform="translate(0 117.2) rotate(-89.9)"/>
          <rect class="cls-1" x="75.9" y="75.9" width="6.9" height="6.9" transform="translate(0 158.5) rotate(-89.9)"/>
          <path class="cls-1" d="M69.1,55.2v6.9s-6.9,0-6.9,0v6.9s-6.9,0-6.9,0v6.9s20.7,0,20.7,0c0-4.4,0-16.1,0-20.7h-6.9Z"/>
          <path class="cls-1" d="M165.5,41.5h-6.9s0-6.9,0-6.9h-6.9c0,3.4,0,10.3,0,13.8h13.8s0-6.9,0-6.9Z"/>
          <rect class="cls-1" x="144.9" y="48.4" width="6.9" height="6.9" transform="translate(96.2 200.1) rotate(-89.9)"/>
          <rect class="cls-1" x="138" y="55.3" width="6.9" height="6.9" transform="translate(82.4 200) rotate(-89.9)"/>
          <rect class="cls-1" x="117.3" y="75.9" width="6.9" height="6.9" transform="translate(41.1 199.9) rotate(-89.9)"/>
          <path class="cls-1" d="M144.8,69.1h-6.9s0-6.9,0-6.9h-6.9s0-6.9,0-6.9h-6.9c0,4.5,0,16.3,0,20.7h20.7s0-6.9,0-6.9Z"/>
          <path class="cls-1" d="M34.5,158.5h6.9s0,6.9,0,6.9h6.9c0-3.4,0-10.3,0-13.8h-13.8s0,6.9,0,6.9Z"/>
          <rect class="cls-1" x="48.3" y="144.7" width="6.9" height="6.9" transform="translate(-96.5 199.6) rotate(-89.9)"/>
          <rect class="cls-1" x="55.2" y="137.8" width="6.9" height="6.9" transform="translate(-82.8 199.6) rotate(-89.9)"/>
          <rect class="cls-1" x="75.9" y="117.2" width="6.9" height="6.9" transform="translate(-41.5 199.7) rotate(-89.9)"/>
          <path class="cls-1" d="M55.2,130.9h6.9s0,6.9,0,6.9h6.9s0,6.9,0,6.9h6.9c0-4.5,0-16.3,0-20.7h-20.7s0,6.9,0,6.9Z"/>
          <path class="cls-1" d="M158.5,165.5v-6.9s6.9,0,6.9,0v-6.9s-13.8,0-13.8,0c0,3.4,0,10.3,0,13.8h6.9Z"/>
          <rect class="cls-1" x="144.7" y="144.9" width="6.9" height="6.9" transform="translate(-.4 296.2) rotate(-89.9)"/>
          <rect class="cls-1" x="137.8" y="138" width="6.9" height="6.9" transform="translate(-.4 282.4) rotate(-89.9)"/>
          <rect class="cls-1" x="117.2" y="117.3" width="6.9" height="6.9" transform="translate(-.3 241.1) rotate(-89.9)"/>
          <path class="cls-1" d="M130.9,144.8v-6.9s6.9,0,6.9,0v-6.9s6.9,0,6.9,0v-6.9s-20.7,0-20.7,0c0,4.4,0,16.1,0,20.7h6.9Z"/>
        </g>
        <g>
          <rect class="cls-2" x="82.8" y="82.8" width="6.9" height="6.9" transform="translate(0 172.3) rotate(-89.9)"/>
          <rect class="cls-2" x="110.4" y="82.8" width="6.9" height="6.9" transform="translate(27.4 199.9) rotate(-89.9)"/>
          <rect class="cls-2" x="82.8" y="110.3" width="6.9" height="6.9" transform="translate(-27.7 199.8) rotate(-89.9)"/>
          <rect class="cls-2" x="110.3" y="110.4" width="6.9" height="6.9" transform="translate(-.2 227.4) rotate(-89.9)"/>
          <rect class="cls-2" x="96.5" y="117.2" width="6.9" height="6.9" transform="translate(-20.9 220.4) rotate(-89.9)"/>
          <rect class="cls-2" x="75.9" y="96.5" width="6.9" height="6.9" transform="translate(-20.8 179.1) rotate(-89.9)"/>
          <rect class="cls-2" x="96.6" y="75.9" width="6.9" height="6.9" transform="translate(20.5 179.2) rotate(-89.9)"/>
          <rect class="cls-2" x="117.2" y="96.6" width="6.9" height="6.9" transform="translate(20.4 220.5) rotate(-89.9)"/>
          <rect class="cls-2" x="17.3" y="86.1" width="6.9" height="27.6" transform="translate(-79.1 120.5) rotate(-89.9)"/>
          <rect class="cls-2" x="20.8" y="75.8" width="6.9" height="6.9" transform="translate(-55 103.3) rotate(-89.9)"/>
          <rect class="cls-2" x="27.7" y="82.7" width="6.9" height="6.9" transform="translate(-55 117.1) rotate(-89.9)"/>
          <rect class="cls-2" x="20.7" y="117.1" width="6.9" height="6.9" transform="translate(-96.4 144.5) rotate(-89.9)"/>
          <rect class="cls-2" x="27.6" y="110.2" width="6.9" height="6.9" transform="translate(-82.6 144.6) rotate(-89.9)"/>
          <rect class="cls-2" x="34.5" y="103.3" width="6.9" height="6.9" transform="translate(-68.9 144.6) rotate(-89.9)"/>
          <rect class="cls-2" x="34.6" y="89.6" width="6.9" height="6.9" transform="translate(-55.1 130.9) rotate(-89.9)"/>
          <rect class="cls-2" x="175.8" y="86.3" width="6.9" height="27.6" transform="translate(78.8 279.2) rotate(-89.9)"/>
          <rect class="cls-2" x="172.4" y="76" width="6.9" height="6.9" transform="translate(96.1 255.1) rotate(-89.9)"/>
          <rect class="cls-2" x="165.5" y="82.9" width="6.9" height="6.9" transform="translate(82.3 255.1) rotate(-89.9)"/>
          <rect class="cls-2" x="172.3" y="117.3" width="6.9" height="6.9" transform="translate(54.7 296.3) rotate(-89.9)"/>
          <rect class="cls-2" x="165.4" y="110.4" width="6.9" height="6.9" transform="translate(54.7 282.6) rotate(-89.9)"/>
          <rect class="cls-2" x="158.5" y="103.5" width="6.9" height="6.9" transform="translate(54.7 268.8) rotate(-89.9)"/>
          <rect class="cls-2" x="158.6" y="89.8" width="6.9" height="6.9" transform="translate(68.5 255.1) rotate(-89.9)"/>
          <rect class="cls-2" x="34.6" y="41.3" width="6.9" height="6.9" transform="translate(-6.8 82.8) rotate(-89.9)"/>
          <rect class="cls-2" x="55.3" y="68.9" width="6.9" height="6.9" transform="translate(-13.8 131) rotate(-89.9)"/>
          <rect class="cls-2" x="62.2" y="62.1" width="6.9" height="6.9" transform="translate(0 131) rotate(-89.9)"/>
          <rect class="cls-2" x="69" y="69" width="6.9" height="6.9" transform="translate(0 144.8) rotate(-89.9)"/>
          <rect class="cls-2" x="124.2" y="69" width="6.9" height="6.9" transform="translate(54.9 200) rotate(-89.9)"/>
          <rect class="cls-2" x="69" y="124.1" width="6.9" height="6.9" transform="translate(-55.2 199.7) rotate(-89.9)"/>
          <rect class="cls-2" x="124.1" y="124.2" width="6.9" height="6.9" transform="translate(-.3 254.9) rotate(-89.9)"/>
          <rect class="cls-2" x="69.1" y="55.2" width="6.9" height="6.9" transform="translate(13.8 131) rotate(-89.9)"/>
          <rect class="cls-2" x="41.5" y="34.5" width="6.9" height="6.9" transform="translate(7 82.8) rotate(-89.9)"/>
          <rect class="cls-2" x="158.6" y="41.5" width="6.9" height="6.9" transform="translate(116.8 207) rotate(-89.9)"/>
          <rect class="cls-2" x="137.9" y="69.1" width="6.9" height="6.9" transform="translate(68.6 213.8) rotate(-89.9)"/>
          <rect class="cls-2" x="131.1" y="62.2" width="6.9" height="6.9" transform="translate(68.7 200) rotate(-89.9)"/>
          <rect class="cls-2" x="124.2" y="55.3" width="6.9" height="6.9" transform="translate(68.7 186.2) rotate(-89.9)"/>
          <rect class="cls-2" x="151.8" y="34.6" width="6.9" height="6.9" transform="translate(116.9 193.2) rotate(-89.9)"/>
          <rect class="cls-2" x="34.5" y="151.6" width="6.9" height="6.9" transform="translate(-117.2 192.7) rotate(-89.9)"/>
          <rect class="cls-2" x="55.2" y="124" width="6.9" height="6.9" transform="translate(-69 185.9) rotate(-89.9)"/>
          <rect class="cls-2" x="62.1" y="130.9" width="6.9" height="6.9" transform="translate(-69 199.7) rotate(-89.9)"/>
          <rect class="cls-2" x="68.9" y="137.8" width="6.9" height="6.9" transform="translate(-69 213.4) rotate(-89.9)"/>
          <rect class="cls-2" x="41.3" y="158.5" width="6.9" height="6.9" transform="translate(-117.2 206.4) rotate(-89.9)"/>
          <rect class="cls-2" x="158.5" y="151.8" width="6.9" height="6.9" transform="translate(6.4 316.9) rotate(-89.9)"/>
          <rect class="cls-2" x="137.8" y="124.2" width="6.9" height="6.9" transform="translate(13.4 268.7) rotate(-89.9)"/>
          <rect class="cls-2" x="130.9" y="131.1" width="6.9" height="6.9" transform="translate(-.3 268.7) rotate(-89.9)"/>
          <rect class="cls-2" x="124" y="137.9" width="6.9" height="6.9" transform="translate(-14.1 268.6) rotate(-89.9)"/>
          <rect class="cls-2" x="151.6" y="158.6" width="6.9" height="6.9" transform="translate(-7.3 316.8) rotate(-89.9)"/>
          <rect class="cls-2" x="86.3" y="17.3" width="27.6" height="6.9" transform="translate(79.2 120.9) rotate(-89.9)"/>
          <rect class="cls-2" x="117.3" y="20.8" width="6.9" height="6.9" transform="translate(96.3 145) rotate(-89.9)"/>
          <rect class="cls-2" x="110.4" y="27.7" width="6.9" height="6.9" transform="translate(82.6 145) rotate(-89.9)"/>
          <rect class="cls-2" x="76" y="20.7" width="6.9" height="6.9" transform="translate(55.1 103.6) rotate(-89.9)"/>
          <rect class="cls-2" x="82.9" y="27.6" width="6.9" height="6.9" transform="translate(55.1 117.4) rotate(-89.9)"/>
          <rect class="cls-2" x="89.8" y="34.5" width="6.9" height="6.9" transform="translate(55.1 131.1) rotate(-89.9)"/>
          <rect class="cls-2" x="103.5" y="34.6" width="6.9" height="6.9" transform="translate(68.8 144.9) rotate(-89.9)"/>
          <rect class="cls-2" x="86.1" y="175.8" width="27.6" height="6.9" transform="translate(-79.5 278.8) rotate(-89.9)"/>
          <rect class="cls-2" x="117.1" y="172.4" width="6.9" height="6.9" transform="translate(-55.5 296.1) rotate(-89.9)"/>
          <rect class="cls-2" x="110.2" y="165.5" width="6.9" height="6.9" transform="translate(-55.4 282.3) rotate(-89.9)"/>
          <rect class="cls-2" x="75.8" y="172.3" width="6.9" height="6.9" transform="translate(-96.7 254.7) rotate(-89.9)"/>
          <rect class="cls-2" x="82.7" y="165.4" width="6.9" height="6.9" transform="translate(-82.9 254.7) rotate(-89.9)"/>
          <rect class="cls-2" x="89.6" y="158.5" width="6.9" height="6.9" transform="translate(-69.1 254.7) rotate(-89.9)"/>
          <rect class="cls-2" x="103.3" y="158.6" width="6.9" height="6.9" transform="translate(-55.4 268.5) rotate(-89.9)"/>
        </g>
        <rect class="cls-2" x="48.3" y="96.5" width="6.9" height="6.9" transform="translate(-48.2 151.5) rotate(-89.9)"/>
        <rect class="cls-2" x="62.1" y="96.5" width="6.9" height="6.9" transform="translate(-34.5 165.3) rotate(-89.9)"/>
        <rect class="cls-2" x="131" y="96.6" width="6.9" height="6.9" transform="translate(34.2 234.3) rotate(-89.9)"/>
        <rect class="cls-2" x="144.8" y="96.6" width="6.9" height="6.9" transform="translate(47.9 248.1) rotate(-89.9)"/>
        <rect class="cls-2" x="96.6" y="48.3" width="6.9" height="6.9" transform="translate(48.1 151.8) rotate(-89.9)"/>
        <rect class="cls-2" x="96.6" y="62.1" width="6.9" height="6.9" transform="translate(34.3 165.5) rotate(-89.9)"/>
        <rect class="cls-2" x="96.5" y="131" width="6.9" height="6.9" transform="translate(-34.7 234.2) rotate(-89.9)"/>
        <rect class="cls-2" x="96.5" y="144.8" width="6.9" height="6.9" transform="translate(-48.5 247.9) rotate(-89.9)"/>
        <g>
          <rect class="cls-3" x="96.6" y="82.8" width="6.9" height="6.9" transform="translate(13.6 186.1) rotate(-89.9)"/>
          <rect class="cls-3" x="96.7" y="34.6" width="6.9" height="6.9" transform="translate(61.9 138) rotate(-89.9)"/>
          <rect class="cls-3" x="82.8" y="96.5" width="6.9" height="6.9" transform="translate(-13.9 186) rotate(-89.9)"/>
          <rect class="cls-3" x="34.6" y="96.5" width="6.9" height="6.9" transform="translate(-62 137.7) rotate(-89.9)"/>
          <rect class="cls-3" x="96.5" y="110.3" width="6.9" height="6.9" transform="translate(-14 213.6) rotate(-89.9)"/>
          <rect class="cls-3" x="96.5" y="158.6" width="6.9" height="6.9" transform="translate(-62.3 261.6) rotate(-89.9)"/>
          <rect class="cls-3" x="89.7" y="89.7" width="6.9" height="6.9" transform="translate(-.1 186.1) rotate(-89.9)"/>
          <rect class="cls-3" x="89.7" y="103.4" width="6.9" height="6.9" transform="translate(-13.9 199.8) rotate(-89.9)"/>
          <rect class="cls-3" x="103.5" y="89.7" width="6.9" height="6.9" transform="translate(13.6 199.9) rotate(-89.9)"/>
          <rect class="cls-3" x="103.4" y="103.5" width="6.9" height="6.9" transform="translate(-.2 213.6) rotate(-89.9)"/>
          <rect class="cls-3" x="110.3" y="96.6" width="6.9" height="6.9" transform="translate(13.6 213.6) rotate(-89.9)"/>
          <rect class="cls-3" x="158.6" y="96.7" width="6.9" height="6.9" transform="translate(61.6 261.9) rotate(-89.9)"/>
          <path class="cls-3" d="M96.6,69v-27.6s-6.8,0-6.8,0c0,5.1,0,29.9,0,34.4h6.9s0-6.9,0-6.9Z"/>
          <path class="cls-3" d="M69,103.4h-27.6s0,6.8,0,6.8c5.1,0,29.9,0,34.4,0v-6.9s-6.9,0-6.9,0Z"/>
          <path class="cls-3" d="M158.6,96.6v-6.9c-5.1,0-29.9,0-34.4,0v6.9s34.4,0,34.4,0Z"/>
          <path class="cls-3" d="M103.4,131v27.6s6.8,0,6.8,0c0-5.1,0-29.9,0-34.4h-6.9s0,6.9,0,6.9Z"/>
          <rect class="cls-3" x="75.9" y="82.7" width="6.9" height="6.9" transform="translate(-7 165.4) rotate(-89.9)"/>
          <rect class="cls-3" x="82.8" y="75.9" width="6.9" height="6.9" transform="translate(6.8 165.4) rotate(-89.9)"/>
          <path class="cls-3" d="M41.5,48.2h-6.9s0-6.9,0-6.9h-6.9c0,3.4,0,10.3,0,13.8,6.1,0,14.5,0,20.7,0v-6.9s-6.9,0-6.9,0Z"/>
          <rect class="cls-3" x="34.7" y="34.5" width="6.9" height="6.9" transform="translate(.1 75.9) rotate(-89.9)"/>
          <rect class="cls-3" x="27.8" y="27.6" width="6.9" height="6.9" transform="translate(.2 62.2) rotate(-89.9)"/>
          <path class="cls-3" d="M48.4,41.4v6.9s6.9,0,6.9,0c0-6.1,0-14.5,0-20.7-3.4,0-10.3,0-13.8,0v6.9s6.9,0,6.9,0v6.9Z"/>
          <rect class="cls-3" x="48.4" y="55.1" width="6.9" height="6.9" transform="translate(-6.8 110.3) rotate(-89.9)"/>
          <rect class="cls-3" x="55.3" y="48.3" width="6.9" height="6.9" transform="translate(6.9 110.4) rotate(-89.9)"/>
          <rect class="cls-3" x="62.2" y="55.2" width="6.9" height="6.9" transform="translate(6.9 124.1) rotate(-89.9)"/>
          <rect class="cls-3" x="55.3" y="62" width="6.9" height="6.9" transform="translate(-6.9 124.1) rotate(-89.9)"/>
          <path class="cls-3" d="M55.3,75.8v-6.9s-6.9,0-6.9,0c0,3.4,0,10.3,0,13.8h27.6s0-6.8,0-6.8h-20.7Z"/>
          <path class="cls-3" d="M75.9,75.8h6.9s0-27.5,0-27.5c-3.4,0-10.3,0-13.8,0v6.9s6.9,0,6.9,0v20.7Z"/>
          <rect class="cls-3" x="117.2" y="82.8" width="6.9" height="6.9" transform="translate(34.2 206.8) rotate(-89.9)"/>
          <rect class="cls-3" x="110.4" y="75.9" width="6.9" height="6.9" transform="translate(34.3 193) rotate(-89.9)"/>
          <path class="cls-3" d="M151.8,41.5v-6.9s6.9,0,6.9,0v-6.9c-3.4,0-10.3,0-13.8,0,0,6.1,0,14.5,0,20.7h6.9s0-6.9,0-6.9Z"/>
          <path class="cls-3" d="M158.6,48.4h-6.9s0,6.9,0,6.9c6.1,0,14.5,0,20.7,0,0-3.4,0-10.3,0-13.8h-6.9s0,6.9,0,6.9h-6.9Z"/>
          <rect class="cls-3" x="158.7" y="34.7" width="6.9" height="6.9" transform="translate(123.7 200.1) rotate(-89.9)"/>
          <rect class="cls-3" x="165.6" y="27.8" width="6.9" height="6.9" transform="translate(137.5 200.2) rotate(-89.9)"/>
          <rect class="cls-3" x="144.8" y="55.3" width="6.9" height="6.9" transform="translate(89.3 206.9) rotate(-89.9)"/>
          <rect class="cls-3" x="138" y="48.4" width="6.9" height="6.9" transform="translate(89.3 193.2) rotate(-89.9)"/>
          <rect class="cls-3" x="131.1" y="55.3" width="6.9" height="6.9" transform="translate(75.6 193.1) rotate(-89.9)"/>
          <rect class="cls-3" x="137.9" y="62.2" width="6.9" height="6.9" transform="translate(75.5 206.9) rotate(-89.9)"/>
          <path class="cls-3" d="M124.2,75.9v6.9s27.5,0,27.5,0c0-3.4,0-10.3,0-13.8h-6.9s0,6.9,0,6.9h-20.7Z"/>
          <path class="cls-3" d="M124.2,55.3h6.9s0-6.9,0-6.9c-3.4,0-10.3,0-13.8,0v27.6s6.8,0,6.8,0v-20.7Z"/>
          <path class="cls-3" d="M103.5,69v6.9s6.9,0,6.9,0c0-4.4,0-29.5,0-34.4h-6.9s0,27.5,0,27.5Z"/>
          <rect class="cls-3" x="82.9" y="34.5" width="6.9" height="6.9" transform="translate(48.2 124.2) rotate(-89.9)"/>
          <rect class="cls-3" x="76" y="27.6" width="6.9" height="6.9" transform="translate(48.2 110.5) rotate(-89.9)"/>
          <rect class="cls-3" x="69.1" y="20.7" width="6.9" height="6.9" transform="translate(48.3 96.7) rotate(-89.9)"/>
          <rect class="cls-3" x="76" y="13.9" width="6.9" height="6.9" transform="translate(62 96.7) rotate(-89.9)"/>
          <polygon class="cls-3" points="89.8 27.6 96.7 27.7 96.7 7 89.8 7 89.8 20.8 82.9 20.7 82.9 27.6 89.8 27.6"/>
          <rect class="cls-3" x="117.4" y="13.9" width="6.9" height="6.9" transform="translate(103.2 138.1) rotate(-89.9)"/>
          <rect class="cls-3" x="124.2" y="20.8" width="6.9" height="6.9" transform="translate(103.2 151.9) rotate(-89.9)"/>
          <rect class="cls-3" x="117.3" y="27.7" width="6.9" height="6.9" transform="translate(89.4 151.9) rotate(-89.9)"/>
          <rect class="cls-3" x="110.4" y="34.6" width="6.9" height="6.9" transform="translate(75.7 151.8) rotate(-89.9)"/>
          <rect class="cls-3" x="96.7" y=".1" width="6.9" height="6.9" transform="translate(96.4 103.7) rotate(-89.9)"/>
          <polygon class="cls-3" points="110.4 27.7 117.3 27.7 117.3 20.8 110.5 20.8 110.5 7 103.6 7 103.6 27.7 110.4 27.7"/>
          <rect class="cls-3" x="75.9" y="110.3" width="6.9" height="6.9" transform="translate(-34.6 192.9) rotate(-89.9)"/>
          <rect class="cls-3" x="82.7" y="117.2" width="6.9" height="6.9" transform="translate(-34.6 206.6) rotate(-89.9)"/>
          <path class="cls-3" d="M48.2,158.5v6.9s-6.9,0-6.9,0v6.9c3.4,0,10.3,0,13.8,0,0-6.1,0-14.5,0-20.7h-6.9s0,6.9,0,6.9Z"/>
          <path class="cls-3" d="M41.4,151.6h6.9s0-6.9,0-6.9c-6.1,0-14.5,0-20.7,0,0,3.4,0,10.3,0,13.8h6.9s0-6.9,0-6.9h6.9Z"/>
          <rect class="cls-3" x="34.5" y="158.5" width="6.9" height="6.9" transform="translate(-124.1 199.5) rotate(-89.9)"/>
          <rect class="cls-3" x="27.6" y="165.3" width="6.9" height="6.9" transform="translate(-137.8 199.5) rotate(-89.9)"/>
          <rect class="cls-3" x="48.3" y="137.8" width="6.9" height="6.9" transform="translate(-89.6 192.7) rotate(-89.9)"/>
          <rect class="cls-3" x="55.1" y="144.7" width="6.9" height="6.9" transform="translate(-89.7 206.5) rotate(-89.9)"/>
          <rect class="cls-3" x="62" y="137.8" width="6.9" height="6.9" transform="translate(-75.9 206.5) rotate(-89.9)"/>
          <rect class="cls-3" x="55.2" y="130.9" width="6.9" height="6.9" transform="translate(-75.9 192.8) rotate(-89.9)"/>
          <path class="cls-3" d="M75.8,124.1v-6.9s-27.5,0-27.5,0c0,3.4,0,10.3,0,13.8h6.9s0-6.9,0-6.9h20.7Z"/>
          <path class="cls-3" d="M75.8,144.7h-6.9s0,6.9,0,6.9c3.4,0,10.3,0,13.8,0v-27.6s-6.8,0-6.8,0v20.7Z"/>
          <rect class="cls-3" x="117.2" y="110.4" width="6.9" height="6.9" transform="translate(6.6 234.3) rotate(-89.9)"/>
          <rect class="cls-3" x="110.3" y="117.2" width="6.9" height="6.9" transform="translate(-7.1 234.2) rotate(-89.9)"/>
          <path class="cls-3" d="M158.5,151.8h6.9s0,6.9,0,6.9h6.9c0-3.4,0-10.3,0-13.8-6.1,0-14.5,0-20.7,0v6.9s6.9,0,6.9,0Z"/>
          <rect class="cls-3" x="158.5" y="158.7" width="6.9" height="6.9" transform="translate(-.5 323.7) rotate(-89.9)"/>
          <rect class="cls-3" x="165.3" y="165.6" width="6.9" height="6.9" transform="translate(-.5 337.5) rotate(-89.9)"/>
          <path class="cls-3" d="M151.6,158.6v-6.9s-6.9,0-6.9,0c0,6.1,0,14.5,0,20.7,3.4,0,10.3,0,13.8,0v-6.9s-6.9,0-6.9,0v-6.9Z"/>
          <rect class="cls-3" x="144.7" y="138" width="6.9" height="6.9" transform="translate(6.5 289.3) rotate(-89.9)"/>
          <rect class="cls-3" x="137.8" y="144.8" width="6.9" height="6.9" transform="translate(-7.3 289.3) rotate(-89.9)"/>
          <rect class="cls-3" x="130.9" y="137.9" width="6.9" height="6.9" transform="translate(-7.2 275.5) rotate(-89.9)"/>
          <rect class="cls-3" x="137.8" y="131.1" width="6.9" height="6.9" transform="translate(6.5 275.6) rotate(-89.9)"/>
          <path class="cls-3" d="M144.7,124.2v6.9s6.9,0,6.9,0c0-3.4,0-10.3,0-13.8h-27.6s0,6.8,0,6.8h20.7Z"/>
          <path class="cls-3" d="M124.1,124.2h-6.9s0,27.5,0,27.5c3.4,0,10.3,0,13.8,0v-6.9s-6.9,0-6.9,0v-20.7Z"/>
          <rect class="cls-3" x="82.7" y="158.5" width="6.9" height="6.9" transform="translate(-76 247.8) rotate(-89.9)"/>
          <rect class="cls-3" x="75.8" y="165.4" width="6.9" height="6.9" transform="translate(-89.8 247.8) rotate(-89.9)"/>
          <rect class="cls-3" x="68.9" y="172.3" width="6.9" height="6.9" transform="translate(-103.5 247.8) rotate(-89.9)"/>
          <rect class="cls-3" x="75.8" y="179.2" width="6.9" height="6.9" transform="translate(-103.6 261.5) rotate(-89.9)"/>
          <polygon class="cls-3" points="110.2 172.4 103.3 172.3 103.3 193 110.2 193 110.2 179.2 117.1 179.3 117.1 172.4 110.2 172.4"/>
          <rect class="cls-3" x="117.1" y="179.3" width="6.9" height="6.9" transform="translate(-62.4 302.9) rotate(-89.9)"/>
          <rect class="cls-3" x="124" y="172.4" width="6.9" height="6.9" transform="translate(-48.6 303) rotate(-89.9)"/>
          <rect class="cls-3" x="117.1" y="165.5" width="6.9" height="6.9" transform="translate(-48.6 289.2) rotate(-89.9)"/>
          <rect class="cls-3" x="110.2" y="158.6" width="6.9" height="6.9" transform="translate(-48.5 275.4) rotate(-89.9)"/>
          <rect class="cls-3" x="96.4" y="193" width="6.9" height="6.9" transform="translate(-96.8 296) rotate(-89.9)"/>
          <polygon class="cls-3" points="89.6 172.3 82.7 172.3 82.7 179.2 89.5 179.2 89.5 193 96.4 193 96.4 172.3 89.6 172.3"/>
          <path class="cls-3" d="M96.5,131v-6.9s-6.9,0-6.9,0c0,4.4,0,29.5,0,34.4h6.9s0-27.5,0-27.5Z"/>
          <path class="cls-3" d="M69,96.5h6.9s0-6.9,0-6.9c-4.4,0-29.5,0-34.4,0v6.9s27.5,0,27.5,0Z"/>
          <rect class="cls-3" x="34.5" y="110.2" width="6.9" height="6.9" transform="translate(-75.8 151.5) rotate(-89.9)"/>
          <rect class="cls-3" x="27.6" y="117.1" width="6.9" height="6.9" transform="translate(-89.5 151.4) rotate(-89.9)"/>
          <rect class="cls-3" x="20.7" y="124" width="6.9" height="6.9" transform="translate(-103.3 151.4) rotate(-89.9)"/>
          <rect class="cls-3" x="13.9" y="117.1" width="6.9" height="6.9" transform="translate(-103.3 137.6) rotate(-89.9)"/>
          <polygon class="cls-3" points="27.6 110.2 27.7 103.3 7 103.3 7 110.2 20.8 110.2 20.7 117.1 27.6 117.1 27.6 110.2"/>
          <rect class="cls-3" x="13.9" y="75.8" width="6.9" height="6.9" transform="translate(-61.9 96.4) rotate(-89.9)"/>
          <rect class="cls-3" x="20.8" y="68.9" width="6.9" height="6.9" transform="translate(-48.1 96.5) rotate(-89.9)"/>
          <rect class="cls-3" x="27.7" y="75.8" width="6.9" height="6.9" transform="translate(-48.1 110.2) rotate(-89.9)"/>
          <rect class="cls-3" x="34.6" y="82.7" width="6.9" height="6.9" transform="translate(-48.2 124) rotate(-89.9)"/>
          <rect class="cls-3" x=".1" y="96.4" width="6.9" height="6.9" transform="translate(-96.3 103.2) rotate(-89.9)"/>
          <polygon class="cls-3" points="27.7 89.6 27.7 82.7 20.8 82.7 20.8 89.5 7 89.5 7 96.4 27.7 96.4 27.7 89.6"/>
          <rect class="cls-3" x="158.5" y="110.4" width="6.9" height="6.9" transform="translate(47.8 275.7) rotate(-89.9)"/>
          <rect class="cls-3" x="165.4" y="117.3" width="6.9" height="6.9" transform="translate(47.8 289.4) rotate(-89.9)"/>
          <rect class="cls-3" x="172.3" y="124.2" width="6.9" height="6.9" transform="translate(47.8 303.2) rotate(-89.9)"/>
          <rect class="cls-3" x="179.2" y="117.4" width="6.9" height="6.9" transform="translate(61.5 303.2) rotate(-89.9)"/>
          <polygon class="cls-3" points="172.4 89.8 172.3 96.7 193 96.7 193 89.8 179.2 89.8 179.3 82.9 172.4 82.9 172.4 89.8"/>
          <rect class="cls-3" x="179.3" y="76" width="6.9" height="6.9" transform="translate(102.9 262) rotate(-89.9)"/>
          <rect class="cls-3" x="172.4" y="69.1" width="6.9" height="6.9" transform="translate(103 248.3) rotate(-89.9)"/>
          <rect class="cls-3" x="165.5" y="76" width="6.9" height="6.9" transform="translate(89.2 248.2) rotate(-89.9)"/>
          <rect class="cls-3" x="158.6" y="82.9" width="6.9" height="6.9" transform="translate(75.4 248.2) rotate(-89.9)"/>
          <rect class="cls-3" x="193" y="96.7" width="6.9" height="6.9" transform="translate(96 296.4) rotate(-89.9)"/>
          <polygon class="cls-3" points="172.3 110.4 172.3 117.3 179.2 117.3 179.2 110.5 193 110.5 193 103.6 172.3 103.6 172.3 110.4"/>
          <path class="cls-3" d="M124.1,103.5v6.9c4.4,0,29.5,0,34.4,0v-6.9s-34.4,0-34.4,0Z"/>
        </g>
      </g>
    </g>
  </g>
</svg>