<?xml version="1.0" encoding="UTF-8"?>
<svg xmlns="http://www.w3.org/2000/svg" version="1.1" viewBox="0 0 200 200">
  <defs>
    <style>
      .cls-1 {
        fill: #e79a34;
      }

      .cls-2 {
        fill: #81bdd7;
      }

      .cls-3 {
        fill: #feb85a;
      }

      .cls-4 {
        fill: #fff;
      }

      .cls-5 {
        fill: #4175c1;
      }
    </style>
  </defs>
  <!-- Generator: Adobe Illustrator 28.7.1, SVG Export Plug-In . SVG Version: 1.2.0 Build 142)  -->
  <g>
    <g id="_x5F_title-cta">
      <g>
        <rect class="cls-2" x="131.9" y="107.1" width="7.1" height="7.1" transform="translate(-.2 .3) rotate(-.1)"/>
        <rect class="cls-4" x="131.9" y="99.9" width="7.1" height="7.1" transform="translate(-.2 .3) rotate(-.1)"/>
        <rect class="cls-5" x="131.9" y="92.8" width="7.1" height="7.1" transform="translate(-.2 .3) rotate(-.1)"/>
        <rect class="cls-4" x="131.9" y="85.6" width="7.1" height="7.1" transform="translate(-.2 .3) rotate(-.1)"/>
        <rect class="cls-5" x="131.8" y="78.5" width="7.1" height="7.1" transform="translate(-.2 .3) rotate(-.1)"/>
        <rect class="cls-4" x="131.8" y="71.4" width="7.1" height="7.1" transform="translate(-.2 .3) rotate(-.1)"/>
        <rect class="cls-2" x="131.8" y="64.2" width="7.1" height="7.1" transform="translate(-.1 .3) rotate(-.1)"/>
        <rect class="cls-5" x="124.8" y="121.4" width="7.1" height="7.1" transform="translate(-.3 .3) rotate(-.1)"/>
        <rect class="cls-2" x="124.8" y="114.2" width="7.1" height="7.1" transform="translate(-.2 .3) rotate(-.1)"/>
        <rect class="cls-2" x="124.8" y="107.1" width="7.1" height="7.1" transform="translate(-.2 .3) rotate(-.1)"/>
        <rect class="cls-4" x="124.8" y="99.9" width="7.1" height="7.1" transform="translate(-.2 .3) rotate(-.1)"/>
        <rect class="cls-5" x="124.7" y="92.8" width="7.1" height="7.1" transform="translate(-.2 .3) rotate(-.1)"/>
        <rect class="cls-5" x="124.7" y="85.7" width="7.1" height="7.1" transform="translate(-.2 .3) rotate(-.1)"/>
        <rect class="cls-5" x="124.7" y="78.5" width="7.1" height="7.1" transform="translate(-.2 .3) rotate(-.1)"/>
        <rect class="cls-4" x="124.7" y="71.4" width="7.1" height="7.1" transform="translate(-.2 .3) rotate(-.1)"/>
        <rect class="cls-2" x="124.7" y="64.2" width="7.1" height="7.1" transform="translate(-.1 .3) rotate(-.1)"/>
        <rect class="cls-5" x="124.7" y="57.1" width="7.1" height="7.1" transform="translate(-.1 .3) rotate(-.1)"/>
        <rect class="cls-2" x="124.6" y="49.9" width="7.1" height="7.1" transform="translate(-.1 .3) rotate(-.1)"/>
        <rect class="cls-2" x="117.7" y="142.8" width="7.1" height="7.1" transform="translate(-.3 .3) rotate(-.1)"/>
        <rect class="cls-5" x="117.7" y="135.7" width="7.1" height="7.1" transform="translate(-.3 .3) rotate(-.1)"/>
        <rect class="cls-2" x="117.7" y="128.5" width="7.1" height="7.1" transform="translate(-.3 .3) rotate(-.1)"/>
        <rect class="cls-2" x="117.7" y="121.4" width="7.1" height="7.1" transform="translate(-.3 .3) rotate(-.1)"/>
        <rect class="cls-2" x="117.6" y="114.2" width="7.1" height="7.1" transform="translate(-.2 .3) rotate(-.1)"/>
        <rect class="cls-2" x="117.6" y="107.1" width="7.1" height="7.1" transform="translate(-.2 .3) rotate(-.1)"/>
        <rect class="cls-4" x="117.6" y="99.9" width="7.1" height="7.1" transform="translate(-.2 .3) rotate(-.1)"/>
        <rect class="cls-4" x="117.6" y="92.8" width="7.1" height="7.1" transform="translate(-.2 .3) rotate(-.1)"/>
        <rect class="cls-4" x="117.6" y="85.7" width="7.1" height="7.1" transform="translate(-.2 .3) rotate(-.1)"/>
        <rect class="cls-4" x="117.6" y="78.5" width="7.1" height="7.1" transform="translate(-.2 .3) rotate(-.1)"/>
        <rect class="cls-4" x="117.6" y="71.4" width="7.1" height="7.1" transform="translate(-.2 .3) rotate(-.1)"/>
        <rect class="cls-2" x="117.5" y="64.2" width="7.1" height="7.1" transform="translate(-.1 .3) rotate(-.1)"/>
        <rect class="cls-2" x="117.5" y="57.1" width="7.1" height="7.1" transform="translate(-.1 .3) rotate(-.1)"/>
        <rect class="cls-2" x="117.5" y="50" width="7.1" height="7.1" transform="translate(-.1 .3) rotate(-.1)"/>
        <rect class="cls-5" x="117.5" y="42.8" width="7.1" height="7.1" transform="translate(0 .3) rotate(-.1)"/>
        <rect class="cls-2" x="117.5" y="35.7" width="7.1" height="7.1" transform="translate(0 .3) rotate(-.1)"/>
        <rect class="cls-2" x="110.6" y="157.1" width="7.1" height="7.1" transform="translate(-.3 .2) rotate(-.1)"/>
        <rect class="cls-5" x="110.6" y="150" width="7.1" height="7.1" transform="translate(-.3 .2) rotate(-.1)"/>
        <rect class="cls-2" x="110.6" y="142.8" width="7.1" height="7.1" transform="translate(-.3 .2) rotate(-.1)"/>
        <rect class="cls-5" x="110.5" y="135.7" width="7.1" height="7.1" transform="translate(-.3 .2) rotate(-.1)"/>
        <rect class="cls-2" x="110.5" y="128.5" width="7.1" height="7.1" transform="translate(-.3 .2) rotate(-.1)"/>
        <rect class="cls-5" x="110.5" y="121.4" width="7.1" height="7.1" transform="translate(-.3 .2) rotate(-.1)"/>
        <rect class="cls-2" x="110.5" y="114.3" width="7.1" height="7.1" transform="translate(-.2 .2) rotate(-.1)"/>
        <rect class="cls-2" x="110.5" y="107.1" width="7.1" height="7.1" transform="translate(-.2 .2) rotate(-.1)"/>
        <rect class="cls-4" x="110.5" y="100" width="7.1" height="7.1" transform="translate(-.2 .2) rotate(-.1)"/>
        <rect class="cls-4" x="110.5" y="92.8" width="7.1" height="7.1" transform="translate(-.2 .2) rotate(-.1)"/>
        <rect class="cls-4" x="110.4" y="85.7" width="7.1" height="7.1" transform="translate(-.2 .2) rotate(-.1)"/>
        <rect class="cls-4" x="110.4" y="78.5" width="7.1" height="7.1" transform="translate(-.2 .2) rotate(-.1)"/>
        <rect class="cls-4" x="110.4" y="71.4" width="7.1" height="7.1" transform="translate(-.2 .2) rotate(-.1)"/>
        <rect class="cls-2" x="110.4" y="64.3" width="7.1" height="7.1" transform="translate(-.1 .2) rotate(-.1)"/>
        <rect class="cls-5" x="110.4" y="57.1" width="7.1" height="7.1" transform="translate(-.1 .2) rotate(-.1)"/>
        <rect class="cls-2" x="110.4" y="50" width="7.1" height="7.1" transform="translate(-.1 .2) rotate(-.1)"/>
        <rect class="cls-5" x="110.3" y="42.8" width="7.1" height="7.1" transform="translate(0 .2) rotate(-.1)"/>
        <rect class="cls-2" x="110.3" y="35.7" width="7.1" height="7.1" transform="translate(0 .2) rotate(-.1)"/>
        <rect class="cls-5" x="110.3" y="28.5" width="7.1" height="7.1" transform="translate(0 .2) rotate(-.1)"/>
        <rect class="cls-5" x="103.5" y="178.5" width="7.1" height="7.1" transform="translate(-.4 .2) rotate(-.1)"/>
        <rect class="cls-2" x="103.5" y="171.4" width="7.1" height="7.1" transform="translate(-.4 .2) rotate(-.1)"/>
        <rect class="cls-5" x="103.5" y="164.3" width="7.1" height="7.1" transform="translate(-.3 .2) rotate(-.1)"/>
        <rect class="cls-2" x="103.4" y="157.1" width="7.1" height="7.1" transform="translate(-.3 .2) rotate(-.1)"/>
        <rect class="cls-5" x="103.4" y="150" width="7.1" height="7.1" transform="translate(-.3 .2) rotate(-.1)"/>
        <rect class="cls-2" x="103.4" y="142.8" width="7.1" height="7.1" transform="translate(-.3 .2) rotate(-.1)"/>
        <rect class="cls-5" x="103.4" y="135.7" width="7.1" height="7.1" transform="translate(-.3 .2) rotate(-.1)"/>
        <rect class="cls-2" x="103.4" y="128.6" width="7.1" height="7.1" transform="translate(-.3 .2) rotate(-.1)"/>
        <rect class="cls-2" x="103.4" y="121.4" width="7.1" height="7.1" transform="translate(-.3 .2) rotate(-.1)"/>
        <rect class="cls-2" x="103.4" y="114.3" width="7.1" height="7.1" transform="translate(-.2 .2) rotate(-.1)"/>
        <rect class="cls-2" x="103.3" y="107.1" width="7.1" height="7.1" transform="translate(-.2 .2) rotate(-.1)"/>
        <rect class="cls-4" x="103.3" y="100" width="7.1" height="7.1" transform="translate(-.2 .2) rotate(-.1)"/>
        <rect class="cls-5" x="103.3" y="92.8" width="7.1" height="7.1" transform="translate(-.2 .2) rotate(-.1)"/>
        <rect class="cls-5" x="103.3" y="85.7" width="7.1" height="7.1" transform="translate(-.2 .2) rotate(-.1)"/>
        <rect class="cls-5" x="103.3" y="78.6" width="7.1" height="7.1" transform="translate(-.2 .2) rotate(-.1)"/>
        <rect class="cls-4" x="103.3" y="71.4" width="7.1" height="7.1" transform="translate(-.2 .2) rotate(-.1)"/>
        <rect class="cls-2" x="103.3" y="64.3" width="7.1" height="7.1" transform="translate(-.1 .2) rotate(-.1)"/>
        <rect class="cls-2" x="103.2" y="57.1" width="7.1" height="7.1" transform="translate(-.1 .2) rotate(-.1)"/>
        <rect class="cls-2" x="103.2" y="50" width="7.1" height="7.1" transform="translate(-.1 .2) rotate(-.1)"/>
        <rect class="cls-5" x="103.2" y="42.8" width="7.1" height="7.1" transform="translate(0 .2) rotate(-.1)"/>
        <rect class="cls-2" x="103.2" y="35.7" width="7.1" height="7.1" transform="translate(0 .2) rotate(-.1)"/>
        <rect class="cls-5" x="103.2" y="28.6" width="7.1" height="7.1" transform="translate(0 .2) rotate(-.1)"/>
        <rect class="cls-1" x="103.2" y="21.4" width="7.1" height="7.1" transform="translate(0 .2) rotate(-.1)"/>
        <rect class="cls-1" x="103.1" y="14.3" width="7.1" height="7.1" transform="translate(0 .2) rotate(-.1)"/>
        <rect class="cls-1" x="103.1" y="7.1" width="7.1" height="7.1" transform="translate(0 .2) rotate(-.1)"/>
        <rect class="cls-2" x="96.4" y="192.9" width="7.1" height="7.1" transform="translate(-.4 .2) rotate(-.1)"/>
        <rect class="cls-2" x="96.4" y="185.7" width="7.1" height="7.1" transform="translate(-.4 .2) rotate(-.1)"/>
        <rect class="cls-5" x="96.3" y="178.6" width="7.1" height="7.1" transform="translate(-.4 .2) rotate(-.1)"/>
        <rect class="cls-2" x="96.3" y="171.4" width="7.1" height="7.1" transform="translate(-.4 .2) rotate(-.1)"/>
        <rect class="cls-5" x="96.3" y="164.3" width="7.1" height="7.1" transform="translate(-.3 .2) rotate(-.1)"/>
        <rect class="cls-2" x="96.3" y="157.1" width="7.1" height="7.1" transform="translate(-.3 .2) rotate(-.1)"/>
        <rect class="cls-5" x="96.3" y="150" width="7.1" height="7.1" transform="translate(-.3 .2) rotate(-.1)"/>
        <rect class="cls-2" x="96.3" y="142.9" width="7.1" height="7.1" transform="translate(-.3 .2) rotate(-.1)"/>
        <rect class="cls-5" x="96.3" y="135.7" width="7.1" height="7.1" transform="translate(-.3 .2) rotate(-.1)"/>
        <rect class="cls-2" x="96.2" y="128.6" width="7.1" height="7.1" transform="translate(-.3 .2) rotate(-.1)"/>
        <rect class="cls-5" x="96.2" y="121.4" width="7.1" height="7.1" transform="translate(-.3 .2) rotate(-.1)"/>
        <rect class="cls-2" x="96.2" y="114.3" width="7.1" height="7.1" transform="translate(-.2 .2) rotate(-.1)"/>
        <rect class="cls-2" x="96.2" y="107.1" width="7.1" height="7.1" transform="translate(-.2 .2) rotate(-.1)"/>
        <rect class="cls-4" x="96.2" y="100" width="7.1" height="7.1" transform="translate(-.2 .2) rotate(-.1)"/>
        <rect class="cls-5" x="96.2" y="92.9" width="7.1" height="7.1" transform="translate(-.2 .2) rotate(-.1)"/>
        <rect class="cls-4" x="96.2" y="85.7" width="7.1" height="7.1" transform="translate(-.2 .2) rotate(-.1)"/>
        <rect class="cls-5" x="96.1" y="78.6" width="7.1" height="7.1" transform="translate(-.2 .2) rotate(-.1)"/>
        <rect class="cls-4" x="96.1" y="71.4" width="7.1" height="7.1" transform="translate(-.2 .2) rotate(-.1)"/>
        <rect class="cls-2" x="96.1" y="64.3" width="7.1" height="7.1" transform="translate(-.1 .2) rotate(-.1)"/>
        <rect class="cls-5" x="96.1" y="57.1" width="7.1" height="7.1" transform="translate(-.1 .2) rotate(-.1)"/>
        <rect class="cls-2" x="96.1" y="50" width="7.1" height="7.1" transform="translate(-.1 .2) rotate(-.1)"/>
        <rect class="cls-5" x="96.1" y="42.9" width="7.1" height="7.1" transform="translate(0 .2) rotate(-.1)"/>
        <rect class="cls-2" x="96.1" y="35.7" width="7.1" height="7.1" transform="translate(0 .2) rotate(-.1)"/>
        <rect class="cls-5" x="96" y="28.6" width="7.1" height="7.1" transform="translate(0 .2) rotate(-.1)"/>
        <rect class="cls-3" x="96" y="21.4" width="7.1" height="7.1" transform="translate(0 .2) rotate(-.1)"/>
        <rect class="cls-3" x="96" y="14.3" width="7.1" height="7.1" transform="translate(0 .2) rotate(-.1)"/>
        <rect class="cls-3" x="96" y="7.1" width="7.1" height="7.1" transform="translate(0 .2) rotate(-.1)"/>
        <rect class="cls-3" x="96" y="0" width="7.1" height="7.1" transform="translate(0 .2) rotate(-.1)"/>
        <rect class="cls-5" x="89.2" y="178.6" width="7.1" height="7.1" transform="translate(-.4 .2) rotate(-.1)"/>
        <rect class="cls-2" x="89.2" y="171.4" width="7.1" height="7.1" transform="translate(-.4 .2) rotate(-.1)"/>
        <rect class="cls-5" x="89.2" y="164.3" width="7.1" height="7.1" transform="translate(-.3 .2) rotate(-.1)"/>
        <rect class="cls-2" x="89.2" y="157.2" width="7.1" height="7.1" transform="translate(-.3 .2) rotate(-.1)"/>
        <rect class="cls-5" x="89.1" y="150" width="7.1" height="7.1" transform="translate(-.3 .2) rotate(-.1)"/>
        <rect class="cls-2" x="89.1" y="142.9" width="7.1" height="7.1" transform="translate(-.3 .2) rotate(-.1)"/>
        <rect class="cls-5" x="89.1" y="135.7" width="7.1" height="7.1" transform="translate(-.3 .2) rotate(-.1)"/>
        <rect class="cls-2" x="89.1" y="128.6" width="7.1" height="7.1" transform="translate(-.3 .2) rotate(-.1)"/>
        <rect class="cls-2" x="89.1" y="121.4" width="7.1" height="7.1" transform="translate(-.3 .2) rotate(-.1)"/>
        <rect class="cls-2" x="89.1" y="114.3" width="7.1" height="7.1" transform="translate(-.2 .2) rotate(-.1)"/>
        <rect class="cls-2" x="89.1" y="107.2" width="7.1" height="7.1" transform="translate(-.2 .2) rotate(-.1)"/>
        <rect class="cls-4" x="89" y="100" width="7.1" height="7.1" transform="translate(-.2 .2) rotate(-.1)"/>
        <rect class="cls-5" x="89" y="92.9" width="7.1" height="7.1" transform="translate(-.2 .2) rotate(-.1)"/>
        <rect class="cls-5" x="89" y="85.7" width="7.1" height="7.1" transform="translate(-.2 .2) rotate(-.1)"/>
        <rect class="cls-5" x="89" y="78.6" width="7.1" height="7.1" transform="translate(-.2 .2) rotate(-.1)"/>
        <rect class="cls-4" x="89" y="71.4" width="7.1" height="7.1" transform="translate(-.2 .2) rotate(-.1)"/>
        <rect class="cls-2" x="89" y="64.3" width="7.1" height="7.1" transform="translate(-.1 .2) rotate(-.1)"/>
        <rect class="cls-2" x="89" y="57.2" width="7.1" height="7.1" transform="translate(-.1 .2) rotate(-.1)"/>
        <rect class="cls-2" x="88.9" y="50" width="7.1" height="7.1" transform="translate(-.1 .2) rotate(-.1)"/>
        <rect class="cls-5" x="88.9" y="42.9" width="7.1" height="7.1" transform="translate(0 .2) rotate(-.1)"/>
        <rect class="cls-2" x="88.9" y="35.7" width="7.1" height="7.1" transform="translate(0 .2) rotate(-.1)"/>
        <rect class="cls-5" x="88.9" y="28.6" width="7.1" height="7.1" transform="translate(0 .2) rotate(-.1)"/>
        <rect class="cls-3" x="88.9" y="21.4" width="7.1" height="7.1" transform="translate(0 .2) rotate(-.1)"/>
        <rect class="cls-3" x="88.9" y="14.3" width="7.1" height="7.1" transform="translate(0 .2) rotate(-.1)"/>
        <rect class="cls-3" x="88.8" y="7.2" width="7.1" height="7.1" transform="translate(0 .2) rotate(-.1)"/>
        <rect class="cls-2" x="82" y="157.2" width="7.1" height="7.1" transform="translate(-.3 .2) rotate(-.1)"/>
        <rect class="cls-5" x="82" y="150" width="7.1" height="7.1" transform="translate(-.3 .2) rotate(-.1)"/>
        <rect class="cls-2" x="82" y="142.9" width="7.1" height="7.1" transform="translate(-.3 .2) rotate(-.1)"/>
        <rect class="cls-5" x="82" y="135.7" width="7.1" height="7.1" transform="translate(-.3 .2) rotate(-.1)"/>
        <rect class="cls-2" x="82" y="128.6" width="7.1" height="7.1" transform="translate(-.3 .2) rotate(-.1)"/>
        <rect class="cls-5" x="81.9" y="121.5" width="7.1" height="7.1" transform="translate(-.3 .2) rotate(-.1)"/>
        <rect class="cls-2" x="81.9" y="114.3" width="7.1" height="7.1" transform="translate(-.2 .2) rotate(-.1)"/>
        <rect class="cls-2" x="81.9" y="107.2" width="7.1" height="7.1" transform="translate(-.2 .2) rotate(-.1)"/>
        <rect class="cls-4" x="81.9" y="100" width="7.1" height="7.1" transform="translate(-.2 .2) rotate(-.1)"/>
        <rect class="cls-4" x="81.9" y="92.9" width="7.1" height="7.1" transform="translate(-.2 .2) rotate(-.1)"/>
        <rect class="cls-4" x="81.9" y="85.7" width="7.1" height="7.1" transform="translate(-.2 .2) rotate(-.1)"/>
        <rect class="cls-4" x="81.9" y="78.6" width="7.1" height="7.1" transform="translate(-.2 .2) rotate(-.1)"/>
        <rect class="cls-4" x="81.8" y="71.5" width="7.1" height="7.1" transform="translate(-.2 .2) rotate(-.1)"/>
        <rect class="cls-2" x="81.8" y="64.3" width="7.1" height="7.1" transform="translate(-.1 .2) rotate(-.1)"/>
        <rect class="cls-5" x="81.8" y="57.2" width="7.1" height="7.1" transform="translate(-.1 .2) rotate(-.1)"/>
        <rect class="cls-2" x="81.8" y="50" width="7.1" height="7.1" transform="translate(-.1 .2) rotate(-.1)"/>
        <rect class="cls-5" x="81.8" y="42.9" width="7.1" height="7.1" transform="translate(0 .2) rotate(-.1)"/>
        <rect class="cls-2" x="81.8" y="35.7" width="7.1" height="7.1" transform="translate(0 .2) rotate(-.1)"/>
        <rect class="cls-5" x="81.8" y="28.6" width="7.1" height="7.1" transform="translate(0 .2) rotate(-.1)"/>
        <rect class="cls-2" x="74.8" y="142.9" width="7.1" height="7.1" transform="translate(-.3 .2) rotate(-.1)"/>
        <rect class="cls-5" x="74.8" y="135.8" width="7.1" height="7.1" transform="translate(-.3 .2) rotate(-.1)"/>
        <rect class="cls-2" x="74.8" y="128.6" width="7.1" height="7.1" transform="translate(-.3 .2) rotate(-.1)"/>
        <rect class="cls-2" x="74.8" y="121.5" width="7.1" height="7.1" transform="translate(-.3 .2) rotate(-.1)"/>
        <rect class="cls-2" x="74.8" y="114.3" width="7.1" height="7.1" transform="translate(-.2 .2) rotate(-.1)"/>
        <rect class="cls-2" x="74.8" y="107.2" width="7.1" height="7.1" transform="translate(-.2 .2) rotate(-.1)"/>
        <rect class="cls-4" x="74.8" y="100" width="7.1" height="7.1" transform="translate(-.2 .2) rotate(-.1)"/>
        <rect class="cls-4" x="74.7" y="92.9" width="7.1" height="7.1" transform="translate(-.2 .2) rotate(-.1)"/>
        <rect class="cls-4" x="74.7" y="85.8" width="7.1" height="7.1" transform="translate(-.2 .2) rotate(-.1)"/>
        <rect class="cls-4" x="74.7" y="78.6" width="7.1" height="7.1" transform="translate(-.2 .2) rotate(-.1)"/>
        <rect class="cls-4" x="74.7" y="71.5" width="7.1" height="7.1" transform="translate(-.2 .2) rotate(-.1)"/>
        <rect class="cls-2" x="74.7" y="64.3" width="7.1" height="7.1" transform="translate(-.1 .2) rotate(-.1)"/>
        <rect class="cls-2" x="74.7" y="57.2" width="7.1" height="7.1" transform="translate(-.1 .2) rotate(-.1)"/>
        <rect class="cls-2" x="74.7" y="50" width="7.1" height="7.1" transform="translate(-.1 .2) rotate(-.1)"/>
        <rect class="cls-5" x="74.6" y="42.9" width="7.1" height="7.1" transform="translate(0 .2) rotate(-.1)"/>
        <rect class="cls-2" x="74.6" y="35.8" width="7.1" height="7.1" transform="translate(0 .2) rotate(-.1)"/>
        <rect class="cls-5" x="67.7" y="121.5" width="7.1" height="7.1" transform="translate(-.3 .1) rotate(-.1)"/>
        <rect class="cls-2" x="67.6" y="114.3" width="7.1" height="7.1" transform="translate(-.2 .1) rotate(-.1)"/>
        <rect class="cls-2" x="67.6" y="107.2" width="7.1" height="7.1" transform="translate(-.2 .1) rotate(-.1)"/>
        <rect class="cls-4" x="67.6" y="100.1" width="7.1" height="7.1" transform="translate(-.2 .1) rotate(-.1)"/>
        <rect class="cls-5" x="67.6" y="92.9" width="7.1" height="7.1" transform="translate(-.2 .1) rotate(-.1)"/>
        <rect class="cls-5" x="67.6" y="85.8" width="7.1" height="7.1" transform="translate(-.2 .1) rotate(-.1)"/>
        <rect class="cls-5" x="67.6" y="78.6" width="7.1" height="7.1" transform="translate(-.2 .1) rotate(-.1)"/>
        <rect class="cls-4" x="67.6" y="71.5" width="7.1" height="7.1" transform="translate(-.2 .1) rotate(-.1)"/>
        <rect class="cls-2" x="67.5" y="64.3" width="7.1" height="7.1" transform="translate(-.1 .1) rotate(-.1)"/>
        <rect class="cls-5" x="67.5" y="57.2" width="7.1" height="7.1" transform="translate(-.1 .1) rotate(-.1)"/>
        <rect class="cls-2" x="67.5" y="50.1" width="7.1" height="7.1" transform="translate(-.1 .1) rotate(-.1)"/>
        <rect class="cls-2" x="60.5" y="107.2" width="7.1" height="7.1" transform="translate(-.2 .1) rotate(-.1)"/>
        <rect class="cls-4" x="60.5" y="100.1" width="7.1" height="7.1" transform="translate(-.2 .1) rotate(-.1)"/>
        <rect class="cls-5" x="60.5" y="92.9" width="7.1" height="7.1" transform="translate(-.2 .1) rotate(-.1)"/>
        <rect class="cls-4" x="60.4" y="85.8" width="7.1" height="7.1" transform="translate(-.2 .1) rotate(-.1)"/>
        <rect class="cls-5" x="60.4" y="78.6" width="7.1" height="7.1" transform="translate(-.2 .1) rotate(-.1)"/>
        <rect class="cls-4" x="60.4" y="71.5" width="7.1" height="7.1" transform="translate(-.2 .1) rotate(-.1)"/>
        <rect class="cls-2" x="60.4" y="64.4" width="7.1" height="7.1" transform="translate(-.1 .1) rotate(-.1)"/>
      </g>
    </g>
  </g>
</svg>