<?xml version="1.0" encoding="UTF-8"?>
<svg xmlns="http://www.w3.org/2000/svg" version="1.1" viewBox="0 0 759.7 759.8">
  <defs>
    <style>
      .cls-1 {
        fill: #fff;
      }

      .cls-2 {
        fill: #108473;
      }

      .cls-3 {
        fill: #c8221e;
      }

      .cls-4 {
        fill: #ddf2fb;
      }

      .cls-5 {
        fill: #e34843;
      }
    </style>
  </defs>
  <!-- Generator: Adobe Illustrator 28.7.1, SVG Export Plug-In . SVG Version: 1.2.0 Build 142)  -->
  <g>
    <g id="_x5F_title-cta">
      <g>
        <g>
          <rect class="cls-2" x="719.6" y="80" width="40" height="40"/>
          <rect class="cls-2" x="719.6" y="40" width="40" height="40"/>
          <rect class="cls-2" x="679.7" y="119.9" width="40" height="40"/>
          <rect class="cls-2" x="679.6" y="0" width="40" height="40"/>
          <rect class="cls-2" x="639.7" y="119.9" width="40" height="40"/>
          <rect class="cls-2" x="639.7" y="0" width="40" height="40"/>
          <rect class="cls-4" x="599.7" y="239.9" width="40" height="40"/>
          <rect class="cls-4" x="599.7" y="199.9" width="40" height="40"/>
          <rect class="cls-4" x="599.7" y="159.9" width="40" height="40"/>
          <rect class="cls-4" x="599.7" y="120" width="40" height="40"/>
          <rect class="cls-2" x="599.7" y="80" width="40" height="40"/>
          <rect class="cls-2" x="599.7" y="40" width="40" height="40"/>
          <rect class="cls-3" x="559.8" y="599.7" width="40" height="40"/>
          <rect class="cls-3" x="559.8" y="559.8" width="40" height="40"/>
          <rect class="cls-3" x="559.8" y="519.8" width="40" height="40"/>
          <rect class="cls-3" x="559.8" y="479.8" width="40" height="40"/>
          <rect class="cls-3" x="559.8" y="439.8" width="40" height="40"/>
          <rect class="cls-3" x="559.8" y="399.9" width="40" height="40"/>
          <rect class="cls-3" x="559.8" y="359.9" width="40" height="40"/>
          <rect class="cls-3" x="559.8" y="319.9" width="40" height="40"/>
          <rect class="cls-3" x="559.7" y="279.9" width="40" height="40"/>
          <rect class="cls-4" x="559.7" y="239.9" width="40" height="40"/>
          <rect class="cls-4" x="559.7" y="199.9" width="40" height="40"/>
          <rect class="cls-1" x="559.7" y="159.9" width="40" height="40"/>
          <rect class="cls-1" x="559.7" y="120" width="40" height="40"/>
          <rect class="cls-4" x="559.7" y="80" width="40" height="40"/>
          <rect class="cls-3" x="519.8" y="679.8" width="40" height="40"/>
          <rect class="cls-3" x="519.8" y="639.8" width="40" height="40"/>
          <rect class="cls-3" x="519.8" y="599.8" width="40" height="40"/>
          <rect class="cls-3" x="519.8" y="559.8" width="40" height="40"/>
          <rect class="cls-5" x="519.8" y="519.8" width="40" height="40"/>
          <rect class="cls-5" x="519.8" y="479.8" width="40" height="40"/>
          <rect class="cls-5" x="519.8" y="439.8" width="40" height="40"/>
          <rect class="cls-5" x="519.7" y="399.9" width="40" height="40"/>
          <rect class="cls-1" x="519.7" y="359.9" width="40" height="40"/>
          <rect class="cls-5" x="519.7" y="319.9" width="40" height="40"/>
          <rect class="cls-5" x="519.7" y="279.9" width="40" height="40"/>
          <rect class="cls-4" x="519.7" y="239.9" width="40" height="40"/>
          <rect class="cls-1" x="519.7" y="199.9" width="40" height="40"/>
          <rect class="cls-1" x="519.7" y="159.9" width="40" height="40"/>
          <rect class="cls-1" x="519.7" y="120" width="40" height="40"/>
          <rect class="cls-1" x="519.7" y="80" width="40" height="40"/>
          <rect class="cls-3" x="479.8" y="679.8" width="40" height="40"/>
          <rect class="cls-3" x="479.8" y="639.8" width="40" height="40"/>
          <rect class="cls-3" x="479.8" y="599.8" width="40" height="40"/>
          <rect class="cls-5" x="479.8" y="559.8" width="40" height="40"/>
          <rect class="cls-5" x="479.8" y="519.8" width="40" height="40"/>
          <rect class="cls-5" x="479.8" y="479.8" width="40" height="40"/>
          <rect class="cls-5" x="479.8" y="439.8" width="40" height="40"/>
          <rect class="cls-5" x="479.8" y="399.9" width="40" height="40"/>
          <rect class="cls-5" x="479.8" y="359.9" width="40" height="40"/>
          <rect class="cls-5" x="479.8" y="319.9" width="40" height="40"/>
          <rect class="cls-5" x="479.7" y="279.9" width="40" height="40"/>
          <rect class="cls-4" x="479.7" y="240" width="40" height="40"/>
          <rect class="cls-1" x="479.7" y="199.9" width="40" height="40"/>
          <rect class="cls-1" x="479.7" y="160" width="40" height="40"/>
          <rect class="cls-1" x="479.7" y="120" width="40" height="40"/>
          <rect class="cls-1" x="479.7" y="80" width="40" height="40"/>
          <rect class="cls-3" x="439.8" y="719.7" width="40" height="40"/>
          <rect class="cls-3" x="439.8" y="679.8" width="40" height="40"/>
          <rect class="cls-3" x="439.8" y="639.8" width="40" height="40"/>
          <rect class="cls-3" x="439.8" y="599.8" width="40" height="40"/>
          <rect class="cls-5" x="439.8" y="559.8" width="40" height="40"/>
          <rect class="cls-5" x="439.8" y="519.8" width="40" height="40"/>
          <rect class="cls-5" x="439.8" y="479.8" width="40" height="40"/>
          <rect class="cls-5" x="439.8" y="439.9" width="40" height="40"/>
          <rect class="cls-5" x="439.8" y="399.9" width="40" height="40"/>
          <rect class="cls-5" x="439.8" y="359.9" width="40" height="40"/>
          <rect class="cls-5" x="439.8" y="319.9" width="40" height="40"/>
          <rect class="cls-5" x="439.8" y="279.9" width="40" height="40"/>
          <rect class="cls-4" x="439.8" y="240" width="40" height="40"/>
          <rect class="cls-1" x="439.8" y="199.9" width="40" height="40"/>
          <rect class="cls-1" x="439.7" y="160" width="40" height="40"/>
          <rect class="cls-1" x="439.7" y="120" width="40" height="40"/>
          <rect class="cls-1" x="439.7" y="80" width="40" height="40"/>
          <rect class="cls-3" x="399.9" y="719.8" width="40" height="40"/>
          <rect class="cls-3" x="399.9" y="679.8" width="40" height="40"/>
          <rect class="cls-5" x="399.8" y="639.8" width="40" height="40"/>
          <rect class="cls-5" x="399.8" y="599.8" width="40" height="40"/>
          <rect class="cls-5" x="399.8" y="559.8" width="40" height="40"/>
          <rect class="cls-5" x="399.8" y="519.8" width="40" height="40"/>
          <rect class="cls-1" x="399.8" y="479.8" width="40" height="40"/>
          <rect class="cls-5" x="399.8" y="439.9" width="40" height="40"/>
          <rect class="cls-5" x="399.8" y="399.9" width="40" height="40"/>
          <rect class="cls-5" x="399.8" y="359.9" width="40" height="40"/>
          <rect class="cls-1" x="399.8" y="319.9" width="40" height="40"/>
          <rect class="cls-5" x="399.8" y="279.9" width="40" height="40"/>
          <rect class="cls-4" x="399.8" y="240" width="40" height="40"/>
          <rect class="cls-1" x="399.8" y="199.9" width="40" height="40"/>
          <rect class="cls-1" x="399.8" y="160" width="40" height="40"/>
          <rect class="cls-1" x="399.8" y="120" width="40" height="40"/>
          <rect class="cls-1" x="399.8" y="80" width="40" height="40"/>
          <rect class="cls-3" x="359.9" y="719.8" width="40" height="40"/>
          <rect class="cls-5" x="359.9" y="679.8" width="40" height="40"/>
          <rect class="cls-5" x="359.9" y="639.8" width="40" height="40"/>
          <rect class="cls-5" x="359.9" y="599.8" width="40" height="40"/>
          <rect class="cls-5" x="359.9" y="559.8" width="40" height="40"/>
          <rect class="cls-5" x="359.8" y="519.8" width="40" height="40"/>
          <rect class="cls-5" x="359.8" y="479.8" width="40" height="40"/>
          <rect class="cls-5" x="359.8" y="439.9" width="40" height="40"/>
          <rect class="cls-5" x="359.8" y="399.9" width="40" height="40"/>
          <rect class="cls-5" x="359.8" y="359.9" width="40" height="40"/>
          <rect class="cls-5" x="359.8" y="319.9" width="40" height="40"/>
          <rect class="cls-5" x="359.8" y="279.9" width="40" height="40"/>
          <rect class="cls-4" x="359.8" y="240" width="40" height="40"/>
          <rect class="cls-1" x="359.8" y="200" width="40" height="40"/>
          <rect class="cls-1" x="359.8" y="160" width="40" height="40"/>
          <rect class="cls-1" x="359.8" y="120" width="40" height="40"/>
          <rect class="cls-1" x="359.8" y="80" width="40" height="40"/>
          <rect class="cls-3" x="319.9" y="719.8" width="40" height="40"/>
          <rect class="cls-5" x="319.9" y="679.8" width="40" height="40"/>
          <rect class="cls-5" x="319.9" y="639.8" width="40" height="40"/>
          <rect class="cls-5" x="319.9" y="599.8" width="40" height="40"/>
          <rect class="cls-5" x="319.9" y="559.8" width="40" height="40"/>
          <rect class="cls-5" x="319.9" y="519.8" width="40" height="40"/>
          <rect class="cls-5" x="319.9" y="479.9" width="40" height="40"/>
          <rect class="cls-5" x="319.9" y="439.9" width="40" height="40"/>
          <rect class="cls-5" x="319.8" y="399.9" width="40" height="40"/>
          <rect class="cls-5" x="319.8" y="359.9" width="40" height="40"/>
          <rect class="cls-5" x="319.8" y="319.9" width="40" height="40"/>
          <rect class="cls-5" x="319.8" y="280" width="40" height="40"/>
          <rect class="cls-4" x="319.8" y="240" width="40" height="40"/>
          <rect class="cls-1" x="319.8" y="200" width="40" height="40"/>
          <rect class="cls-1" x="319.8" y="160" width="40" height="40"/>
          <rect class="cls-1" x="319.8" y="120" width="40" height="40"/>
          <rect class="cls-1" x="319.8" y="80" width="40" height="40"/>
          <rect class="cls-3" x="279.9" y="719.8" width="40" height="40"/>
          <rect class="cls-5" x="279.9" y="679.8" width="40" height="40"/>
          <rect class="cls-5" x="279.9" y="639.8" width="40" height="40"/>
          <rect class="cls-1" x="279.9" y="599.8" width="40" height="40"/>
          <rect class="cls-5" x="279.9" y="559.8" width="40" height="40"/>
          <rect class="cls-5" x="279.9" y="519.8" width="40" height="40"/>
          <rect class="cls-5" x="279.9" y="479.9" width="40" height="40"/>
          <rect class="cls-5" x="279.9" y="439.9" width="40" height="40"/>
          <rect class="cls-5" x="279.9" y="399.9" width="40" height="40"/>
          <rect class="cls-1" x="279.9" y="359.9" width="40" height="40"/>
          <rect class="cls-5" x="279.9" y="319.9" width="40" height="40"/>
          <rect class="cls-5" x="279.9" y="280" width="40" height="40"/>
          <rect class="cls-4" x="279.8" y="240" width="40" height="40"/>
          <rect class="cls-1" x="279.8" y="200" width="40" height="40"/>
          <rect class="cls-1" x="279.8" y="160" width="40" height="40"/>
          <rect class="cls-1" x="279.8" y="120" width="40" height="40"/>
          <rect class="cls-1" x="279.8" y="80" width="40" height="40"/>
          <rect class="cls-3" x="239.9" y="719.8" width="40" height="40"/>
          <rect class="cls-5" x="239.9" y="679.8" width="40" height="40"/>
          <rect class="cls-5" x="239.9" y="639.8" width="40" height="40"/>
          <rect class="cls-5" x="239.9" y="599.8" width="40" height="40"/>
          <rect class="cls-5" x="239.9" y="559.8" width="40" height="40"/>
          <rect class="cls-5" x="239.9" y="519.8" width="40" height="40"/>
          <rect class="cls-5" x="239.9" y="479.9" width="40" height="40"/>
          <rect class="cls-5" x="239.9" y="439.9" width="40" height="40"/>
          <rect class="cls-5" x="239.9" y="399.9" width="40" height="40"/>
          <rect class="cls-5" x="239.9" y="359.9" width="40" height="40"/>
          <rect class="cls-5" x="239.9" y="319.9" width="40" height="40"/>
          <rect class="cls-5" x="239.9" y="280" width="40" height="40"/>
          <rect class="cls-4" x="239.9" y="240" width="40" height="40"/>
          <rect class="cls-1" x="239.9" y="200" width="40" height="40"/>
          <rect class="cls-1" x="239.9" y="160" width="40" height="40"/>
          <rect class="cls-1" x="239.8" y="120" width="40" height="40"/>
          <rect class="cls-1" x="239.8" y="80" width="40" height="40"/>
          <rect class="cls-3" x="200" y="719.8" width="40" height="40"/>
          <rect class="cls-5" x="200" y="679.8" width="40" height="40"/>
          <rect class="cls-5" x="200" y="639.8" width="40" height="40"/>
          <rect class="cls-5" x="199.9" y="599.8" width="40" height="40"/>
          <rect class="cls-5" x="199.9" y="559.8" width="40" height="40"/>
          <rect class="cls-5" x="199.9" y="519.8" width="40" height="40"/>
          <rect class="cls-5" x="199.9" y="479.9" width="40" height="40"/>
          <rect class="cls-4" x="199.9" y="240" width="40" height="40"/>
          <rect class="cls-1" x="199.9" y="200" width="40" height="40"/>
          <rect class="cls-1" x="199.9" y="160" width="40" height="40"/>
          <rect class="cls-1" x="199.9" y="120" width="40" height="40"/>
          <rect class="cls-3" x="160" y="719.8" width="40" height="40"/>
          <rect class="cls-1" x="160" y="679.8" width="40" height="40"/>
          <rect class="cls-5" x="160" y="639.8" width="40" height="40"/>
          <rect class="cls-5" x="160" y="599.8" width="40" height="40"/>
          <rect class="cls-5" x="160" y="559.8" width="40" height="40"/>
          <rect class="cls-1" x="160" y="519.9" width="40" height="40"/>
          <rect class="cls-3" x="120" y="719.8" width="40" height="40"/>
          <rect class="cls-5" x="120" y="679.8" width="40" height="40"/>
          <rect class="cls-5" x="120" y="639.8" width="40" height="40"/>
          <rect class="cls-5" x="119.9" y="599.8" width="40" height="40"/>
          <rect class="cls-5" x="119.9" y="559.8" width="40" height="40"/>
          <rect class="cls-5" x="119.9" y="519.9" width="40" height="40"/>
          <rect class="cls-3" x="80" y="719.8" width="40" height="40"/>
          <rect class="cls-5" x="80" y="679.8" width="40" height="40"/>
          <rect class="cls-5" x="80" y="639.8" width="40" height="40"/>
          <rect class="cls-5" x="80" y="599.8" width="40" height="40"/>
          <rect class="cls-5" x="80" y="559.8" width="40" height="40"/>
          <rect class="cls-5" x="80" y="519.9" width="40" height="40"/>
          <rect class="cls-3" x="40" y="719.8" width="40" height="40"/>
          <rect class="cls-5" x="40" y="679.8" width="40" height="40"/>
          <rect class="cls-1" x="40" y="639.9" width="40" height="40"/>
          <rect class="cls-5" x="40" y="599.8" width="40" height="40"/>
          <rect class="cls-5" x="40" y="559.9" width="40" height="40"/>
          <rect class="cls-3" x="0" y="679.8" width="40" height="40"/>
          <rect class="cls-3" x="0" y="639.9" width="40" height="40"/>
          <rect class="cls-3" x="0" y="599.8" width="40" height="40"/>
          <rect class="cls-3" x="0" y="559.9" width="40" height="40"/>
        </g>
        <rect class="cls-1" x="229.8" y="110" width="10" height="10"/>
        <rect class="cls-1" x="219.9" y="110" width="10" height="10"/>
        <rect class="cls-1" x="209.9" y="110" width="10" height="10"/>
        <rect class="cls-1" x="219.9" y="100" width="10" height="10"/>
        <rect class="cls-1" x="219.8" y="90" width="10" height="10"/>
        <rect class="cls-1" x="209.9" y="100" width="10" height="10"/>
        <rect class="cls-1" x="229.8" y="100" width="10" height="10"/>
        <rect class="cls-1" x="229.8" y="90" width="10" height="10"/>
        <rect class="cls-1" x="229.8" y="80" width="10" height="10"/>
        <rect class="cls-4" x="609.7" y="100" width="10" height="10" transform="translate(1229.4 209.8) rotate(180)"/>
        <rect class="cls-4" x="609.7" y="90" width="10" height="10" transform="translate(1229.4 189.8) rotate(180)"/>
        <rect class="cls-4" x="619.7" y="100" width="10" height="10" transform="translate(1249.4 209.8) rotate(180)"/>
        <rect class="cls-4" x="599.7" y="100" width="10" height="10" transform="translate(1209.4 209.8) rotate(180)"/>
        <rect class="cls-4" x="609.7" y="110" width="10" height="10" transform="translate(1229.4 229.8) rotate(180)"/>
        <rect class="cls-4" x="619.7" y="110" width="10" height="10" transform="translate(1249.4 229.8) rotate(180)"/>
        <rect class="cls-4" x="629.7" y="110" width="10" height="10" transform="translate(1269.4 229.8) rotate(180)"/>
        <rect class="cls-4" x="599.7" y="110" width="10" height="10" transform="translate(1209.4 229.8) rotate(180)"/>
        <rect class="cls-4" x="599.7" y="90" width="10" height="10" transform="translate(1209.4 189.8) rotate(180)"/>
        <rect class="cls-4" x="599.7" y="80" width="10" height="10" transform="translate(1209.4 169.8) rotate(180)"/>
        <g>
          <rect class="cls-2" x="629.7" y="30" width="10" height="10" transform="translate(1269.3 69.9) rotate(180)"/>
          <rect class="cls-2" x="619.7" y="30" width="10" height="10" transform="translate(1249.3 69.9) rotate(180)"/>
          <rect class="cls-2" x="609.7" y="30" width="10" height="10" transform="translate(1229.4 69.9) rotate(180)"/>
          <rect class="cls-2" x="629.7" y="20" width="10" height="10" transform="translate(1269.3 49.9) rotate(180)"/>
          <rect class="cls-2" x="619.7" y="20" width="10" height="10" transform="translate(1249.3 49.9) rotate(180)"/>
          <rect class="cls-2" x="629.7" y="10" width="10" height="10" transform="translate(1269.3 29.9) rotate(180)"/>
          <rect class="cls-2" x="639.7" y="40" width="10" height="10" transform="translate(1289.3 89.9) rotate(180)"/>
          <rect class="cls-2" x="639.7" y="110" width="10" height="10" transform="translate(1289.4 229.8) rotate(180)"/>
        </g>
        <rect class="cls-1" x="199.9" y="110" width="10" height="10"/>
        <g>
          <rect class="cls-2" x="719.6" y="30" width="10" height="10"/>
          <rect class="cls-2" x="729.6" y="30" width="10" height="10"/>
          <rect class="cls-2" x="739.6" y="30" width="10" height="10"/>
          <rect class="cls-2" x="719.6" y="20" width="10" height="10"/>
          <rect class="cls-2" x="729.6" y="20" width="10" height="10"/>
          <rect class="cls-2" x="719.6" y="10" width="10" height="10"/>
          <rect class="cls-2" x="709.6" y="40" width="10" height="10"/>
          <rect class="cls-2" x="709.6" y="109.9" width="10" height="10"/>
        </g>
        <g>
          <rect class="cls-2" x="719.6" y="119.9" width="10" height="10"/>
          <rect class="cls-2" x="729.6" y="119.9" width="10" height="10"/>
          <rect class="cls-2" x="739.6" y="119.9" width="10" height="10"/>
          <rect class="cls-2" x="719.6" y="129.9" width="10" height="10"/>
          <rect class="cls-2" x="729.6" y="129.9" width="10" height="10"/>
          <rect class="cls-2" x="719.6" y="139.9" width="10" height="10"/>
        </g>
        <g>
          <rect class="cls-5" x="219.9" y="469.9" width="10" height="10"/>
          <rect class="cls-5" x="219.9" y="459.9" width="10" height="10"/>
          <rect class="cls-5" x="229.9" y="449.9" width="10" height="10"/>
          <rect class="cls-5" x="229.9" y="439.9" width="10" height="10"/>
          <rect class="cls-5" x="229.9" y="469.9" width="10" height="10"/>
          <rect class="cls-5" x="229.9" y="459.9" width="10" height="10"/>
        </g>
        <g>
          <rect class="cls-5" x="159.9" y="509.9" width="10" height="10"/>
          <rect class="cls-5" x="150" y="509.9" width="10" height="10"/>
          <rect class="cls-5" x="139.9" y="509.9" width="10" height="10"/>
          <rect class="cls-5" x="169.9" y="509.9" width="10" height="10"/>
          <rect class="cls-5" x="169.9" y="499.9" width="10" height="10"/>
        </g>
        <rect class="cls-5" x="179.9" y="509.9" width="10" height="10"/>
        <rect class="cls-5" x="179.9" y="499.9" width="10" height="10"/>
        <rect class="cls-5" x="189.9" y="509.9" width="10" height="10"/>
        <rect class="cls-5" x="189.9" y="499.9" width="10" height="10"/>
        <rect class="cls-5" x="189.9" y="489.9" width="10" height="10"/>
        <rect class="cls-3" x="30" y="549.9" width="10" height="10"/>
        <rect class="cls-3" x="20" y="549.9" width="10" height="10"/>
        <rect class="cls-3" x="30" y="539.9" width="10" height="10"/>
        <rect class="cls-3" x="30" y="529.9" width="10" height="10"/>
        <polyline class="cls-5" points="50 519.9 50 529.9 40 529.9 40 559.9 80 559.9 80 519.9"/>
        <rect class="cls-3" x="20" y="539.9" width="10" height="10"/>
        <rect class="cls-3" x="10" y="549.9" width="10" height="10"/>
        <rect class="cls-3" x="30" y="719.8" width="10" height="10"/>
        <rect class="cls-3" x="20" y="719.8" width="10" height="10"/>
        <rect class="cls-3" x="30" y="729.8" width="10" height="10"/>
        <rect class="cls-3" x="30" y="739.8" width="10" height="10"/>
        <rect class="cls-3" x="20" y="729.8" width="10" height="10"/>
        <rect class="cls-3" x="40" y="699.8" width="10" height="10"/>
        <rect class="cls-3" x="40" y="709.8" width="10" height="10"/>
        <rect class="cls-3" x="50" y="709.8" width="10" height="10"/>
        <rect class="cls-3" x="60" y="709.8" width="10" height="10"/>
        <rect class="cls-5" x="399.9" y="679.8" width="10" height="10"/>
        <rect class="cls-5" x="409.8" y="679.8" width="10" height="10"/>
        <rect class="cls-5" x="409.8" y="689.8" width="10" height="10"/>
        <rect class="cls-5" x="409.8" y="699.8" width="10" height="10"/>
        <rect class="cls-5" x="419.8" y="679.8" width="10" height="10"/>
        <rect class="cls-5" x="399.9" y="689.8" width="10" height="10"/>
        <rect class="cls-5" x="399.9" y="699.8" width="10" height="10"/>
        <rect class="cls-5" x="439.8" y="599.8" width="10" height="10"/>
        <rect class="cls-5" x="449.8" y="599.8" width="10" height="10"/>
        <rect class="cls-5" x="449.8" y="609.8" width="10" height="10"/>
        <rect class="cls-5" x="459.8" y="599.8" width="10" height="10"/>
        <rect class="cls-5" x="439.8" y="609.8" width="10" height="10"/>
        <rect class="cls-5" x="439.8" y="619.8" width="10" height="10"/>
        <rect class="cls-5" x="439.8" y="629.8" width="10" height="10"/>
        <rect class="cls-5" x="449.8" y="629.8" width="10" height="10"/>
        <rect class="cls-5" x="449.8" y="639.7" width="10" height="10"/>
        <rect class="cls-5" x="449.8" y="649.7" width="10" height="10"/>
        <rect class="cls-5" x="449.8" y="659.7" width="10" height="10"/>
        <rect class="cls-5" x="459.8" y="629.8" width="10" height="10"/>
        <rect class="cls-5" x="459.8" y="649.7" width="10" height="10"/>
        <rect class="cls-5" x="459.8" y="639.7" width="10" height="10"/>
        <rect class="cls-5" x="469.8" y="629.8" width="10" height="10"/>
        <rect class="cls-5" x="469.8" y="649.7" width="10" height="10"/>
        <rect class="cls-5" x="469.8" y="639.7" width="10" height="10"/>
        <rect class="cls-5" x="449.8" y="619.8" width="10" height="10"/>
        <rect class="cls-5" x="459.8" y="619.8" width="10" height="10"/>
        <rect class="cls-5" x="469.8" y="619.8" width="10" height="10"/>
        <rect class="cls-5" x="459.8" y="609.8" width="10" height="10"/>
        <rect class="cls-5" x="469.8" y="609.8" width="10" height="10"/>
        <rect class="cls-5" x="479.8" y="609.8" width="10" height="10"/>
        <rect class="cls-5" x="479.8" y="619.8" width="10" height="10"/>
        <rect class="cls-5" x="479.8" y="629.7" width="10" height="10"/>
        <rect class="cls-5" x="479.8" y="639.7" width="10" height="10"/>
        <rect class="cls-5" x="489.8" y="619.8" width="10" height="10"/>
        <rect class="cls-5" x="489.8" y="629.7" width="10" height="10"/>
        <rect class="cls-5" x="499.8" y="609.8" width="10" height="10"/>
        <rect class="cls-5" x="499.8" y="619.8" width="10" height="10"/>
        <rect class="cls-5" x="489.8" y="639.7" width="10" height="10"/>
        <rect class="cls-5" x="499.8" y="629.7" width="10" height="10"/>
        <rect class="cls-5" x="509.8" y="619.8" width="10" height="10"/>
        <rect class="cls-5" x="509.8" y="629.7" width="10" height="10"/>
        <rect class="cls-5" x="529.8" y="609.8" width="10" height="10"/>
        <rect class="cls-5" x="539.8" y="589.8" width="10" height="10"/>
        <rect class="cls-5" x="549.8" y="569.8" width="10" height="10"/>
        <rect class="cls-5" x="519.8" y="609.8" width="10" height="10"/>
        <rect class="cls-5" x="519.8" y="619.8" width="10" height="10"/>
        <rect class="cls-5" x="529.8" y="589.8" width="10" height="10"/>
        <rect class="cls-5" x="499.8" y="639.7" width="10" height="10"/>
        <rect class="cls-5" x="479.8" y="649.7" width="10" height="10"/>
        <rect class="cls-5" x="489.8" y="649.7" width="10" height="10"/>
        <rect class="cls-5" x="479.8" y="659.7" width="10" height="10"/>
        <rect class="cls-5" x="439.8" y="679.8" width="10" height="10"/>
        <rect class="cls-5" x="439.8" y="689.8" width="10" height="10"/>
        <rect class="cls-5" x="429.8" y="689.8" width="10" height="10"/>
        <rect class="cls-5" x="419.8" y="699.8" width="10" height="10"/>
        <rect class="cls-5" x="399.9" y="709.8" width="10" height="10"/>
        <rect class="cls-5" x="469.8" y="659.7" width="10" height="10"/>
        <rect class="cls-5" x="459.8" y="669.7" width="10" height="10"/>
        <rect class="cls-5" x="449.8" y="679.8" width="10" height="10"/>
        <rect class="cls-5" x="469.8" y="599.8" width="10" height="10"/>
        <rect class="cls-5" x="479.8" y="599.8" width="10" height="10"/>
        <rect class="cls-5" x="489.8" y="599.8" width="10" height="10"/>
        <rect class="cls-5" x="489.8" y="609.8" width="10" height="10"/>
        <rect class="cls-5" x="499.8" y="599.8" width="10" height="10"/>
        <rect class="cls-5" x="519.8" y="569.8" width="10" height="10"/>
        <rect class="cls-5" x="519.8" y="579.8" width="10" height="10"/>
        <rect class="cls-5" x="519.8" y="559.8" width="10" height="10"/>
        <rect class="cls-5" x="529.8" y="569.8" width="10" height="10"/>
        <rect class="cls-5" x="529.8" y="579.8" width="10" height="10"/>
        <rect class="cls-5" x="519.8" y="589.8" width="10" height="10"/>
        <rect class="cls-5" x="519.8" y="599.8" width="10" height="10"/>
        <rect class="cls-5" x="529.8" y="599.9" width="10" height="10"/>
        <rect class="cls-5" x="509.8" y="609.8" width="10" height="10"/>
        <rect class="cls-5" x="529.8" y="559.8" width="10" height="10"/>
        <rect class="cls-5" x="539.8" y="569.8" width="10" height="10"/>
        <rect class="cls-5" x="539.8" y="579.8" width="10" height="10"/>
        <rect class="cls-5" x="549.8" y="559.8" width="10" height="10"/>
        <rect class="cls-5" x="539.8" y="559.8" width="10" height="10"/>
        <rect class="cls-5" x="509.8" y="599.8" width="10" height="10"/>
        <rect class="cls-5" x="439.8" y="639.8" width="10" height="10"/>
        <rect class="cls-5" x="439.8" y="649.7" width="10" height="10"/>
        <rect class="cls-5" x="439.8" y="659.7" width="10" height="10"/>
        <rect class="cls-5" x="439.8" y="669.7" width="10" height="10"/>
        <rect class="cls-5" x="429.8" y="679.8" width="10" height="10"/>
        <rect class="cls-5" x="419.8" y="689.8" width="10" height="10"/>
        <rect class="cls-5" x="459.8" y="659.7" width="10" height="10"/>
        <rect class="cls-5" x="449.8" y="669.7" width="10" height="10"/>
        <rect class="cls-3" x="10" y="719.8" width="10" height="10"/>
        <g>
          <rect class="cls-3" x="519.8" y="719.7" width="10" height="10" transform="translate(1049.7 1449.4) rotate(180)"/>
          <rect class="cls-3" x="529.8" y="719.7" width="10" height="10" transform="translate(1069.7 1449.4) rotate(180)"/>
          <rect class="cls-3" x="519.8" y="729.7" width="10" height="10" transform="translate(1049.7 1469.4) rotate(180)"/>
          <rect class="cls-3" x="519.8" y="739.7" width="10" height="10" transform="translate(1049.7 1489.4) rotate(180)"/>
          <rect class="cls-3" x="529.8" y="729.7" width="10" height="10" transform="translate(1069.7 1469.4) rotate(180)"/>
          <rect class="cls-3" x="539.8" y="719.7" width="10" height="10" transform="translate(1089.7 1449.4) rotate(180)"/>
        </g>
        <g>
          <rect class="cls-3" x="559.8" y="679.7" width="10" height="10" transform="translate(1129.7 1369.4) rotate(180)"/>
          <rect class="cls-3" x="569.8" y="679.7" width="10" height="10" transform="translate(1149.7 1369.4) rotate(180)"/>
          <rect class="cls-3" x="559.8" y="689.7" width="10" height="10" transform="translate(1129.7 1389.4) rotate(180)"/>
          <rect class="cls-3" x="559.8" y="699.7" width="10" height="10" transform="translate(1129.7 1409.4) rotate(180)"/>
          <rect class="cls-3" x="569.8" y="689.7" width="10" height="10" transform="translate(1149.7 1389.4) rotate(180)"/>
          <rect class="cls-3" x="579.8" y="679.7" width="10" height="10" transform="translate(1169.7 1369.4) rotate(180)"/>
        </g>
        <polygon class="cls-3" points="509.8 749.7 519.8 749.7 519.8 719.7 479.8 719.7 479.8 759.7 499.8 759.7 499.8 749.7 509.8 749.7"/>
        <polygon class="cls-3" points="589.8 679.7 589.8 669.8 599.8 669.7 599.8 639.8 559.8 639.8 559.8 679.8 589.8 679.7"/>
        <rect class="cls-5" x="160" y="519.9" width="10" height="10"/>
        <rect class="cls-5" x="160" y="549.8" width="10" height="10"/>
        <rect class="cls-5" x="189.9" y="519.9" width="10" height="10"/>
        <rect class="cls-5" x="189.9" y="549.8" width="10" height="10"/>
        <g>
          <rect class="cls-5" x="40" y="639.9" width="10" height="10"/>
          <rect class="cls-5" x="40" y="669.8" width="10" height="10"/>
          <rect class="cls-5" x="70" y="639.9" width="10" height="10"/>
          <rect class="cls-5" x="70" y="669.8" width="10" height="10"/>
        </g>
        <g>
          <rect class="cls-5" x="160" y="679.9" width="10" height="10"/>
          <rect class="cls-5" x="160" y="709.8" width="10" height="10"/>
          <rect class="cls-5" x="190" y="679.9" width="10" height="10"/>
          <rect class="cls-5" x="190" y="709.8" width="10" height="10"/>
        </g>
        <g>
          <rect class="cls-5" x="279.9" y="599.9" width="10" height="10"/>
          <rect class="cls-5" x="279.9" y="629.8" width="10" height="10"/>
          <rect class="cls-5" x="309.9" y="599.9" width="10" height="10"/>
          <rect class="cls-5" x="309.9" y="629.8" width="10" height="10"/>
        </g>
        <g>
          <rect class="cls-5" x="399.8" y="479.8" width="10" height="10"/>
          <rect class="cls-5" x="399.8" y="509.8" width="10" height="10"/>
          <rect class="cls-5" x="429.8" y="479.8" width="10" height="10"/>
          <rect class="cls-5" x="429.8" y="509.8" width="10" height="10"/>
        </g>
        <g>
          <rect class="cls-5" x="279.9" y="359.9" width="10" height="10"/>
          <rect class="cls-5" x="279.9" y="389.9" width="10" height="10"/>
          <rect class="cls-5" x="309.8" y="359.9" width="10" height="10"/>
          <rect class="cls-5" x="309.9" y="389.9" width="10" height="10"/>
        </g>
        <g>
          <rect class="cls-5" x="399.8" y="319.9" width="10" height="10"/>
          <rect class="cls-5" x="399.8" y="349.9" width="10" height="10"/>
          <rect class="cls-5" x="429.8" y="319.9" width="10" height="10"/>
          <rect class="cls-5" x="429.8" y="349.9" width="10" height="10"/>
        </g>
        <g>
          <rect class="cls-5" x="519.8" y="359.9" width="10" height="10"/>
          <rect class="cls-5" x="519.8" y="389.9" width="10" height="10"/>
          <rect class="cls-5" x="549.7" y="359.9" width="10" height="10"/>
          <rect class="cls-5" x="549.7" y="389.9" width="10" height="10"/>
        </g>
      </g>
    </g>
  </g>
</svg>