<?xml version="1.0" encoding="UTF-8"?>
<svg xmlns="http://www.w3.org/2000/svg" version="1.1" viewBox="0 0 200 200">
  <defs>
    <style>
      .cls-1 {
        fill: #ff3314;
      }

      .cls-2 {
        fill: #e8c96f;
      }

      .cls-3 {
        fill: #fff;
      }

      .cls-4 {
        fill: #ad1714;
      }

      .cls-5 {
        fill: #c29d4e;
      }

      .cls-6 {
        fill: #1a1a1a;
      }

      .cls-7 {
        fill: #1a1a1a;
      }
    </style>
  </defs>
  <!-- Generator: Adobe Illustrator 28.7.1, SVG Export Plug-In . SVG Version: 1.2.0 Build 142)  -->
  <g>
    <g id="_x5F_items-2" data-name="_x5F_items">
      <g>
        <g>
          <polygon class="cls-1" points="179.5 92.3 179.5 138.5 171.8 138.5 171.8 153.8 164.1 153.8 164.1 169.2 156.4 169.2 156.4 176.9 141.1 176.9 141.1 184.6 125.7 184.6 125.7 192.3 79.5 192.3 79.5 184.6 64.1 184.6 64.1 176.9 48.7 176.9 48.7 169.2 41.1 169.2 41.1 153.8 33.4 153.8 33.4 138.5 25.7 138.5 25.7 92.3 33.4 92.3 33.4 76.9 41.1 76.9 41.1 61.5 48.7 61.5 48.7 53.8 64.1 53.8 64.1 46.2 79.5 46.2 79.5 38.5 125.7 38.5 125.7 46.2 141.1 46.2 141.1 53.8 156.4 53.8 156.4 61.5 164.1 61.5 164.1 76.9 171.8 76.9 171.8 92.3 179.5 92.3"/>
          <rect class="cls-7" x="179.5" y="92.3" width="7.7" height="46.2"/>
          <rect class="cls-7" x="171.8" y="76.9" width="7.7" height="15.4"/>
          <rect class="cls-7" x="164.1" y="61.5" width="7.7" height="15.4"/>
          <rect class="cls-7" x="156.4" y="53.8" width="7.7" height="7.7"/>
          <rect class="cls-7" x="141.1" y="46.2" width="15.4" height="7.7"/>
          <rect class="cls-7" x="125.7" y="38.5" width="15.4" height="7.7"/>
          <rect class="cls-7" x="79.5" y="30.8" width="46.2" height="7.7"/>
          <rect class="cls-7" x="64.1" y="38.5" width="15.4" height="7.7"/>
          <rect class="cls-7" x="48.7" y="46.2" width="15.4" height="7.7"/>
          <rect class="cls-7" x="41.1" y="53.8" width="7.7" height="7.7"/>
          <rect class="cls-7" x="33.4" y="61.5" width="7.7" height="15.4"/>
          <rect class="cls-7" x="25.7" y="76.9" width="7.7" height="15.4"/>
          <rect class="cls-7" x="171.8" y="138.5" width="7.7" height="15.4"/>
          <rect class="cls-7" x="164.1" y="153.8" width="7.7" height="15.4"/>
          <rect class="cls-7" x="156.4" y="169.2" width="7.7" height="7.7"/>
          <rect class="cls-7" x="141.1" y="176.9" width="15.4" height="7.7"/>
          <rect class="cls-7" x="125.7" y="184.6" width="15.4" height="7.7"/>
          <rect class="cls-7" x="79.5" y="192.3" width="46.2" height="7.7"/>
          <rect class="cls-7" x="64.1" y="184.6" width="15.4" height="7.7"/>
          <rect class="cls-7" x="48.7" y="176.9" width="15.4" height="7.7"/>
          <rect class="cls-7" x="41.1" y="169.2" width="7.7" height="7.7"/>
          <rect class="cls-7" x="33.4" y="153.8" width="7.7" height="15.4"/>
          <rect class="cls-7" x="25.7" y="138.5" width="7.7" height="15.4"/>
          <rect class="cls-7" x="18" y="92.3" width="7.7" height="46.2"/>
        </g>
        <rect class="cls-5" x="87.2" y="23.1" width="30.8" height="7.7"/>
        <rect class="cls-6" x="87.2" y="7.7" width="7.7" height="7.7"/>
        <rect class="cls-6" x="94.9" y="0" width="15.4" height="7.7"/>
        <rect class="cls-6" x="110.3" y="7.7" width="7.7" height="7.7"/>
        <rect class="cls-6" x="79.5" y="23.1" width="7.7" height="7.7"/>
        <rect class="cls-6" x="118" y="23.1" width="7.7" height="7.7"/>
        <rect class="cls-6" x="87.2" y="15.4" width="30.8" height="7.7"/>
        <rect class="cls-2" x="87.2" y="23.1" width="23.1" height="7.7"/>
        <rect class="cls-3" x="87.2" y="23.1" width="7.7" height="7.7"/>
        <g>
          <rect class="cls-4" x="156.4" y="61.5" width="7.7" height="7.7"/>
          <rect class="cls-4" x="56.4" y="161.5" width="7.7" height="7.7"/>
          <polygon class="cls-4" points="171.8 84.6 164.1 84.6 164.1 92.3 156.4 92.3 156.4 100 164.1 100 164.1 107.7 156.4 107.7 156.4 115.4 164.1 115.4 164.1 123.1 156.4 123.1 156.4 130.8 148.7 130.8 148.7 138.5 141.1 138.5 141.1 146.2 148.7 146.2 148.7 153.8 141.1 153.8 141.1 161.5 133.4 161.5 133.4 153.8 125.7 153.8 125.7 161.5 118 161.5 118 169.2 110.3 169.2 110.3 176.9 102.6 176.9 102.6 169.2 94.9 169.2 94.9 176.9 87.2 176.9 87.2 169.2 79.5 169.2 79.5 176.9 71.8 176.9 71.8 184.6 79.5 184.6 125.7 184.6 125.7 176.9 141.1 176.9 141.1 169.2 156.4 169.2 156.4 153.8 164.1 153.8 164.1 138.5 171.8 138.5 171.8 92.3 171.8 84.6"/>
          <rect class="cls-4" x="156.4" y="76.9" width="7.7" height="7.7"/>
          <rect class="cls-4" x="148.7" y="69.2" width="7.7" height="7.7"/>
          <rect class="cls-4" x="48.7" y="169.2" width="7.7" height="7.7"/>
          <rect class="cls-4" x="64.1" y="169.2" width="7.7" height="7.7"/>
          <rect class="cls-4" x="41.1" y="161.5" width="7.7" height="7.7"/>
          <rect class="cls-4" x="148.7" y="53.8" width="7.7" height="7.7"/>
          <rect class="cls-4" x="141.1" y="61.5" width="7.7" height="7.7"/>
          <rect class="cls-4" x="148.7" y="84.6" width="7.7" height="7.7"/>
          <rect class="cls-4" x="148.7" y="100" width="7.7" height="7.7"/>
          <rect class="cls-4" x="148.7" y="115.4" width="7.7" height="7.7"/>
          <rect class="cls-4" x="133.4" y="146.2" width="7.7" height="7.7"/>
          <rect class="cls-4" x="102.6" y="161.5" width="7.7" height="7.7"/>
          <rect class="cls-4" x="110.3" y="153.8" width="7.7" height="7.7"/>
          <rect class="cls-4" x="118" y="146.2" width="7.7" height="7.7"/>
          <rect class="cls-4" x="125.7" y="138.5" width="7.7" height="7.7"/>
          <rect class="cls-4" x="133.4" y="130.8" width="7.7" height="7.7"/>
          <rect class="cls-4" x="141.1" y="123.1" width="7.7" height="7.7"/>
          <rect class="cls-4" x="141.1" y="107.7" width="7.7" height="7.7"/>
          <rect class="cls-4" x="87.2" y="161.5" width="7.7" height="7.7"/>
          <rect class="cls-4" x="71.8" y="161.5" width="7.7" height="7.7"/>
          <rect class="cls-4" x="48.7" y="153.8" width="7.7" height="7.7"/>
          <rect class="cls-4" x="41.1" y="146.2" width="7.7" height="7.7"/>
          <rect class="cls-4" x="33.4" y="138.5" width="7.7" height="7.7"/>
          <rect class="cls-4" x="25.7" y="130.8" width="7.7" height="7.7"/>
        </g>
        <g>
          <rect class="cls-3" x="102.6" y="84.6" width="7.7" height="15.4"/>
          <rect class="cls-3" x="102.6" y="123.1" width="7.7" height="15.4"/>
          <rect class="cls-3" x="94.9" y="100" width="7.7" height="7.7"/>
          <rect class="cls-3" x="110.3" y="100" width="7.7" height="7.7"/>
          <rect class="cls-3" x="118" y="92.3" width="7.7" height="7.7"/>
          <rect class="cls-3" x="110.3" y="115.4" width="7.7" height="7.7"/>
          <rect class="cls-3" x="118" y="123.1" width="7.7" height="7.7"/>
          <rect class="cls-3" x="94.9" y="115.4" width="7.7" height="7.7"/>
          <rect class="cls-3" x="87.2" y="123.1" width="7.7" height="7.7"/>
          <rect class="cls-3" x="87.2" y="92.3" width="7.7" height="7.7"/>
          <rect class="cls-3" x="102.6" y="107.7" width="7.7" height="7.7"/>
          <rect class="cls-3" x="79.5" y="107.7" width="15.4" height="7.7"/>
          <rect class="cls-3" x="118" y="107.7" width="15.4" height="7.7"/>
        </g>
        <g>
          <rect class="cls-3" x="41.1" y="84.6" width="7.7" height="15.4"/>
          <rect class="cls-3" x="41.1" y="123.1" width="7.7" height="15.4"/>
          <rect class="cls-3" x="33.4" y="100" width="7.7" height="7.7"/>
          <rect class="cls-3" x="48.7" y="100" width="7.7" height="7.7"/>
          <rect class="cls-3" x="56.4" y="92.3" width="7.7" height="7.7"/>
          <rect class="cls-3" x="48.7" y="115.4" width="7.7" height="7.7"/>
          <rect class="cls-3" x="56.4" y="123.1" width="7.7" height="7.7"/>
          <rect class="cls-3" x="33.4" y="115.4" width="7.7" height="7.7"/>
          <rect class="cls-3" x="25.7" y="123.1" width="7.7" height="7.7"/>
          <rect class="cls-3" x="25.7" y="92.3" width="7.7" height="7.7"/>
          <rect class="cls-3" x="41.1" y="107.7" width="7.7" height="7.7"/>
          <rect class="cls-3" x="25.7" y="107.7" width="7.7" height="7.7"/>
          <rect class="cls-3" x="56.4" y="107.7" width="15.4" height="7.7"/>
        </g>
        <g>
          <rect class="cls-3" x="164.1" y="84.6" width="7.7" height="15.4"/>
          <rect class="cls-3" x="164.1" y="123.1" width="7.7" height="15.4"/>
          <rect class="cls-3" x="156.4" y="100" width="7.7" height="7.7"/>
          <rect class="cls-3" x="171.8" y="100" width="7.7" height="7.7"/>
          <rect class="cls-3" x="171.8" y="115.4" width="7.7" height="7.7"/>
          <rect class="cls-3" x="156.4" y="115.4" width="7.7" height="7.7"/>
          <rect class="cls-3" x="148.7" y="123.1" width="7.7" height="7.7"/>
          <rect class="cls-3" x="148.7" y="92.3" width="7.7" height="7.7"/>
          <rect class="cls-3" x="164.1" y="107.7" width="7.7" height="7.7"/>
          <rect class="cls-3" x="141.1" y="107.7" width="15.4" height="7.7"/>
        </g>
        <g>
          <rect class="cls-2" x="41.1" y="69.2" width="7.7" height="7.7"/>
          <rect class="cls-2" x="48.7" y="61.5" width="7.7" height="7.7"/>
          <rect class="cls-2" x="56.4" y="69.2" width="7.7" height="7.7"/>
          <rect class="cls-2" x="64.1" y="61.5" width="7.7" height="7.7"/>
          <rect class="cls-2" x="71.8" y="69.2" width="7.7" height="7.7"/>
          <rect class="cls-2" x="79.5" y="61.5" width="7.7" height="7.7"/>
          <rect class="cls-2" x="87.2" y="69.2" width="7.7" height="7.7"/>
          <rect class="cls-2" x="94.9" y="61.5" width="7.7" height="7.7"/>
          <rect class="cls-2" x="102.6" y="69.2" width="7.7" height="7.7"/>
          <rect class="cls-2" x="110.3" y="61.5" width="7.7" height="7.7"/>
          <rect class="cls-2" x="118" y="69.2" width="7.7" height="7.7"/>
          <rect class="cls-2" x="125.7" y="61.5" width="7.7" height="7.7"/>
          <rect class="cls-2" x="133.4" y="69.2" width="7.7" height="7.7"/>
          <rect class="cls-2" x="141.1" y="61.5" width="7.7" height="7.7"/>
          <rect class="cls-2" x="148.7" y="69.2" width="7.7" height="7.7"/>
          <rect class="cls-2" x="156.4" y="61.5" width="7.7" height="7.7"/>
        </g>
        <g>
          <rect class="cls-2" x="41.1" y="153.8" width="7.7" height="7.7"/>
          <rect class="cls-2" x="48.7" y="146.2" width="7.7" height="7.7"/>
          <rect class="cls-2" x="56.4" y="153.8" width="7.7" height="7.7"/>
          <rect class="cls-2" x="64.1" y="146.2" width="7.7" height="7.7"/>
          <rect class="cls-2" x="71.8" y="153.8" width="7.7" height="7.7"/>
          <rect class="cls-2" x="79.5" y="146.2" width="7.7" height="7.7"/>
          <rect class="cls-2" x="87.2" y="153.8" width="7.7" height="7.7"/>
          <rect class="cls-2" x="94.9" y="146.2" width="7.7" height="7.7"/>
          <rect class="cls-2" x="102.6" y="153.8" width="7.7" height="7.7"/>
          <rect class="cls-2" x="110.3" y="146.2" width="7.7" height="7.7"/>
          <rect class="cls-2" x="118" y="153.8" width="7.7" height="7.7"/>
          <rect class="cls-2" x="125.7" y="146.2" width="7.7" height="7.7"/>
          <rect class="cls-2" x="133.4" y="153.8" width="7.7" height="7.7"/>
          <rect class="cls-2" x="141.1" y="146.2" width="7.7" height="7.7"/>
          <rect class="cls-2" x="148.7" y="153.8" width="7.7" height="7.7"/>
          <rect class="cls-2" x="156.4" y="146.2" width="7.7" height="7.7"/>
        </g>
      </g>
    </g>
  </g>
</svg>