<?xml version="1.0" encoding="UTF-8"?>
<svg xmlns="http://www.w3.org/2000/svg" version="1.1" viewBox="0 0 200 200">
  <defs>
    <style>
      .cls-1 {
        fill: #cad2d5;
      }

      .cls-2 {
        fill: #ff3314;
      }

      .cls-3 {
        fill: #019472;
      }

      .cls-4 {
        fill: #ad1714;
      }

      .cls-5 {
        fill: #005642;
      }

      .cls-6 {
        fill: #ededed;
      }
    </style>
  </defs>
  <!-- Generator: Adobe Illustrator 28.7.1, SVG Export Plug-In . SVG Version: 1.2.0 Build 142)  -->
  <g>
    <g id="_x5F_title-cta">
      <g>
        <g>
          <g>
            <g>
              <rect x="34.8" y="61.8" width="7.7" height="7.7" transform="translate(-.2 .1) rotate(-.2)"/>
              <rect x="34.7" y="31" width="7.7" height="7.7" transform="translate(0 .1) rotate(-.2)"/>
              <rect x="27" y="38.7" width="7.7" height="23" transform="translate(-.1 0) rotate(-.2)"/>
              <rect x="73.1" y="38.6" width="7.7" height="15.4" transform="translate(-.1 .2) rotate(-.2)"/>
              <rect x="42.5" y="69.4" width="15.4" height="7.7" transform="translate(-.2 .1) rotate(-.2)"/>
              <rect x="42.3" y="23.3" width="23" height="7.7" transform="translate(0 .1) rotate(-.2)"/>
              <rect x="65.4" y="31" width="7.7" height="7.7" transform="translate(0 .2) rotate(-.2)"/>
              <rect x="57.9" y="77.1" width="7.7" height="15.4" transform="translate(-.2 .2) rotate(-.2)"/>
              <rect x="65.3" y="7.9" width="15.4" height="7.7" transform="translate(0 .2) rotate(-.2)"/>
              <rect x="26.9" y="8" width="15.4" height="7.7" transform="translate(0 0) rotate(-.2)"/>
              <rect x="42.3" y=".3" width="23" height="7.7" transform="translate(0 .1) rotate(-.2)"/>
              <rect x="88.4" y="23.2" width="7.7" height="15.4" transform="translate(0 .2) rotate(-.2)"/>
              <rect x="11.6" y="23.4" width="7.7" height="15.4" transform="translate(0 0) rotate(-.2)"/>
              <rect x="96.1" y="38.6" width="7.7" height="15.4" transform="translate(-.1 .3) rotate(-.2)"/>
              <rect x="4" y="38.8" width="7.7" height="23" transform="translate(-.1 0) rotate(-.2)"/>
              <rect x="80.7" y="15.6" width="7.7" height="7.7" transform="translate(0 .2) rotate(-.2)"/>
              <rect x="19.3" y="15.7" width="7.7" height="7.7" transform="translate(0 0) rotate(-.2)"/>
              <rect x="27.1" y="84.8" width="15.4" height="7.7" transform="translate(-.2 0) rotate(-.2)"/>
              <rect x="42.5" y="92.4" width="15.4" height="7.7" transform="translate(-.3 .1) rotate(-.2)"/>
              <rect x="11.7" y="61.8" width="7.7" height="15.4" transform="translate(-.2 0) rotate(-.2)"/>
              <rect x="19.4" y="77.2" width="7.7" height="7.7" transform="translate(-.2 0) rotate(-.2)"/>
              <rect x="150.3" y="192" width="15.4" height="7.7" transform="translate(-.5 .4) rotate(-.2)"/>
              <rect x="142.6" y="176.7" width="7.7" height="15.4" transform="translate(-.5 .4) rotate(-.2)"/>
              <rect x="157.9" y="161.3" width="7.7" height="15.4" transform="translate(-.4 .4) rotate(-.2)"/>
              <rect x="134.9" y="161.3" width="7.7" height="15.4" transform="translate(-.4 .4) rotate(-.2)"/>
              <rect x="150.2" y="145.9" width="7.7" height="15.4" transform="translate(-.4 .4) rotate(-.2)"/>
              <rect x="127.2" y="146" width="7.7" height="15.4" transform="translate(-.4 .3) rotate(-.2)"/>
              <rect x="142.5" y="130.6" width="7.7" height="15.4" transform="translate(-.4 .4) rotate(-.2)"/>
              <rect x="119.4" y="130.6" width="7.7" height="15.4" transform="translate(-.4 .3) rotate(-.2)"/>
              <rect x="134.8" y="115.2" width="7.7" height="15.4" transform="translate(-.3 .4) rotate(-.2)"/>
              <rect x="111.7" y="115.3" width="7.7" height="15.4" transform="translate(-.3 .3) rotate(-.2)"/>
              <rect x="127" y="99.9" width="7.7" height="15.4" transform="translate(-.3 .3) rotate(-.2)"/>
              <rect x="104" y="100" width="7.7" height="15.4" transform="translate(-.3 .3) rotate(-.2)"/>
              <rect x="119.3" y="84.6" width="7.7" height="15.4" transform="translate(-.2 .3) rotate(-.2)"/>
              <rect x="96.3" y="84.6" width="7.7" height="15.4" transform="translate(-.2 .3) rotate(-.2)"/>
              <rect x="111.6" y="69.2" width="7.7" height="15.4" transform="translate(-.2 .3) rotate(-.2)"/>
              <rect x="88.6" y="69.3" width="7.7" height="15.4" transform="translate(-.2 .2) rotate(-.2)"/>
              <rect x="103.9" y="53.9" width="7.7" height="15.4" transform="translate(-.2 .3) rotate(-.2)"/>
              <rect x="80.8" y="54" width="7.7" height="15.4" transform="translate(-.2 .2) rotate(-.2)"/>
              <polygon class="cls-3" points="165.6 176.6 165.7 192 150.3 192 150.3 176.7 142.6 176.7 142.5 161.3 134.9 161.3 134.8 146 127.1 146 127.1 130.6 119.4 130.7 119.4 115.3 111.7 115.3 111.7 100 104 100 103.9 84.6 96.3 84.6 96.2 69.3 88.5 69.3 88.5 53.9 80.8 54 80.8 38.6 73.1 38.6 73.1 30.9 65.4 31 65.4 23.3 42.3 23.3 42.4 31 34.7 31 34.7 38.7 27 38.7 27.1 61.8 34.8 61.8 34.8 69.4 42.5 69.4 42.5 77.1 57.8 77.1 57.9 92.4 42.5 92.5 42.5 84.8 27.1 84.8 27.1 77.1 19.4 77.2 19.4 61.8 11.7 61.8 11.7 38.8 19.3 38.8 19.3 23.4 27 23.4 27 15.7 42.3 15.7 42.3 8 65.3 7.9 65.3 15.6 80.7 15.6 80.7 23.2 88.4 23.2 88.4 38.6 96.1 38.6 96.2 53.9 103.9 53.9 103.9 69.3 111.6 69.2 111.6 84.6 119.3 84.6 119.3 99.9 127 99.9 127.1 115.3 134.7 115.3 134.8 130.6 142.5 130.6 142.5 146 150.2 145.9 150.2 161.3 157.9 161.3 157.9 176.6 165.6 176.6"/>
              <rect x="165.6" y="176.6" width="7.7" height="15.4" transform="translate(-.5 .4) rotate(-.2)"/>
            </g>
            <rect class="cls-5" x="158" y="176.6" width="7.7" height="15.4" transform="translate(-.5 .4) rotate(-.2)"/>
            <rect class="cls-5" x="150.2" y="161.3" width="7.7" height="15.4" transform="translate(-.4 .4) rotate(-.2)"/>
            <rect class="cls-5" x="142.5" y="145.9" width="7.7" height="15.4" transform="translate(-.4 .4) rotate(-.2)"/>
            <rect class="cls-5" x="134.8" y="130.6" width="7.7" height="15.4" transform="translate(-.4 .4) rotate(-.2)"/>
            <rect class="cls-5" x="127.1" y="115.3" width="7.7" height="15.4" transform="translate(-.3 .3) rotate(-.2)"/>
            <rect class="cls-5" x="119.4" y="99.9" width="7.7" height="15.4" transform="translate(-.3 .3) rotate(-.2)"/>
            <rect class="cls-5" x="111.6" y="84.6" width="7.7" height="15.4" transform="translate(-.2 .3) rotate(-.2)"/>
            <rect class="cls-5" x="103.9" y="69.3" width="7.7" height="15.4" transform="translate(-.2 .3) rotate(-.2)"/>
            <rect class="cls-5" x="96.2" y="53.9" width="7.7" height="15.4" transform="translate(-.2 .3) rotate(-.2)"/>
            <rect class="cls-5" x="88.5" y="38.6" width="7.7" height="15.4" transform="translate(-.1 .2) rotate(-.2)"/>
            <rect class="cls-5" x="80.7" y="23.2" width="7.7" height="15.4" transform="translate(0 .2) rotate(-.2)"/>
            <rect class="cls-5" x="73" y="15.6" width="7.7" height="7.7" transform="translate(0 .2) rotate(-.2)"/>
            <rect class="cls-5" x="27" y="31.1" width="7.7" height="7.7" transform="translate(0 0) rotate(-.2)"/>
            <rect class="cls-5" x="34.7" y="23.4" width="7.7" height="7.7" transform="translate(0 .1) rotate(-.2)"/>
            <rect class="cls-5" x="27.1" y="61.8" width="7.7" height="7.7" transform="translate(-.2 0) rotate(-.2)"/>
            <rect class="cls-5" x="34.8" y="69.4" width="7.7" height="7.7" transform="translate(-.2 .1) rotate(-.2)"/>
            <rect class="cls-5" x="50.2" y="77.1" width="7.7" height="7.7" transform="translate(-.2 .1) rotate(-.2)"/>
          </g>
          <rect class="cls-2" x="42.3" y="8" width="7.7" height="7.7" transform="translate(0 .1) rotate(-.2)"/>
          <rect class="cls-4" x="150.2" y="161.3" width="7.7" height="7.7" transform="translate(-.4 .4) rotate(-.2)"/>
          <rect class="cls-2" x="142.6" y="161.3" width="7.7" height="15.4" transform="translate(-.4 .4) rotate(-.2)"/>
          <rect class="cls-4" x="134.8" y="130.6" width="7.7" height="7.7" transform="translate(-.4 .4) rotate(-.2)"/>
          <rect class="cls-2" x="127.1" y="130.6" width="7.7" height="15.4" transform="translate(-.4 .3) rotate(-.2)"/>
          <rect class="cls-4" x="119.3" y="99.9" width="7.7" height="7.7" transform="translate(-.3 .3) rotate(-.2)"/>
          <rect class="cls-2" x="111.7" y="99.9" width="7.7" height="15.4" transform="translate(-.3 .3) rotate(-.2)"/>
          <rect class="cls-4" x="103.9" y="69.3" width="7.7" height="7.7" transform="translate(-.2 .3) rotate(-.2)"/>
          <rect class="cls-2" x="96.2" y="69.3" width="7.7" height="15.4" transform="translate(-.2 .3) rotate(-.2)"/>
          <rect class="cls-4" x="88.5" y="38.6" width="7.7" height="7.7" transform="translate(-.1 .2) rotate(-.2)"/>
          <rect class="cls-2" x="80.8" y="38.6" width="7.7" height="15.4" transform="translate(-.1 .2) rotate(-.2)"/>
          <rect class="cls-4" x="73" y="15.6" width="7.7" height="7.7" transform="translate(0 .2) rotate(-.2)"/>
          <rect class="cls-2" x="65.4" y="15.6" width="7.7" height="15.4" transform="translate(0 .2) rotate(-.2)"/>
          <rect class="cls-4" x="34.7" y="23.4" width="7.7" height="7.7" transform="translate(0 .1) rotate(-.2)"/>
          <rect class="cls-2" x="34.6" y="15.7" width="7.7" height="7.7" transform="translate(0 .1) rotate(-.2)"/>
          <rect class="cls-2" x="19.4" y="46.4" width="7.7" height="7.7" transform="translate(-.1 0) rotate(-.2)"/>
          <rect class="cls-2" x="11.7" y="38.8" width="7.7" height="15.4" transform="translate(-.1 0) rotate(-.2)"/>
          <rect class="cls-4" x="34.8" y="69.4" width="7.7" height="7.7" transform="translate(-.2 .1) rotate(-.2)"/>
          <rect class="cls-2" x="27.1" y="77.1" width="15.4" height="7.7" transform="translate(-.2 0) rotate(-.2)"/>
          <rect class="cls-4" x="19.4" y="46.4" width="7.7" height="7.7" transform="translate(-.1 0) rotate(-.2)"/>
        </g>
        <g>
          <g>
            <g>
              <polygon class="cls-1" points="35.1 177 35.1 192.3 50.5 192.3 50.4 176.9 58.1 176.9 58.1 161.5 65.7 161.5 65.7 146.2 73.4 146.1 73.3 130.8 81 130.8 81 115.4 88.7 115.4 88.6 100 96.3 100 96.3 84.6 103.9 84.6 103.9 69.3 111.6 69.2 111.5 53.9 119.2 53.9 119.2 38.5 126.8 38.5 126.8 30.8 134.5 30.8 134.5 23.1 157.5 23 157.5 30.7 165.2 30.7 165.2 38.4 172.9 38.4 173 61.4 165.3 61.4 165.3 69.1 157.6 69.1 157.7 76.8 142.3 76.8 142.4 92.2 157.7 92.2 157.7 84.5 173 84.4 173 76.8 180.7 76.7 180.7 61.4 188.3 61.4 188.3 38.3 180.6 38.3 180.6 23 172.9 23 172.9 15.3 157.5 15.4 157.5 7.7 134.4 7.7 134.5 15.4 119.1 15.5 119.1 23.1 111.4 23.2 111.5 38.5 103.8 38.5 103.9 53.9 96.2 53.9 96.2 69.3 88.5 69.3 88.6 84.7 80.9 84.7 80.9 100 73.3 100.1 73.3 115.4 65.6 115.4 65.7 130.8 58 130.8 58 146.2 50.3 146.2 50.4 161.6 42.7 161.6 42.7 176.9 35.1 177"/>
              <rect x="157.6" y="61.4" width="7.7" height="7.7" transform="translate(-.2 .4) rotate(-.2)"/>
              <rect x="157.6" y="30.7" width="7.7" height="7.7" transform="translate(0 .4) rotate(-.2)"/>
              <rect x="165.3" y="38.4" width="7.7" height="23" transform="translate(-.1 .4) rotate(-.2)"/>
              <rect x="119.2" y="38.5" width="7.7" height="15.4" transform="translate(-.1 .3) rotate(-.2)"/>
              <rect x="142.3" y="69.1" width="15.4" height="7.7" transform="translate(-.2 .4) rotate(-.2)"/>
              <rect x="134.5" y="23.1" width="23" height="7.7" transform="translate(0 .4) rotate(-.2)"/>
              <rect x="126.8" y="30.8" width="7.7" height="7.7" transform="translate(0 .3) rotate(-.2)"/>
              <rect x="134.7" y="76.8" width="7.7" height="15.4" transform="translate(-.2 .4) rotate(-.2)"/>
              <rect x="119.1" y="7.8" width="15.4" height="7.7" transform="translate(0 .3) rotate(-.2)"/>
              <rect x="157.5" y="7.7" width="15.4" height="7.7" transform="translate(0 .4) rotate(-.2)"/>
              <rect x="134.4" y="0" width="23" height="7.7" transform="translate(0 .4) rotate(-.2)"/>
              <rect x="103.8" y="23.2" width="7.7" height="15.4" transform="translate(0 .3) rotate(-.2)"/>
              <rect x="180.6" y="23" width="7.7" height="15.4" transform="translate(0 .5) rotate(-.2)"/>
              <rect x="96.1" y="38.6" width="7.7" height="15.4" transform="translate(-.1 .3) rotate(-.2)"/>
              <rect x="188.3" y="38.3" width="7.7" height="23" transform="translate(-.1 .5) rotate(-.2)"/>
              <rect x="111.4" y="15.5" width="7.7" height="7.7" transform="translate(0 .3) rotate(-.2)"/>
              <rect x="172.9" y="15.3" width="7.7" height="7.7" transform="translate(0 .5) rotate(-.2)"/>
              <rect x="157.7" y="84.5" width="15.4" height="7.7" transform="translate(-.2 .4) rotate(-.2)"/>
              <rect x="142.4" y="92.2" width="15.4" height="7.7" transform="translate(-.3 .4) rotate(-.2)"/>
              <rect x="180.7" y="61.4" width="7.7" height="15.4" transform="translate(-.2 .5) rotate(-.2)"/>
              <rect x="173" y="76.7" width="7.7" height="7.7" transform="translate(-.2 .5) rotate(-.2)"/>
              <rect x="35.1" y="192.3" width="15.4" height="7.7" transform="translate(-.5 .1) rotate(-.2)"/>
              <rect x="50.4" y="176.9" width="7.7" height="15.4" transform="translate(-.5 .1) rotate(-.2)"/>
              <rect x="35" y="161.6" width="7.7" height="15.4" transform="translate(-.4 .1) rotate(-.2)"/>
              <rect x="58.1" y="161.5" width="7.7" height="15.4" transform="translate(-.4 .2) rotate(-.2)"/>
              <rect x="42.7" y="146.2" width="7.7" height="15.4" transform="translate(-.4 .1) rotate(-.2)"/>
              <rect x="65.7" y="146.1" width="7.7" height="15.4" transform="translate(-.4 .2) rotate(-.2)"/>
              <rect x="50.3" y="130.8" width="7.7" height="15.4" transform="translate(-.4 .1) rotate(-.2)"/>
              <rect x="73.4" y="130.8" width="7.7" height="15.4" transform="translate(-.4 .2) rotate(-.2)"/>
              <rect x="58" y="115.5" width="7.7" height="15.4" transform="translate(-.3 .2) rotate(-.2)"/>
              <rect x="81" y="115.4" width="7.7" height="15.4" transform="translate(-.3 .2) rotate(-.2)"/>
              <rect x="65.6" y="100.1" width="7.7" height="15.4" transform="translate(-.3 .2) rotate(-.2)"/>
              <rect x="88.6" y="100" width="7.7" height="15.4" transform="translate(-.3 .2) rotate(-.2)"/>
              <rect x="73.2" y="84.7" width="7.7" height="15.4" transform="translate(-.2 .2) rotate(-.2)"/>
              <rect x="96.3" y="84.6" width="7.7" height="15.4" transform="translate(-.2 .3) rotate(-.2)"/>
              <rect x="80.9" y="69.3" width="7.7" height="15.4" transform="translate(-.2 .2) rotate(-.2)"/>
              <rect x="103.9" y="69.3" width="7.7" height="15.4" transform="translate(-.2 .3) rotate(-.2)"/>
              <rect x="88.5" y="53.9" width="7.7" height="15.4" transform="translate(-.2 .2) rotate(-.2)"/>
              <rect x="111.6" y="53.9" width="7.7" height="15.4" transform="translate(-.2 .3) rotate(-.2)"/>
              <rect x="27.4" y="177" width="7.7" height="15.4" transform="translate(-.5 0) rotate(-.2)"/>
            </g>
            <rect class="cls-6" x="35.1" y="177" width="7.7" height="15.4" transform="translate(78.3 369.2) rotate(179.8)"/>
            <rect class="cls-6" x="42.7" y="161.6" width="7.7" height="15.4" transform="translate(93.6 338.4) rotate(179.8)"/>
            <rect class="cls-6" x="50.4" y="146.2" width="7.7" height="15.4" transform="translate(108.8 307.6) rotate(179.8)"/>
            <rect class="cls-6" x="58" y="130.8" width="7.7" height="15.4" transform="translate(124 276.8) rotate(179.8)"/>
            <rect class="cls-6" x="65.6" y="115.4" width="7.7" height="15.4" transform="translate(139.3 246) rotate(179.8)"/>
            <rect class="cls-6" x="73.3" y="100.1" width="7.7" height="15.4" transform="translate(154.5 215.3) rotate(179.8)"/>
            <rect class="cls-6" x="80.9" y="84.7" width="7.7" height="15.4" transform="translate(169.7 184.5) rotate(179.8)"/>
            <rect class="cls-6" x="88.6" y="69.3" width="7.7" height="15.4" transform="translate(185 153.7) rotate(179.8)"/>
            <rect class="cls-6" x="96.2" y="53.9" width="7.7" height="15.4" transform="translate(200.2 122.9) rotate(179.8)"/>
            <rect class="cls-6" x="103.8" y="38.5" width="7.7" height="15.4" transform="translate(215.5 92.1) rotate(179.8)"/>
            <rect class="cls-6" x="111.5" y="23.2" width="7.7" height="15.4" transform="translate(230.7 61.4) rotate(179.8)"/>
            <rect class="cls-6" x="119.1" y="15.5" width="7.7" height="7.7" transform="translate(246 38.3) rotate(179.8)"/>
            <rect class="cls-6" x="165.2" y="30.7" width="7.7" height="7.7" transform="translate(338.2 68.6) rotate(179.8)"/>
            <rect class="cls-6" x="157.5" y="23" width="7.7" height="7.7" transform="translate(322.8 53.3) rotate(179.8)"/>
            <rect class="cls-6" x="165.3" y="61.4" width="7.7" height="7.7" transform="translate(338.5 130) rotate(179.8)"/>
            <rect class="cls-6" x="157.7" y="69.1" width="7.7" height="7.7" transform="translate(323.2 145.5) rotate(179.8)"/>
            <rect class="cls-6" x="142.3" y="76.8" width="7.7" height="7.7" transform="translate(292.5 161) rotate(179.8)"/>
          </g>
          <rect class="cls-4" x="149.8" y="7.7" width="7.7" height="7.7" transform="translate(307.3 22.7) rotate(179.8)"/>
          <rect class="cls-2" x="42.7" y="161.6" width="7.7" height="7.7" transform="translate(93.5 330.7) rotate(179.8)"/>
          <rect class="cls-4" x="50.4" y="161.6" width="7.7" height="15.4" transform="translate(108.9 338.3) rotate(179.8)"/>
          <rect class="cls-2" x="58" y="130.8" width="7.7" height="7.7" transform="translate(124 269.1) rotate(179.8)"/>
          <rect class="cls-4" x="65.7" y="130.8" width="7.7" height="15.4" transform="translate(139.4 276.8) rotate(179.8)"/>
          <rect class="cls-2" x="73.3" y="100.1" width="7.7" height="7.7" transform="translate(154.5 207.6) rotate(179.8)"/>
          <rect class="cls-4" x="81" y="100" width="7.7" height="15.4" transform="translate(169.9 215.2) rotate(179.8)"/>
          <rect class="cls-2" x="88.5" y="69.3" width="7.7" height="7.7" transform="translate(185 146) rotate(179.8)"/>
          <rect class="cls-4" x="96.2" y="69.3" width="7.7" height="15.4" transform="translate(200.3 153.6) rotate(179.8)"/>
          <rect class="cls-2" x="103.8" y="38.5" width="7.7" height="7.7" transform="translate(215.4 84.5) rotate(179.8)"/>
          <rect class="cls-4" x="111.5" y="38.5" width="7.7" height="15.4" transform="translate(230.8 92.1) rotate(179.8)"/>
          <rect class="cls-2" x="119.1" y="15.5" width="7.7" height="7.7" transform="translate(246 38.3) rotate(179.8)"/>
          <rect class="cls-4" x="126.8" y="15.4" width="7.7" height="15.4" transform="translate(261.4 45.9) rotate(179.8)"/>
          <rect class="cls-2" x="157.5" y="23" width="7.7" height="7.7" transform="translate(322.8 53.3) rotate(179.8)"/>
          <rect class="cls-4" x="157.5" y="15.3" width="7.7" height="7.7" transform="translate(322.8 38) rotate(179.8)"/>
          <rect class="cls-4" x="173" y="46" width="7.7" height="7.7" transform="translate(353.7 99.3) rotate(179.8)"/>
          <rect class="cls-4" x="180.6" y="38.3" width="7.7" height="15.4" transform="translate(369.1 91.5) rotate(179.8)"/>
          <rect class="cls-2" x="157.7" y="69.1" width="7.7" height="7.7" transform="translate(323.2 145.5) rotate(179.8)"/>
          <rect class="cls-4" x="157.7" y="76.8" width="15.4" height="7.7" transform="translate(330.9 160.8) rotate(179.8)"/>
          <rect class="cls-2" x="173" y="46" width="7.7" height="7.7" transform="translate(353.7 99.3) rotate(179.8)"/>
        </g>
      </g>
    </g>
  </g>
</svg>