<?xml version="1.0" encoding="UTF-8"?>
<svg xmlns="http://www.w3.org/2000/svg" version="1.1" viewBox="0 0 200 200">
  <defs>
    <style>
      .cls-1 {
        fill: #e8c96f;
      }

      .cls-2 {
        fill: #c29d4e;
      }

      .cls-3 {
        fill: #1a1a1a;
      }
    </style>
  </defs>
  <!-- Generator: Adobe Illustrator 28.7.1, SVG Export Plug-In . SVG Version: 1.2.0 Build 142)  -->
  <g>
    <g id="_x5F_title-cta">
      <g>
        <rect class="cls-2" x="14.7" y="151.7" width="7.4" height="7.4" transform="translate(-137 173.6) rotate(-89.9)"/>
        <rect class="cls-2" x="140.9" y="114.9" width="7.4" height="7.4" transform="translate(25.7 263) rotate(-89.9)"/>
        <rect class="cls-2" x="163.1" y="159.4" width="7.4" height="7.4" transform="translate(3.3 329.6) rotate(-89.9)"/>
        <rect class="cls-2" x="170.5" y="166.9" width="7.4" height="7.4" transform="translate(3.2 344.4) rotate(-89.9)"/>
        <rect class="cls-2" x="177.9" y="174.3" width="7.4" height="7.4" transform="translate(3.2 359.2) rotate(-89.9)"/>
        <rect class="cls-2" x="185.3" y="181.7" width="7.4" height="7.4" transform="translate(3.1 374) rotate(-89.9)"/>
        <rect class="cls-2" x="25.8" y="155.5" width="7.4" height="14.8" transform="translate(-133.4 192.1) rotate(-89.9)"/>
        <polygon class="cls-2" points="163.1 152 163.1 159.4 148.2 159.4 148.2 152 118.6 151.9 118.6 137.1 111.2 137.1 111.2 129.7 81.5 129.6 81.5 137 44.4 136.9 44.4 129.5 37 129.5 37 136.9 14.8 136.9 14.7 151.7 7.3 151.7 7.4 129.5 22.2 129.5 22.2 122.1 29.6 122.1 29.7 99.8 37.1 99.8 37.1 85 44.5 85 44.6 62.8 29.7 62.7 29.8 55.3 37.2 55.3 37.2 47.9 59.4 48 59.4 85.1 52 85 51.9 99.9 59.3 99.9 59.3 107.3 103.8 107.4 103.8 114.8 133.5 114.9 133.5 122.3 140.9 122.3 140.9 137.1 148.3 137.2 148.3 144.6 155.7 144.6 155.7 152 163.1 152"/>
        <rect class="cls-1" x="40.9" y="44.2" width="7.4" height="14.8" transform="translate(-7.1 96.1) rotate(-89.9)"/>
        <rect class="cls-1" x="89" y="107.4" width="7.4" height="37.1" transform="translate(-33.4 218.3) rotate(-89.9)"/>
        <rect class="cls-1" x="59.3" y="114.7" width="7.4" height="37.1" transform="translate(-70.4 196) rotate(-89.9)"/>
        <g>
          <path class="cls-1" d="M37.1,85c0,3.7,0,11.1,0,14.8h7.4s0-7.4,0-7.4h7.4s0-7.4,0-7.4h-14.8Z"/>
          <polygon class="cls-1" points="29.6 122.1 44.5 122.1 44.5 114.7 37.1 114.7 37.1 99.8 29.7 99.8 29.6 122.1"/>
        </g>
        <g>
          <rect class="cls-3" x="78" y="29.5" width="7.4" height="29.7" transform="translate(37.2 125.9) rotate(-89.9)"/>
          <rect class="cls-3" x="100.3" y="29.5" width="7.4" height="14.8" transform="translate(66.8 140.8) rotate(-89.9)"/>
          <rect class="cls-3" x="111.4" y="25.8" width="7.4" height="7.4" transform="translate(85.3 144.6) rotate(-89.9)"/>
          <rect class="cls-3" x="118.8" y="18.4" width="7.4" height="7.4" transform="translate(100.2 144.6) rotate(-89.9)"/>
          <rect class="cls-3" x="111.4" y="11" width="7.4" height="7.4" transform="translate(100.2 129.8) rotate(-89.9)"/>
          <path class="cls-3" d="M59.5,3.5h-7.4c0,4.9,0,17.5,0,22.2h7.4s0-22.2,0-22.2Z"/>
          <rect class="cls-3" x="104" y="3.6" width="7.4" height="7.4" transform="translate(100.2 115) rotate(-89.9)"/>
          <rect class="cls-3" x="89.2" y="25.8" width="7.4" height="7.4" transform="translate(63.2 122.3) rotate(-89.9)"/>
          <rect class="cls-3" x="44.6" y="25.7" width="7.4" height="7.4" transform="translate(18.9 77.7) rotate(-89.9)"/>
          <rect class="cls-3" x="81.7" y="18.4" width="7.4" height="7.4" transform="translate(63.2 107.5) rotate(-89.9)"/>
          <rect class="cls-3" x="37.2" y="18.3" width="7.4" height="7.4" transform="translate(18.9 62.9) rotate(-89.9)"/>
          <rect class="cls-3" x="122.6" y="7.3" width="14.8" height="7.4" transform="translate(118.7 141) rotate(-89.9)"/>
          <polygon class="cls-3" points="59.5 33.1 52.1 33.1 52 40.5 37.2 40.5 37.2 47.9 59.4 48 59.5 33.1"/>
          <polygon class="cls-3" points="37.2 55.3 37.2 47.9 22.4 47.9 22.3 62.7 29.7 62.7 29.8 55.3 37.2 55.3"/>
          <rect class="cls-3" x="177.8" y="181.7" width="7.4" height="7.4" transform="translate(-4.2 366.6) rotate(-89.9)"/>
          <rect class="cls-3" x="170.4" y="174.3" width="7.4" height="7.4" transform="translate(-4.2 351.8) rotate(-89.9)"/>
          <rect class="cls-3" x="163" y="166.9" width="7.4" height="7.4" transform="translate(-4.2 337) rotate(-89.9)"/>
          <rect class="cls-3" x="129.7" y="140.8" width="7.4" height="29.7" transform="translate(-22.5 288.8) rotate(-89.9)"/>
          <rect class="cls-3" x="107.5" y="140.8" width="14.8" height="7.4" transform="translate(-29.9 259.1) rotate(-89.9)"/>
          <rect class="cls-3" x="92.7" y="118.5" width="7.4" height="29.7" transform="translate(-37.2 229.4) rotate(-89.9)"/>
          <rect class="cls-3" x="59.3" y="122.1" width="7.4" height="37.1" transform="translate(-77.8 203.4) rotate(-89.9)"/>
          <rect class="cls-3" x="151.9" y="155.7" width="7.4" height="14.8" transform="translate(-7.8 318.4) rotate(-89.9)"/>
          <path class="cls-3" d="M192.7,181.7v7.4s-7.4,0-7.4,0v7.4c3.7,0,11.1,0,14.8,0,0-3.7,0-11.1,0-14.8h-7.4Z"/>
          <rect class="cls-3" x="185.3" y="174.3" width="7.4" height="7.4" transform="translate(10.6 366.7) rotate(-89.9)"/>
          <rect class="cls-3" x="177.9" y="166.9" width="7.4" height="7.4" transform="translate(10.6 351.8) rotate(-89.9)"/>
          <rect class="cls-3" x="170.5" y="159.5" width="7.4" height="7.4" transform="translate(10.7 337) rotate(-89.9)"/>
          <rect class="cls-3" x="163.1" y="152" width="7.4" height="7.4" transform="translate(10.7 322.2) rotate(-89.9)"/>
          <rect class="cls-3" x="155.7" y="144.6" width="7.4" height="7.4" transform="translate(10.8 307.4) rotate(-89.9)"/>
          <rect class="cls-3" x="114.9" y="96.3" width="7.4" height="29.7" transform="translate(7.3 229.6) rotate(-89.9)"/>
          <rect class="cls-3" x="77.9" y="81.4" width="7.4" height="44.5" transform="translate(-22.2 185) rotate(-89.9)"/>
          <rect class="cls-3" x="137.2" y="126" width="14.8" height="7.4" transform="translate(14.6 274) rotate(-89.9)"/>
          <rect class="cls-3" x="148.3" y="137.2" width="7.4" height="7.4" transform="translate(10.8 292.6) rotate(-89.9)"/>
          <rect class="cls-3" x="133.5" y="114.9" width="7.4" height="7.4" transform="translate(18.3 255.5) rotate(-89.9)"/>
          <rect class="cls-3" x="140.9" y="107.5" width="7.4" height="7.4" transform="translate(33.1 255.6) rotate(-89.9)"/>
          <rect class="cls-3" x="148.3" y="114.9" width="7.4" height="7.4" transform="translate(33.1 270.4) rotate(-89.9)"/>
          <rect class="cls-3" x="25.9" y="148" width="7.4" height="14.8" transform="translate(-126 184.7) rotate(-89.9)"/>
          <polygon class="cls-3" points="14.7 151.7 22.2 151.7 22.2 144.3 37 144.3 37 136.9 14.8 136.9 14.7 151.7"/>
          <rect class="cls-3" x="14.8" y="107.2" width="22.3" height="7.4" transform="translate(-85.1 136.7) rotate(-89.9)"/>
          <rect class="cls-3" x="11.1" y="118.3" width="7.4" height="14.8" transform="translate(-111 140.3) rotate(-89.9)"/>
          <rect class="cls-3" x="-7.5" y="136.9" width="22.3" height="7.4" transform="translate(-136.9 143.9) rotate(-89.9)"/>
          <rect class="cls-3" x="7.3" y="151.7" width="7.4" height="7.4" transform="translate(-144.4 166.1) rotate(-89.9)"/>
          <rect class="cls-3" x="14.7" y="159.1" width="7.4" height="7.4" transform="translate(-144.5 180.9) rotate(-89.9)"/>
          <path class="cls-3" d="M22.1,166.6v7.4c4.9,0,17.5,0,22.2,0v-14.8s-7.4,0-7.4,0v7.4s-14.8,0-14.8,0Z"/>
          <rect class="cls-3" x="37" y="129.5" width="7.4" height="7.4" transform="translate(-92.6 173.7) rotate(-89.9)"/>
          <rect class="cls-3" x="26" y="88.7" width="14.8" height="7.4" transform="translate(-59.1 125.6) rotate(-89.9)"/>
          <polygon class="cls-3" points="44.6 62.8 29.7 62.7 29.7 70.2 37.1 70.2 37.1 85 44.5 85 44.6 62.8"/>
          <rect class="cls-3" x="48.2" y="88.8" width="14.8" height="7.4" transform="translate(-36.9 147.9) rotate(-89.9)"/>
          <rect class="cls-3" x="44.6" y="62.8" width="37.1" height="7.4" transform="translate(-3.5 129.5) rotate(-89.9)"/>
          <rect class="cls-3" x="26.1" y="7.1" width="14.8" height="7.4" transform="translate(22.7 44.4) rotate(-89.9)"/>
          <rect class="cls-3" x="85.5" y="7.2" width="14.8" height="7.4" transform="translate(81.8 103.8) rotate(-89.9)"/>
          <rect class="cls-3" x="70.6" y="7.2" width="14.8" height="7.4" transform="translate(67 89) rotate(-89.9)"/>
        </g>
      </g>
    </g>
  </g>
</svg>