<?xml version="1.0" encoding="UTF-8"?>
<svg xmlns="http://www.w3.org/2000/svg" version="1.1" viewBox="0 0 200 200">
  <defs>
    <style>
      .cls-1 {
        fill: #ff3314;
      }

      .cls-2 {
        fill: #019472;
      }

      .cls-3 {
        fill: #e8c96f;
      }

      .cls-4 {
        fill: #fff;
      }

      .cls-5 {
        fill: #ad1714;
      }

      .cls-6 {
        fill: #005642;
      }

      .cls-7 {
        fill: #ededed;
      }

      .cls-8 {
        fill: #1a1a1a;
      }
    </style>
  </defs>
  <!-- Generator: Adobe Illustrator 28.7.1, SVG Export Plug-In . SVG Version: 1.2.0 Build 142)  -->
  <g>
    <g id="_x5F_title-cta">
      <g>
        <g>
          <g>
            <path class="cls-2" d="M174,81.5v-14.8s-7.4,0-7.4,0v-14.8s-7.4,0-7.4,0v-7.4s-14.8,0-14.8,0v-7.4s-14.8,0-14.8,0v-7.4s-59.2,0-59.2,0v7.4s-14.8,0-14.8,0v7.4s-14.8,0-14.8,0v7.4s-7.4,0-7.4,0v14.8s-7.4,0-7.4,0v14.8s-7.4,0-7.4,0v59.2s7.4,0,7.4,0v14.8s7.4,0,7.4,0v14.8s7.4,0,7.4,0v7.4s14.8,0,14.8,0v7.4s14.8,0,14.8,0v7.4s59.2,0,59.2,0v-7.4s14.8,0,14.8,0v-7.4s14.8,0,14.8,0v-7.4s7.4,0,7.4,0v-14.8s7.4,0,7.4,0v-14.8s7.4,0,7.4,0v-59.2s-7.4,0-7.4,0ZM151.8,125.9h-7.4s0,14.8,0,14.8h-7.4s0,7.4,0,7.4h-7.4s0,7.4,0,7.4h-14.8s0,7.4,0,7.4h-29.6s0-7.4,0-7.4h-14.8s0-7.4,0-7.4h-7.4s0-7.4,0-7.4h-7.4s0-14.8,0-14.8h-7.4s0-29.6,0-29.6h7.4s0-14.8,0-14.8h7.4s0-7.4,0-7.4h7.4s0-7.4,0-7.4h14.8s0-7.4,0-7.4h29.6s0,7.4,0,7.4h14.8s0,7.4,0,7.4h7.4s0,7.4,0,7.4h7.4s0,14.8,0,14.8h7.4s0,29.6,0,29.6Z"/>
            <polygon class="cls-1" points="85.1 22.3 85.1 37.1 70.3 37.1 70.3 29.7 48.1 29.7 48.1 22.3 25.9 22.3 25.9 14.9 40.7 14.9 40.7 7.5 62.9 7.5 62.9 14.9 77.7 14.9 77.7 22.3 85.1 22.3"/>
            <rect class="cls-5" x="25.9" y="29.7" width="22.2" height="7.4"/>
            <rect class="cls-5" x="55.5" y="37.1" width="14.8" height="7.4"/>
            <polygon class="cls-1" points="48.1 44.5 40.7 44.5 40.7 51.9 33.3 51.9 33.3 59.3 48.1 59.3 48.1 66.7 55.5 66.7 55.5 51.9 62.9 51.9 62.9 44.5 48.1 44.5"/>
            <polygon class="cls-1" points="100 22.3 92.5 22.3 92.6 37.1 100 37.1 107.4 37.1 107.4 22.3 100 22.3"/>
            <polygon class="cls-1" points="114.8 22.3 114.8 37.1 129.6 37.1 129.6 29.7 151.8 29.7 151.8 22.3 174 22.2 174 14.8 159.2 14.8 159.2 7.4 137 7.5 137 14.9 122.2 14.9 122.2 22.3 114.8 22.3"/>
            <rect class="cls-5" x="151.8" y="29.6" width="22.2" height="7.4"/>
            <rect class="cls-5" x="129.6" y="37.1" width="14.8" height="7.4"/>
            <polygon class="cls-1" points="151.8 44.5 159.2 44.5 159.2 51.9 166.6 51.9 166.6 59.3 151.8 59.3 151.8 66.7 144.4 66.7 144.4 51.9 137 51.9 137 44.5 151.8 44.5"/>
            <rect class="cls-6" x="100" y="185.2" width="7.4" height="7.4"/>
            <rect class="cls-6" x="77.8" y="185.2" width="7.4" height="7.4"/>
            <rect class="cls-6" x="85.2" y="177.8" width="7.4" height="7.4"/>
            <rect class="cls-6" x="48.2" y="170.4" width="7.4" height="7.4"/>
            <rect class="cls-6" x="40.8" y="96.4" width="7.4" height="7.4"/>
            <rect class="cls-6" x="48.2" y="88.9" width="7.4" height="7.4"/>
            <rect class="cls-6" x="33.4" y="155.6" width="7.4" height="7.4"/>
            <rect class="cls-6" x="40.8" y="163" width="7.4" height="7.4"/>
            <rect class="cls-6" x="114.8" y="185.2" width="7.4" height="7.4"/>
            <rect class="cls-6" x="122.2" y="177.8" width="7.4" height="7.4"/>
            <rect class="cls-6" x="137.1" y="177.7" width="7.4" height="7.4"/>
            <rect class="cls-6" x="144.5" y="170.3" width="7.4" height="7.4"/>
            <rect class="cls-6" x="151.9" y="162.9" width="7.4" height="7.4"/>
            <rect class="cls-6" x="159.3" y="155.5" width="7.4" height="7.4"/>
            <rect class="cls-6" x="166.7" y="148.1" width="7.4" height="7.4"/>
            <rect class="cls-6" x="159.3" y="140.7" width="7.4" height="7.4"/>
            <rect class="cls-6" x="166.7" y="133.3" width="7.4" height="7.4"/>
            <rect class="cls-6" x="174.1" y="125.9" width="7.4" height="7.4"/>
            <rect class="cls-6" x="166.6" y="74.1" width="7.4" height="7.4"/>
            <rect class="cls-6" x="166.6" y="118.5" width="7.4" height="7.4"/>
            <rect class="cls-6" x="107.4" y="177.8" width="7.4" height="7.4"/>
            <rect class="cls-6" x="129.6" y="170.3" width="7.4" height="7.4"/>
            <rect class="cls-1" x="63" y="81.5" width="14.8" height="14.8"/>
            <rect class="cls-1" x="137" y="140.7" width="14.8" height="14.8"/>
            <rect class="cls-3" x="174" y="88.9" width="14.8" height="14.8"/>
            <rect class="cls-7" x="63" y="163" width="14.8" height="14.8"/>
            <rect class="cls-7" x="114.8" y="74.1" width="14.8" height="14.8"/>
            <rect class="cls-3" x="11.2" y="126" width="14.8" height="14.8"/>
            <rect class="cls-4" x="11.2" y="126" width="7.4" height="7.4"/>
            <rect class="cls-4" x="63" y="81.5" width="7.4" height="7.4"/>
            <rect class="cls-4" x="114.8" y="74.1" width="7.4" height="7.4"/>
            <rect class="cls-4" x="174" y="88.9" width="7.4" height="7.4"/>
            <rect class="cls-4" x="137" y="140.7" width="7.4" height="7.4"/>
            <rect class="cls-4" x="63" y="163" width="7.4" height="7.4"/>
            <g>
              <rect class="cls-8" x="63" y="140.8" width="7.4" height="7.4"/>
              <path class="cls-8" d="M137,133.3v7.4c3.7,0,11.1,0,14.8,0v-7.4s-7.4,0-7.4,0v-7.4s-7.4,0-7.4,0v7.4Z"/>
              <rect class="cls-8" x="55.6" y="126" width="7.4" height="14.8"/>
              <polygon class="cls-8" points="85.2 163 92.6 163 92.6 185.2 100 185.2 100 163 114.8 163 114.8 155.5 85.2 155.6 85.2 163"/>
              <polygon class="cls-8" points="151.8 96.3 144.4 96.3 144.4 125.9 151.8 125.9 151.8 118.5 174 118.5 174 111.1 151.8 111.1 151.8 96.3"/>
              <polygon class="cls-8" points="48.2 96.4 48.2 103.8 26 103.8 26 111.2 48.2 111.2 48.2 126 55.6 126 55.6 96.3 48.2 96.4"/>
              <rect class="cls-8" x="18.5" y="66.7" width="7.4" height="14.8"/>
              <rect class="cls-8" x="40.8" y="177.8" width="14.8" height="7.4"/>
              <rect class="cls-8" x="33.4" y="170.4" width="7.4" height="7.4"/>
              <rect class="cls-8" x="26" y="155.6" width="7.4" height="14.8"/>
              <rect class="cls-8" x="129.7" y="185.2" width="14.8" height="7.4"/>
              <rect class="cls-8" x="144.5" y="177.7" width="14.8" height="7.4"/>
              <rect class="cls-8" x="159.3" y="170.3" width="7.4" height="7.4"/>
              <rect class="cls-8" x="174.1" y="140.7" width="7.4" height="14.8"/>
              <rect class="cls-8" x="166.7" y="155.5" width="7.4" height="14.8"/>
              <path class="cls-8" d="M70.3,37.1v7.4s29.6,0,29.6,0v14.8s-14.8,0-14.8,0v7.4s29.6,0,29.6,0v-7.4s-7.4,0-7.4,0v-14.8s22.2,0,22.2,0v-7.4s-14.8,0-14.8,0v-14.8s-7.4,0-7.4,0v14.8c-3.7,0-11.1,0-14.8,0v-14.8s-7.4,0-7.4,0v14.8s-14.8,0-14.8,0Z"/>
              <rect class="cls-8" x="77.7" y="14.9" width="7.4" height="7.4"/>
              <rect class="cls-8" x="62.9" y="7.5" width="14.8" height="7.4"/>
              <rect class="cls-8" x="40.7" y="0" width="22.2" height="7.4"/>
              <rect class="cls-8" x="25.9" y="7.5" width="14.8" height="7.4"/>
              <rect class="cls-8" x="55.5" y="51.9" width="7.4" height="14.8"/>
              <rect class="cls-8" x="62.9" y="44.5" width="7.4" height="7.4"/>
              <rect class="cls-8" x="48.1" y="66.7" width="7.4" height="7.4"/>
              <path class="cls-8" d="M40.7,44.5h14.8s0-7.4,0-7.4h14.8s0-7.4,0-7.4c-4.9,0-17.5,0-22.2,0v7.4c-4.7,0-17.4,0-22.2,0v7.4s7.4,0,7.4,0v7.4s7.4,0,7.4,0v-7.4Z"/>
              <path class="cls-8" d="M48.1,66.7v-7.4s-14.8,0-14.8,0v-7.4s-7.4,0-7.4,0c0,3.7,0,11.1,0,14.8,4.7,0,17.4,0,22.2,0Z"/>
              <polygon class="cls-8" points="48.1 29.7 48.1 22.3 25.9 22.3 25.9 14.9 18.5 14.9 18.5 37.1 25.9 37.1 25.9 29.7 48.1 29.7"/>
              <path class="cls-8" d="M107.4,22.3v-7.4c-3.7,0-11.1,0-14.8,0v7.4c3.7,0,11.1,0,14.8,0Z"/>
              <rect class="cls-8" x="114.8" y="14.9" width="7.4" height="7.4"/>
              <rect class="cls-8" x="122.2" y="7.5" width="14.8" height="7.4"/>
              <rect class="cls-8" x="137" y="0" width="22.2" height="7.4"/>
              <rect class="cls-8" x="159.2" y="7.4" width="14.8" height="7.4"/>
              <path class="cls-8" d="M151.8,37.1v-7.4c-4.7,0-17.4,0-22.2,0v7.4s14.8,0,14.8,0v7.4s14.8,0,14.8,0v7.4s7.4,0,7.4,0v-7.4s7.4,0,7.4,0v-7.4c-4.9,0-17.5,0-22.2,0Z"/>
              <rect class="cls-8" x="137" y="51.9" width="7.4" height="14.8"/>
              <rect class="cls-8" x="129.6" y="44.5" width="7.4" height="7.4"/>
              <rect class="cls-8" x="144.4" y="66.7" width="7.4" height="7.4"/>
              <path class="cls-8" d="M151.8,59.3v7.4c4.9,0,17.5,0,22.2,0,0-3.7,0-11.1,0-14.8h-7.4s0,7.4,0,7.4h-14.8Z"/>
              <polygon class="cls-8" points="151.8 22.3 151.8 29.7 174 29.6 174 37 181.4 37 181.4 14.8 174 14.8 174 22.2 151.8 22.3"/>
              <polygon class="cls-8" points="92.6 185.2 85.2 185.2 85.2 192.6 70.4 192.6 70.4 200 129.7 200 129.7 192.6 92.6 192.6 92.6 185.2"/>
              <rect class="cls-8" x="55.6" y="81.5" width="7.4" height="14.8"/>
              <rect class="cls-8" x="77.8" y="81.5" width="7.4" height="14.8"/>
              <path class="cls-8" d="M77.8,81.5v-7.4s7.4,0,7.4,0v-7.4s-14.8,0-14.8,0v7.4s-7.4,0-7.4,0v7.4c3.7,0,11.1,0,14.8,0Z"/>
              <rect class="cls-8" x="63" y="96.3" width="14.8" height="7.4"/>
              <path class="cls-8" d="M137,140.7h-7.4s0,7.4,0,7.4h-14.8s0,7.4,0,7.4c4.9,0,17.5,0,22.2,0,0-3.7,0-11.1,0-14.8Z"/>
              <rect class="cls-8" x="151.8" y="140.7" width="7.4" height="14.8"/>
              <rect class="cls-8" x="137" y="155.5" width="14.8" height="7.4"/>
              <rect class="cls-8" x="166.6" y="88.9" width="7.4" height="14.8"/>
              <rect class="cls-8" x="188.8" y="88.9" width="7.4" height="14.8"/>
              <path class="cls-8" d="M174,88.9h14.8s0-7.4,0-7.4h-7.4s0-14.8,0-14.8h-7.4c0,4.9,0,17.5,0,22.2Z"/>
              <path class="cls-8" d="M174,103.7v7.4s7.4,0,7.4,0v7.4s-7.4,0-7.4,0v7.4s7.4,0,7.4,0v14.8s7.4,0,7.4,0c0-5.5,0-32.1,0-37-3.7,0-11.1,0-14.8,0Z"/>
              <rect class="cls-8" x="55.6" y="163" width="7.4" height="14.8"/>
              <rect class="cls-8" x="77.8" y="163" width="7.4" height="14.8"/>
              <polygon class="cls-8" points="77.8 155.6 85.2 155.6 85.2 148.2 70.4 148.2 70.4 155.6 63 155.6 63 163 77.8 163 77.8 155.6"/>
              <polygon class="cls-8" points="77.8 185.2 77.8 177.8 63 177.8 63 185.2 55.6 185.2 55.6 192.6 70.4 192.6 70.4 185.2 77.8 185.2"/>
              <rect class="cls-8" x="107.4" y="74.1" width="7.4" height="14.8"/>
              <path class="cls-8" d="M129.6,88.9h7.4s0,7.4,0,7.4h7.4s0-14.8,0-14.8h-7.4s0-7.4,0-7.4h-7.4c0,3.7,0,11.1,0,14.8Z"/>
              <rect class="cls-8" x="114.8" y="66.7" width="14.8" height="7.4"/>
              <rect class="cls-8" x="114.8" y="88.9" width="14.8" height="7.4"/>
              <rect class="cls-8" x="3.8" y="126" width="7.4" height="14.8"/>
              <rect class="cls-8" x="26" y="126" width="7.4" height="14.8"/>
              <path class="cls-8" d="M26,126v-7.4s-7.4,0-7.4,0v-14.8s7.4,0,7.4,0v-7.4s-7.4,0-7.4,0v-14.8s-7.4,0-7.4,0c0,5.5,0,39.8,0,44.4,3.7,0,11.1,0,14.8,0Z"/>
              <path class="cls-8" d="M26,140.8c-3.7,0-11.1,0-14.8,0v7.4s7.4,0,7.4,0v7.4s7.4,0,7.4,0c0-3.7,0-11.1,0-14.8Z"/>
            </g>
          </g>
          <rect class="cls-4" x="48.1" y="7.5" width="7.4" height="7.4"/>
          <rect class="cls-4" x="144.4" y="7.4" width="7.4" height="7.4"/>
          <rect class="cls-4" x="151.8" y="14.8" width="7.4" height="7.4"/>
          <rect class="cls-4" x="40.7" y="14.9" width="7.4" height="7.4"/>
          <rect class="cls-4" x="40.7" y="51.9" width="7.4" height="7.4"/>
          <rect class="cls-4" x="151.8" y="51.9" width="7.4" height="7.4"/>
        </g>
        <rect class="cls-4" x="92.5" y="22.3" width="7.4" height="7.4"/>
      </g>
    </g>
  </g>
</svg>