<?xml version="1.0" encoding="UTF-8"?>
<svg xmlns="http://www.w3.org/2000/svg" version="1.1" viewBox="0 0 200 200">
  <defs>
    <style>
      .cls-1 {
        fill: #ff3314;
      }

      .cls-2 {
        fill: #019472;
      }

      .cls-3 {
        fill: #fff;
      }

      .cls-4 {
        fill: #ad1714;
      }

      .cls-5 {
        fill: #005642;
      }

      .cls-6 {
        fill: #003f2d;
      }

      .cls-7 {
        fill: #1a1a1a;
      }
    </style>
  </defs>
  <!-- Generator: Adobe Illustrator 28.7.1, SVG Export Plug-In . SVG Version: 1.2.0 Build 142)  -->
  <g>
    <g id="_x5F_title-cta">
      <g>
        <polygon class="cls-6" points="130.8 169.3 107.7 169.3 107.7 161.6 100 161.6 100 153.9 92.3 153.9 92.3 146.2 84.6 146.2 84.6 138.5 76.9 138.5 76.9 130.8 69.2 130.8 69.2 123.1 61.5 123.1 61.5 115.4 53.8 115.4 53.8 107.7 46.1 107.7 46.1 100 38.4 100 38.4 92.3 30.7 92.3 30.7 69.3 38.4 69.3 38.4 61.6 46.1 61.6 46.1 46.2 61.5 46.2 61.5 38.5 69.2 38.5 69.2 30.8 92.2 30.8 92.2 38.4 99.9 38.4 99.9 46.1 107.6 46.1 107.6 53.8 115.3 53.8 115.3 61.5 123 61.5 123 69.2 130.7 69.2 130.7 76.9 138.4 76.9 138.4 84.6 146.1 84.6 146.1 92.3 153.8 92.3 153.8 100 161.5 100 161.5 107.7 169.2 107.7 169.2 130.8 161.6 130.8 161.6 138.5 153.9 138.5 153.9 153.8 138.5 153.9 138.5 161.6 130.8 161.6 130.8 169.3"/>
        <polygon class="cls-4" points="130.8 169.3 123.1 169.3 123 69.2 130.7 69.2 130.7 76.9 138.4 76.9 138.4 84.6 146.1 84.6 146.1 92.3 153.8 92.3 153.9 153.8 138.5 153.9 138.5 161.6 130.8 161.6 130.8 169.3"/>
        <polygon class="cls-4" points="76.9 130.8 69.2 130.8 69.2 123.1 61.5 123.1 61.5 115.4 53.8 115.4 53.8 107.7 46.1 107.7 46.1 46.2 61.5 46.2 61.5 38.5 69.2 38.5 69.2 30.8 76.9 30.8 76.9 130.8"/>
        <rect class="cls-2" x="161.5" y="107.7" width="7.7" height="23.1"/>
        <polygon class="cls-2" points="115.3 53.8 107.6 53.8 107.6 46.1 99.9 46.1 99.9 38.4 92.2 38.4 92.2 30.8 84.5 30.8 84.6 92.3 92.3 92.3 92.3 100 100 100 100 107.7 107.7 107.7 107.7 115.4 115.4 115.4 115.3 53.8"/>
        <polygon class="cls-1" points="76.9 30.8 69.2 30.8 69.2 38.5 61.5 38.5 61.5 46.2 53.8 46.2 46.1 46.2 46.1 53.9 53.8 53.9 53.8 61.6 61.5 61.5 61.5 69.2 69.2 69.2 69.2 76.9 76.9 76.9 76.9 30.8"/>
        <polygon class="cls-1" points="153.8 92.3 146.1 92.3 146.1 84.6 138.4 84.6 138.4 76.9 130.7 76.9 130.7 69.2 123 69.2 123 69.2 123.1 130.8 130.8 130.8 130.8 138.5 138.5 138.5 138.5 146.2 146.2 146.2 146.2 153.9 153.9 153.8 153.8 92.3"/>
        <rect class="cls-7" x="107.6" y="46.1" width="7.7" height="7.7"/>
        <rect class="cls-7" x="46.1" y="107.7" width="7.7" height="7.7"/>
        <rect class="cls-7" x="53.8" y="115.4" width="7.7" height="7.7"/>
        <rect class="cls-7" x="61.5" y="123.1" width="7.7" height="7.7"/>
        <rect class="cls-7" x="84.6" y="146.2" width="7.7" height="7.7"/>
        <rect class="cls-7" x="130.7" y="69.2" width="7.7" height="7.7"/>
        <rect class="cls-7" x="138.4" y="76.9" width="7.7" height="7.7"/>
        <rect class="cls-7" x="146.1" y="84.6" width="7.7" height="7.7"/>
        <rect class="cls-7" x="169.2" y="107.7" width="7.7" height="23.1"/>
        <rect class="cls-7" x="130.8" y="161.6" width="7.7" height="7.7"/>
        <rect class="cls-7" x="100" y="161.6" width="7.7" height="7.7"/>
        <rect class="cls-7" x="92.3" y="153.9" width="7.7" height="7.7"/>
        <rect class="cls-7" x="192.3" y="146.1" width="7.7" height="23.1"/>
        <rect class="cls-7" x="146.2" y="192.3" width="23.1" height="7.7"/>
        <rect class="cls-7" x="23" y="69.3" width="7.7" height="23.1"/>
        <rect class="cls-7" x="61.5" y="30.8" width="7.7" height="7.7"/>
        <rect class="cls-7" x="92.2" y="30.7" width="7.7" height="7.7"/>
        <rect class="cls-7" x="99.9" y="38.4" width="7.7" height="7.7"/>
        <rect class="cls-7" x="0" y="30.8" width="7.7" height="23.1"/>
        <rect class="cls-7" x="30.7" y="0" width="23.1" height="7.7"/>
        <path class="cls-7" d="M153.9,192.3h-7.7s0-30.8,0-30.8h-7.7s0-7.7,0-7.7h7.7s0-7.7,0-7.7h7.7s0-53.9,0-53.9h7.7s0,7.7,0,7.7h7.7s0,7.7,0,7.7h-7.7s0,23.1,0,23.1h7.7s0,7.7,0,7.7h-7.7s0,7.7,0,7.7h30.8s0,7.7,0,7.7h-38.5s0,29.5,0,38.5Z"/>
        <polygon class="cls-7" points="123 69.2 130.7 69.2 130.7 61.5 123 61.5 123 53.8 115.3 53.8 115.3 61.5 115.4 169.3 107.7 169.3 107.7 177 130.8 176.9 130.8 169.3 123.1 169.3 123 69.2"/>
        <polygon class="cls-7" points="84.5 30.8 92.2 30.8 92.2 23.1 69.2 23.1 69.2 30.8 76.9 30.8 76.9 130.8 69.2 130.8 69.2 138.5 76.9 138.5 76.9 146.2 84.6 146.2 84.6 138.5 84.5 30.8"/>
        <path class="cls-7" d="M46.1,107.7h-7.7s0-7.7,0-7.7h-7.7s0-7.7,0-7.7h7.7s0-23.1,0-23.1h-7.7s0-7.7,0-7.7h7.7s0-7.7,0-7.7H7.6s0-7.7,0-7.7h38.5s0-29.5,0-38.5h7.7s0,30.8,0,30.8h7.7s0,7.7,0,7.7h-7.7s0,7.7,0,7.7h-7.7s0,53.9,0,53.9Z"/>
        <path class="cls-2" d="M46.1,46.2H7.6s0-15.4,0-15.4h15.4s0-7.7,0-7.7h-7.7s0-7.7,0-7.7h15.4s0-7.7,0-7.7h15.4c0,9,0,38.5,0,38.5Z"/>
        <polygon class="cls-7" points="23 30.8 7.6 30.8 7.6 7.7 30.7 7.7 30.7 15.4 15.3 15.4 15.3 23.1 23 23.1 23 30.8"/>
        <path class="cls-2" d="M169.3,192.3h-15.4c0-9,0-38.5,0-38.5h38.5s0,15.4,0,15.4h-15.4s0,7.7,0,7.7h7.7s0,7.7,0,7.7h-15.4s0,7.7,0,7.7Z"/>
        <polygon class="cls-7" points="192.4 192.3 169.3 192.3 169.3 184.6 184.7 184.6 184.7 176.9 177 176.9 177 169.2 192.4 169.2 192.4 192.3"/>
        <rect class="cls-3" x="84.6" y="38.4" width="7.7" height="7.7"/>
        <rect class="cls-3" x="38.4" y="7.7" width="7.7" height="23.1"/>
        <rect class="cls-3" x="92.3" y="46.1" width="7.7" height="7.7"/>
        <rect class="cls-3" x="100" y="53.8" width="7.7" height="7.7"/>
        <rect class="cls-3" x="107.6" y="61.5" width="7.7" height="7.7"/>
        <rect class="cls-3" x="115.3" y="69.2" width="7.7" height="7.7"/>
        <rect class="cls-3" x="123" y="76.9" width="7.7" height="7.7"/>
        <rect class="cls-3" x="130.7" y="84.6" width="7.7" height="7.7"/>
        <rect class="cls-3" x="138.4" y="92.3" width="7.7" height="7.7"/>
        <rect class="cls-3" x="146.1" y="100" width="7.7" height="7.7"/>
        <rect class="cls-3" x="153.8" y="107.7" width="7.7" height="7.7"/>
        <rect class="cls-3" x="169.3" y="153.8" width="23.1" height="7.7"/>
        <path class="cls-5" d="M169.3,184.6h7.7s0-7.7,0-7.7h-7.7s0-7.7,0-7.7h-7.7s0-7.7,0-7.7h-7.7c0,9.6,0,21.1,0,30.8h15.4s0-7.7,0-7.7Z"/>
        <polygon class="cls-5" points="38.4 38.5 30.7 38.5 30.7 30.8 7.6 30.8 7.6 38.5 7.6 46.2 38.4 46.2 38.4 38.5"/>
      </g>
    </g>
  </g>
</svg>