<?xml version="1.0" encoding="UTF-8"?>
<svg xmlns="http://www.w3.org/2000/svg" version="1.1" viewBox="0 0 40 40">
  <defs>
    <style>
      .cls-1 {
        fill: #484849;
      }
    </style>
  </defs>
  <!-- Generator: Adobe Illustrator 28.7.1, SVG Export Plug-In . SVG Version: 1.2.0 Build 142)  -->
  <g>
    <g id="_x5F_title-cta">
      <g>
        <path class="cls-1" d="M38,13v14h2v-14h-2Z"/>
        <path class="cls-1" d="M36,29v2h2v-4h-2v2Z"/>
        <path class="cls-1" d="M38,9h-2v4h2v-4Z"/>
        <rect class="cls-1" x="34" y="31" width="2" height="2"/>
        <rect class="cls-1" x="34" y="7" width="2" height="2"/>
        <path class="cls-1" d="M34,25v-12h-2v14h2v-2Z"/>
        <rect class="cls-1" x="30" y="27" width="2" height="2"/>
        <rect class="cls-1" x="30" y="11" width="2" height="2"/>
        <rect class="cls-1" x="28" y="29" width="2" height="2"/>
        <rect class="cls-1" x="28" y="9" width="2" height="2"/>
        <path class="cls-1" d="M28,21v-4h-2v6h2v-2Z"/>
        <rect class="cls-1" x="24" y="23" width="2" height="2"/>
        <rect class="cls-1" x="24" y="15" width="2" height="2"/>
        <path class="cls-1" d="M18,5h-2v2h-2v2h2v2h-2v2h-2v2h-8v-2h8v-2H0v18h12v2h2v2h2v2h2v2h2V3h-2v2Z"/>
        <rect class="cls-1" x="12" y="9" width="2" height="2"/>
      </g>
    </g>
  </g>
</svg>