<?xml version="1.0" encoding="UTF-8"?>
<svg xmlns="http://www.w3.org/2000/svg" version="1.1" viewBox="0 0 200 200">
  <defs>
    <style>
      .cls-1 {
        fill: #e8c96f;
      }

      .cls-2 {
        fill: #fff;
      }

      .cls-3 {
        fill: #ededed;
      }

      .cls-4 {
        fill: #c29d4e;
      }

      .cls-5 {
        fill: #1a1a1a;
      }
    </style>
  </defs>
  <!-- Generator: Adobe Illustrator 28.7.1, SVG Export Plug-In . SVG Version: 1.2.0 Build 142)  -->
  <g>
    <g id="_x5F_title-cta">
      <g>
        <rect class="cls-1" x="14.8" y="96.3" width="14.8" height="7.4"/>
        <rect class="cls-1" x="170.3" y="96.3" width="14.8" height="7.4"/>
        <rect class="cls-1" x="37.1" y="37.1" width="7.4" height="7.4"/>
        <rect class="cls-1" x="155.5" y="37.1" width="7.4" height="7.4"/>
        <rect class="cls-1" x="155.5" y="155.5" width="7.4" height="7.4"/>
        <rect class="cls-1" x="37.1" y="155.5" width="7.4" height="7.4"/>
        <rect class="cls-1" x="96.3" y="14.8" width="7.4" height="14.8"/>
        <rect class="cls-1" x="96.3" y="170.3" width="7.4" height="14.8"/>
        <polygon class="cls-1" points="66.7 59.3 66.7 66.7 59.3 66.7 59.3 59.3 51.9 59.3 51.9 74.1 74.1 74.1 74.1 51.9 59.3 51.9 59.3 59.3 66.7 59.3"/>
        <polygon class="cls-1" points="51.9 59.3 51.9 51.9 59.3 51.9 59.3 44.5 44.5 44.5 44.5 59.3 51.9 59.3"/>
        <polygon class="cls-1" points="148.1 59.3 140.7 59.3 140.7 66.7 133.3 66.7 133.3 59.3 140.7 59.3 140.7 51.9 125.9 51.9 125.9 74.1 148.1 74.1 148.1 59.3"/>
        <polygon class="cls-1" points="148.1 59.3 155.5 59.3 155.5 44.5 140.7 44.5 140.7 51.9 148.1 51.9 148.1 59.3"/>
        <polygon class="cls-1" points="133.3 140.7 133.3 133.3 140.7 133.3 140.7 140.7 148.1 140.7 148.1 125.9 125.9 125.9 125.9 148.1 140.7 148.1 140.7 140.7 133.3 140.7"/>
        <polygon class="cls-1" points="148.1 140.7 148.1 148.1 140.7 148.1 140.7 155.5 155.5 155.5 155.5 140.7 148.1 140.7"/>
        <polygon class="cls-1" points="51.9 140.7 59.3 140.7 59.3 133.3 66.7 133.3 66.7 140.7 59.3 140.7 59.3 148.1 74.1 148.1 74.1 125.9 51.9 125.9 51.9 140.7"/>
        <polygon class="cls-1" points="51.9 140.7 44.5 140.7 44.5 155.5 59.3 155.5 59.3 148.1 51.9 148.1 51.9 140.7"/>
        <polygon class="cls-1" points="111.1 88.9 111.1 96.3 170.3 96.3 170.3 88.9 148.1 88.9 148.1 81.5 118.5 81.5 118.5 88.9 111.1 88.9"/>
        <polygon class="cls-4" points="111.1 111.1 118.5 111.1 118.5 118.5 148.1 118.5 148.1 111.1 170.3 111.1 170.3 103.7 111.1 103.7 111.1 111.1"/>
        <polygon class="cls-1" points="88.9 88.9 81.5 88.9 81.5 81.5 51.9 81.5 51.9 88.9 29.7 88.9 29.7 96.3 88.9 96.3 88.9 88.9"/>
        <polygon class="cls-4" points="88.9 111.1 88.9 103.7 29.7 103.7 29.7 111.1 51.9 111.1 51.9 118.5 81.5 118.5 81.5 111.1 88.9 111.1"/>
        <polygon class="cls-1" points="103.7 88.9 96.3 88.9 96.3 96.3 88.9 96.3 88.9 103.7 96.3 103.7 96.3 111.1 103.7 111.1 103.7 103.7 111.1 103.7 111.1 96.3 103.7 96.3 103.7 88.9"/>
        <polygon class="cls-1" points="88.9 88.9 96.3 88.9 96.3 29.7 88.9 29.7 88.9 51.9 81.5 51.9 81.5 81.5 88.9 81.5 88.9 88.9"/>
        <polygon class="cls-4" points="111.1 88.9 111.1 81.5 118.5 81.5 118.5 51.9 111.1 51.9 111.1 29.7 103.7 29.7 103.7 88.9 111.1 88.9"/>
        <polygon class="cls-1" points="88.9 111.1 88.9 118.5 81.5 118.5 81.5 148.1 88.9 148.1 88.9 170.3 96.3 170.3 96.3 111.1 88.9 111.1"/>
        <polygon class="cls-4" points="111.1 111.1 103.7 111.1 103.7 170.3 111.1 170.3 111.1 148.1 118.5 148.1 118.5 118.5 111.1 118.5 111.1 111.1"/>
        <rect class="cls-4" x="96.3" y="103.7" width="7.4" height="7.4"/>
        <rect class="cls-4" x="103.7" y="96.3" width="7.4" height="7.4"/>
        <g>
          <rect class="cls-4" x="140.7" y="148.1" width="7.4" height="7.4"/>
          <path class="cls-4" d="M133.3,140.7v-14.8s-7.4,0-7.4,0v22.2c3.7,0,11.1,0,14.8,0v-7.4s-7.4,0-7.4,0Z"/>
        </g>
        <g>
          <rect class="cls-4" x="51.9" y="148.1" width="7.4" height="7.4"/>
          <path class="cls-4" d="M66.7,140.7v-14.8s7.4,0,7.4,0v22.2c-3.7,0-11.1,0-14.8,0v-7.4s7.4,0,7.4,0Z"/>
        </g>
        <g>
          <path class="cls-4" d="M140.7,66.7h-14.8s0,7.4,0,7.4h22.2c0-3.7,0-11.1,0-14.8h-7.4s0,7.4,0,7.4Z"/>
          <rect class="cls-4" x="148.1" y="51.9" width="7.4" height="7.4"/>
        </g>
        <g>
          <path class="cls-4" d="M59.3,66.7h14.8s0,7.4,0,7.4h-22.2c0-3.7,0-11.1,0-14.8h7.4s0,7.4,0,7.4Z"/>
          <rect class="cls-4" x="44.5" y="51.9" width="7.4" height="7.4"/>
        </g>
        <rect class="cls-2" x="96.3" y="88.9" width="7.4" height="7.4"/>
        <rect class="cls-2" x="37.1" y="37.1" width="7.4" height="7.4"/>
        <rect class="cls-2" x="88.9" y="29.7" width="7.4" height="29.6"/>
        <rect class="cls-2" x="88.9" y="111.1" width="7.4" height="29.6"/>
        <rect class="cls-2" x="155.5" y="37.1" width="7.4" height="7.4"/>
        <rect class="cls-2" x="155.5" y="155.5" width="7.4" height="7.4"/>
        <rect class="cls-2" x="37.1" y="155.5" width="7.4" height="7.4"/>
        <rect class="cls-3" x="29.7" y="88.9" width="29.6" height="7.4"/>
        <rect class="cls-3" x="111.1" y="88.9" width="29.6" height="7.4"/>
        <g>
          <rect class="cls-5" x="59.3" y="59.3" width="7.4" height="7.4"/>
          <rect class="cls-5" x="51.9" y="51.9" width="7.4" height="7.4"/>
          <rect class="cls-5" x="103.7" y="103.7" width="7.4" height="7.4"/>
          <rect class="cls-5" x="103.7" y="88.9" width="7.4" height="7.4"/>
          <rect class="cls-5" x="111.1" y="81.5" width="7.4" height="7.4"/>
          <polygon class="cls-5" points="148.1 81.5 148.1 74.1 125.9 74.1 125.9 51.9 118.5 51.9 118.5 81.5 148.1 81.5"/>
          <polygon class="cls-5" points="81.5 51.9 74.1 51.9 74.1 74.1 51.9 74.1 51.9 81.5 81.5 81.5 81.5 51.9"/>
          <rect class="cls-5" x="111.1" y="111.1" width="7.4" height="7.4"/>
          <polygon class="cls-5" points="118.5 148.1 125.9 148.1 125.9 125.9 148.1 125.9 148.1 118.5 118.5 118.5 118.5 148.1"/>
          <polygon class="cls-5" points="51.9 118.5 51.9 125.9 74.1 125.9 74.1 148.1 81.5 148.1 81.5 118.5 51.9 118.5"/>
          <rect class="cls-5" x="81.5" y="81.5" width="7.4" height="7.4"/>
          <rect class="cls-5" x="81.5" y="111.1" width="7.4" height="7.4"/>
          <rect class="cls-5" x="44.5" y="59.3" width="7.4" height="14.8"/>
          <rect class="cls-5" x="37.1" y="44.5" width="7.4" height="14.8"/>
          <rect class="cls-5" x="44.5" y="37.1" width="14.8" height="7.4"/>
          <path class="cls-5" d="M44.5,37.1v-7.4c-3.7,0-11.1,0-14.8,0,0,3.7,0,11.1,0,14.8h7.4s0-7.4,0-7.4h7.4Z"/>
          <rect class="cls-5" x="59.3" y="44.5" width="14.8" height="7.4"/>
          <rect class="cls-5" x="133.3" y="59.3" width="7.4" height="7.4"/>
          <rect class="cls-5" x="140.7" y="51.9" width="7.4" height="7.4"/>
          <rect class="cls-5" x="148.1" y="59.3" width="7.4" height="14.8"/>
          <rect class="cls-5" x="155.5" y="44.5" width="7.4" height="14.8"/>
          <rect class="cls-5" x="140.7" y="37.1" width="14.8" height="7.4"/>
          <path class="cls-5" d="M162.9,44.5h7.4c0-3.7,0-11.1,0-14.8-3.7,0-11.1,0-14.8,0v7.4s7.4,0,7.4,0v7.4Z"/>
          <rect class="cls-5" x="125.9" y="44.5" width="14.8" height="7.4"/>
          <rect class="cls-5" x="133.3" y="133.3" width="7.4" height="7.4"/>
          <rect class="cls-5" x="140.7" y="140.7" width="7.4" height="7.4"/>
          <rect class="cls-5" x="148.1" y="125.9" width="7.4" height="14.8"/>
          <rect class="cls-5" x="155.5" y="140.7" width="7.4" height="14.8"/>
          <rect class="cls-5" x="140.7" y="155.5" width="14.8" height="7.4"/>
          <path class="cls-5" d="M155.5,162.9v7.4c3.7,0,11.1,0,14.8,0,0-3.7,0-11.1,0-14.8h-7.4s0,7.4,0,7.4h-7.4Z"/>
          <rect class="cls-5" x="125.9" y="148.1" width="14.8" height="7.4"/>
          <rect class="cls-5" x="59.3" y="133.3" width="7.4" height="7.4"/>
          <rect class="cls-5" x="51.9" y="140.7" width="7.4" height="7.4"/>
          <rect class="cls-5" x="44.5" y="125.9" width="7.4" height="14.8"/>
          <rect class="cls-5" x="37.1" y="140.7" width="7.4" height="14.8"/>
          <rect class="cls-5" x="44.5" y="155.5" width="14.8" height="7.4"/>
          <path class="cls-5" d="M37.1,155.5h-7.4c0,3.7,0,11.1,0,14.8,3.7,0,11.1,0,14.8,0v-7.4s-7.4,0-7.4,0v-7.4Z"/>
          <rect class="cls-5" x="59.3" y="148.1" width="14.8" height="7.4"/>
          <rect class="cls-5" x="0" y="96.3" width="14.8" height="7.4"/>
          <rect class="cls-5" x="29.7" y="96.3" width="59.2" height="7.4"/>
          <rect class="cls-5" x="111.1" y="96.3" width="59.2" height="7.4"/>
          <rect class="cls-5" x="14.8" y="88.9" width="14.8" height="7.4"/>
          <rect class="cls-5" x="29.7" y="81.5" width="22.2" height="7.4"/>
          <rect class="cls-5" x="29.7" y="111.1" width="22.2" height="7.4"/>
          <rect class="cls-5" x="14.8" y="103.7" width="14.8" height="7.4"/>
          <rect class="cls-5" x="185.2" y="96.3" width="14.8" height="7.4"/>
          <rect class="cls-5" x="170.3" y="88.9" width="14.8" height="7.4"/>
          <rect class="cls-5" x="148.1" y="81.5" width="22.2" height="7.4"/>
          <rect class="cls-5" x="148.1" y="111.1" width="22.2" height="7.4"/>
          <rect class="cls-5" x="170.3" y="103.7" width="14.8" height="7.4"/>
          <rect class="cls-5" x="96.3" y="0" width="7.4" height="14.8"/>
          <rect class="cls-5" x="88.9" y="14.8" width="7.4" height="14.8"/>
          <rect class="cls-5" x="88.9" y="88.9" width="7.4" height="7.4"/>
          <rect class="cls-5" x="96.3" y="29.7" width="7.4" height="59.2"/>
          <rect class="cls-5" x="88.9" y="103.7" width="7.4" height="7.4"/>
          <rect class="cls-5" x="88.9" y="170.3" width="7.4" height="14.8"/>
          <rect class="cls-5" x="96.3" y="111.1" width="7.4" height="59.2"/>
          <rect class="cls-5" x="81.5" y="29.7" width="7.4" height="22.2"/>
          <rect class="cls-5" x="111.1" y="29.7" width="7.4" height="22.2"/>
          <rect class="cls-5" x="103.7" y="14.8" width="7.4" height="14.8"/>
          <rect class="cls-5" x="96.3" y="185.2" width="7.4" height="14.8"/>
          <rect class="cls-5" x="81.5" y="148.1" width="7.4" height="22.2"/>
          <rect class="cls-5" x="111.1" y="148.1" width="7.4" height="22.2"/>
          <rect class="cls-5" x="103.7" y="170.3" width="7.4" height="14.8"/>
        </g>
      </g>
    </g>
  </g>
</svg>