<?xml version="1.0" encoding="UTF-8"?>
<svg xmlns="http://www.w3.org/2000/svg" version="1.1" viewBox="0 0 200 200">
  <defs>
    <style>
      .cls-1 {
        fill: #e79a34;
      }

      .cls-2 {
        fill: #feb85a;
      }

      .cls-3 {
        fill: #fff;
      }

      .cls-4 {
        fill: #f92b53;
      }

      .cls-5 {
        fill: #fc4c66;
      }
    </style>
  </defs>
  <!-- Generator: Adobe Illustrator 28.7.1, SVG Export Plug-In . SVG Version: 1.2.0 Build 142)  -->
  <g>
    <g id="_x5F_title-cta">
      <g>
        <rect class="cls-1" x="169.2" y="155.5" width="15.4" height="13.9"/>
        <rect class="cls-1" x="169.2" y="141.6" width="15.4" height="13.9"/>
        <rect class="cls-1" x="169.2" y="127.7" width="15.4" height="13.9"/>
        <rect class="cls-1" x="169.2" y="113.8" width="15.4" height="13.9"/>
        <rect class="cls-1" x="169.2" y="100" width="15.4" height="13.9"/>
        <rect class="cls-1" x="169.2" y="86.1" width="15.4" height="13.9"/>
        <rect class="cls-1" x="169.2" y="72.2" width="15.4" height="13.9"/>
        <rect class="cls-1" x="153.9" y="155.5" width="15.4" height="13.9"/>
        <rect class="cls-2" x="153.8" y="141.6" width="15.4" height="13.9"/>
        <rect class="cls-2" x="153.8" y="127.7" width="15.4" height="13.9"/>
        <rect class="cls-2" x="153.8" y="113.8" width="15.4" height="13.9"/>
        <rect class="cls-2" x="153.8" y="100" width="15.4" height="13.9"/>
        <rect class="cls-2" x="153.8" y="86.1" width="15.4" height="13.9"/>
        <rect class="cls-2" x="153.8" y="72.2" width="15.4" height="13.9"/>
        <rect class="cls-4" x="153.8" y="44.4" width="15.4" height="13.9"/>
        <rect class="cls-1" x="138.5" y="155.5" width="15.4" height="13.9"/>
        <rect class="cls-3" x="138.5" y="141.6" width="15.4" height="13.9"/>
        <rect class="cls-2" x="138.5" y="127.7" width="15.4" height="13.9"/>
        <rect class="cls-2" x="138.5" y="113.9" width="15.4" height="13.9"/>
        <rect class="cls-2" x="138.4" y="100" width="15.4" height="13.9"/>
        <rect class="cls-3" x="138.4" y="86.1" width="15.4" height="13.9"/>
        <rect class="cls-2" x="138.4" y="72.2" width="15.4" height="13.9"/>
        <rect class="cls-4" x="138.4" y="58.3" width="15.4" height="13.9"/>
        <rect class="cls-5" x="138.4" y="30.6" width="15.4" height="13.9"/>
        <rect class="cls-1" x="123.1" y="155.5" width="15.4" height="13.9"/>
        <rect class="cls-2" x="123.1" y="141.6" width="15.4" height="13.9"/>
        <rect class="cls-2" x="123.1" y="127.7" width="15.4" height="13.9"/>
        <rect class="cls-3" x="123.1" y="113.9" width="15.4" height="13.9"/>
        <rect class="cls-2" x="123.1" y="100" width="15.4" height="13.9"/>
        <rect class="cls-2" x="123.1" y="86.1" width="15.4" height="13.9"/>
        <rect class="cls-2" x="123.1" y="72.2" width="15.4" height="13.9"/>
        <rect class="cls-4" x="123" y="58.3" width="15.4" height="13.9"/>
        <rect class="cls-5" x="123" y="30.6" width="15.4" height="13.9"/>
        <rect class="cls-1" x="107.7" y="155.5" width="15.4" height="13.9"/>
        <rect class="cls-2" x="107.7" y="141.6" width="15.4" height="13.9"/>
        <rect class="cls-2" x="107.7" y="127.8" width="15.4" height="13.9"/>
        <rect class="cls-2" x="107.7" y="113.9" width="15.4" height="13.9"/>
        <rect class="cls-2" x="107.7" y="100" width="15.4" height="13.9"/>
        <rect class="cls-2" x="107.7" y="86.1" width="15.4" height="13.9"/>
        <rect class="cls-2" x="107.7" y="72.2" width="15.4" height="13.9"/>
        <rect class="cls-4" x="107.7" y="58.3" width="15.4" height="13.9"/>
        <rect class="cls-5" x="107.7" y="44.5" width="15.4" height="13.9"/>
        <rect class="cls-1" x="92.3" y="155.5" width="15.4" height="13.9"/>
        <rect class="cls-5" x="92.3" y="141.6" width="15.4" height="13.9"/>
        <rect class="cls-5" x="92.3" y="127.8" width="15.4" height="13.9"/>
        <rect class="cls-5" x="92.3" y="113.9" width="15.4" height="13.9"/>
        <rect class="cls-5" x="92.3" y="100" width="15.4" height="13.9"/>
        <rect class="cls-4" x="92.3" y="86.1" width="15.4" height="13.9"/>
        <rect class="cls-4" x="92.3" y="72.2" width="15.4" height="13.9"/>
        <rect class="cls-1" x="77" y="155.5" width="15.4" height="13.9"/>
        <rect class="cls-2" x="77" y="141.7" width="15.4" height="13.9"/>
        <rect class="cls-2" x="76.9" y="127.8" width="15.4" height="13.9"/>
        <rect class="cls-2" x="76.9" y="113.9" width="15.4" height="13.9"/>
        <rect class="cls-2" x="76.9" y="100" width="15.4" height="13.9"/>
        <rect class="cls-2" x="76.9" y="86.1" width="15.4" height="13.9"/>
        <rect class="cls-2" x="76.9" y="72.2" width="15.4" height="13.9"/>
        <rect class="cls-4" x="76.9" y="58.4" width="15.4" height="13.9"/>
        <rect class="cls-4" x="76.9" y="44.5" width="15.4" height="13.9"/>
        <rect class="cls-1" x="61.6" y="155.5" width="15.4" height="13.9"/>
        <rect class="cls-2" x="61.6" y="141.7" width="15.4" height="13.9"/>
        <rect class="cls-2" x="61.6" y="127.8" width="15.4" height="13.9"/>
        <rect class="cls-3" x="61.6" y="113.9" width="15.4" height="13.9"/>
        <rect class="cls-2" x="61.6" y="100" width="15.4" height="13.9"/>
        <rect class="cls-2" x="61.5" y="86.1" width="15.4" height="13.9"/>
        <rect class="cls-2" x="61.5" y="72.2" width="15.4" height="13.9"/>
        <rect class="cls-4" x="61.5" y="58.4" width="15.4" height="13.9"/>
        <rect class="cls-5" x="61.5" y="30.6" width="15.4" height="13.9"/>
        <rect class="cls-1" x="46.2" y="155.6" width="15.4" height="13.9"/>
        <rect class="cls-2" x="46.2" y="141.7" width="15.4" height="13.9"/>
        <rect class="cls-2" x="46.2" y="127.8" width="15.4" height="13.9"/>
        <rect class="cls-2" x="46.2" y="113.9" width="15.4" height="13.9"/>
        <rect class="cls-2" x="46.2" y="100" width="15.4" height="13.9"/>
        <rect class="cls-2" x="46.2" y="86.1" width="15.4" height="13.9"/>
        <rect class="cls-2" x="46.2" y="72.3" width="15.4" height="13.9"/>
        <rect class="cls-5" x="46.2" y="58.4" width="15.4" height="13.9"/>
        <rect class="cls-5" x="46.1" y="30.6" width="15.4" height="13.9"/>
        <rect class="cls-1" x="30.8" y="155.6" width="15.4" height="13.9"/>
        <rect class="cls-3" x="30.8" y="141.7" width="15.4" height="13.9"/>
        <rect class="cls-2" x="30.8" y="127.8" width="15.4" height="13.9"/>
        <rect class="cls-2" x="30.8" y="113.9" width="15.4" height="13.9"/>
        <rect class="cls-2" x="30.8" y="100" width="15.4" height="13.9"/>
        <rect class="cls-3" x="30.8" y="86.1" width="15.4" height="13.9"/>
        <rect class="cls-2" x="30.8" y="72.3" width="15.4" height="13.9"/>
        <rect class="cls-5" x="30.8" y="44.5" width="15.4" height="13.9"/>
        <rect class="cls-1" x="15.4" y="155.6" width="15.4" height="13.9"/>
        <rect class="cls-2" x="15.4" y="141.7" width="15.4" height="13.9"/>
        <rect class="cls-2" x="15.4" y="127.8" width="15.4" height="13.9"/>
        <rect class="cls-2" x="15.4" y="113.9" width="15.4" height="13.9"/>
        <rect class="cls-2" x="15.4" y="100" width="15.4" height="13.9"/>
        <rect class="cls-2" x="15.4" y="86.2" width="15.4" height="13.9"/>
        <rect class="cls-2" x="15.4" y="72.3" width="15.4" height="13.9"/>
      </g>
    </g>
  </g>
</svg>